STARTFONT 2.1
COMMENT
COMMENT Converted from OpenType font "Q:\font stuff\winfont\Wytherness.ttf" by "otf2bdf 3.0".
COMMENT
FONT -FreeType-Wytherness-Medium-R-Normal--113-1130-72-72-P-270-ISO10646-1
SIZE 113 72 72
FONTBOUNDINGBOX 113 114 -3 -23
STARTPROPERTIES 19
FOUNDRY "FreeType"
FAMILY_NAME "Wytherness"
WEIGHT_NAME "Medium"
SLANT "R"
SETWIDTH_NAME "Normal"
ADD_STYLE_NAME ""
PIXEL_SIZE 113
POINT_SIZE 1130
RESOLUTION_X 72
RESOLUTION_Y 72
SPACING "P"
AVERAGE_WIDTH 270
CHARSET_REGISTRY "ISO10646"
CHARSET_ENCODING "1"
FONT_ASCENT 90
FONT_DESCENT 23
COPYRIGHT "Copyright (c) Graham Meade, 2003. All rights reserved."
_OTF_FONTFILE "Q:\font stuff\winfont\Wytherness.ttf"
_OTF_PSNAME "Wytherness"
ENDPROPERTIES
CHARS 219
STARTCHAR 0020
ENCODING 32
SWIDTH 283 0
DWIDTH 32 0
BBX 0 0 0 0
BITMAP
ENDCHAR
STARTCHAR 0021
ENCODING 33
SWIDTH 141 0
DWIDTH 16 0
BBX 4 73 6 0
BITMAP
F0
F0
F0
F0
F0
F0
F0
F0
F0
F0
F0
F0
F0
F0
F0
F0
F0
F0
F0
F0
F0
F0
F0
F0
F0
F0
F0
F0
F0
F0
F0
F0
F0
F0
F0
F0
F0
F0
F0
F0
F0
F0
F0
F0
F0
F0
F0
F0
F0
F0
F0
F0
F0
F0
00
00
00
00
00
00
00
00
00
00
00
F0
F0
F0
F0
F0
F0
F0
F0
ENDCHAR
STARTCHAR 0022
ENCODING 34
SWIDTH 238 0
DWIDTH 27 0
BBX 15 15 6 58
BITMAP
F01E
F01E
F01E
F01E
F01E
F01E
F01E
F01E
F01E
F01E
F01E
F01E
F01E
F01E
F01E
ENDCHAR
STARTCHAR 0023
ENCODING 35
SWIDTH 424 0
DWIDTH 48 0
BBX 36 35 6 15
BITMAP
003C007800
003C007800
007C007800
007800F800
007800F800
007800F000
007800F000
007800F000
7FFFFFFFF0
7FFFFFFFF0
7FFFFFFFF0
7FFFFFFFF0
007800F000
007800F000
007800F000
007800F000
007800F000
00F800F000
00F001F000
00F001E000
00F001E000
00F001E000
00F001E000
FFFFFFFFE0
FFFFFFFFE0
FFFFFFFFE0
FFFFFFFFE0
00F001E000
00F001E000
00F001E000
01E001E000
01E001E000
01E003C000
01E003C000
01E003C000
ENDCHAR
STARTCHAR 0024
ENCODING 36
SWIDTH 345 0
DWIDTH 39 0
BBX 27 73 6 0
BITMAP
000F0000
000F0000
000F0000
000F0000
003FC000
01FFF800
07FFFC00
0FFFFE00
1F8F1F80
3F0F0FC0
7C0F07C0
F80F01E0
F00F0000
F00F0000
F00F0000
F00F0000
F00F0000
F00F0000
F00F0000
F00F0000
F00F0000
F00F0000
F00F0000
F00F0000
F00F0000
F00F0000
F80F0000
7C0F0000
3E0F0000
1F8F0000
0FFF0000
07FFE000
01FFF800
007FFC00
000FFF00
000F1F80
000F0FC0
000F07C0
000F03E0
000F01E0
000F01E0
000F01E0
000F01E0
000F01E0
000F01E0
000F01E0
000F01E0
000F01E0
000F01E0
000F01E0
000F01E0
000F01E0
000F01E0
000F01E0
000F01E0
000F01E0
000F01E0
000F01E0
000F01E0
000F01E0
100F01E0
F80F03E0
7E0F07C0
3F0F0F80
1FCF3F00
0FFFFE00
03FFFC00
01FFF800
003FC000
000F0000
000F0000
000F0000
000F0000
ENDCHAR
STARTCHAR 0025
ENCODING 37
SWIDTH 619 0
DWIDTH 70 0
BBX 58 73 6 1
BITMAP
01F0000003C00000
07FC000007C00000
0FFE000007800000
1FFF000007800000
3F0F80000F800000
3E07C0000F000000
7C03C0000F000000
F803E0000F000000
F001E0001E000000
F001E0001E000000
F001E0001E000000
F001E0003E000000
F001E0003C000000
F001E0003C000000
F001E0007C000000
F001E00078000000
F001E00078000000
F001E000F8000000
F001E000F0000000
F001E000F0000000
F001E001F0000000
F001E001E0000000
F001E001E0000000
F001E001E0000000
F001E003C0000000
F001E003C0000000
F001E003C0000000
F001E00780000000
F001E00780000000
F001E00780000000
F803E00F80000000
7C07C00F00000000
3E07C00F00000000
3F0F801F00000000
1FFF001E0007E000
0FFE001E001FF800
07FC003E003FFC00
01F0003C003FFE00
0000003C007C3E00
0000007C00F81F00
0000007801F00F80
0000007801E007C0
0000007803C003C0
000000F003C003C0
000000F003C003C0
000000F003C003C0
000001E003C003C0
000001E003C003C0
000001E003C003C0
000003E003C003C0
000003C003C003C0
000003C003C003C0
000007C003C003C0
0000078003C003C0
0000078003C003C0
00000F8003C003C0
00000F0003C003C0
00000F0003C003C0
00001F0003C003C0
00001E0003C003C0
00001E0003C003C0
00001E0003C003C0
00003C0003C003C0
00003C0003C003C0
00003C0003E003C0
0000780003E007C0
0000780001F00F80
0000780000F81F00
0000F800007C3F00
0000F000003FFE00
0000F000003FFC00
0001F000001FF800
0001E0000007E000
ENDCHAR
STARTCHAR 0026
ENCODING 38
SWIDTH 345 0
DWIDTH 39 0
BBX 27 77 6 -4
BITMAP
003F8000
01FFF000
03FFFC00
0FFFFE00
1FE07F00
3F001F80
7E000FC0
FC0003E0
F80001E0
F00001E0
F00001E0
F00001E0
F00001E0
F00001E0
F00001E0
F00001E0
F00001E0
F00001E0
F00001E0
F00001E0
F00001E0
F00001E0
F00001E0
F80001E0
7C0003C0
3E000780
1F001F00
0FE07E00
03FFFC00
03FFF000
07FF0000
1FE00000
3F800000
7E000000
7C000000
F8000000
F0000000
F0000000
F0000000
F0038000
F003F000
F003FC00
F003FE00
F0007F00
F0001F80
F00007C0
F00003E0
F00001E0
F00001E0
F00001E0
F00001E0
F00001E0
F00001E0
F00001E0
F00001E0
F00001E0
F00001E0
F00001E0
F00001E0
F00001E0
F00001E0
F00001E0
F00001E0
F00001E0
F80001E0
FC0003E0
7E0007E0
3F001FE0
1FC07FE0
0FFFFFE0
03FFF9E0
01FFF1E0
003F81E0
000001E0
000001E0
000001E0
000001E0
ENDCHAR
STARTCHAR 0027
ENCODING 39
SWIDTH 141 0
DWIDTH 16 0
BBX 4 15 6 58
BITMAP
F0
F0
F0
F0
F0
F0
F0
F0
F0
F0
F0
F0
F0
F0
F0
ENDCHAR
STARTCHAR 0028
ENCODING 40
SWIDTH 230 0
DWIDTH 26 0
BBX 14 97 6 -12
BITMAP
003C
01FC
03FC
0FFC
1FE0
3F00
7E00
FC00
F800
F000
F000
F000
F000
F000
F000
F000
F000
F000
F000
F000
F000
F000
F000
F000
F000
F000
F000
F000
F000
F000
F000
F000
F000
F000
F000
F000
F000
F000
F000
F000
F000
F000
F000
F000
F000
F000
F000
F000
F000
F000
F000
F000
F000
F000
F000
F000
F000
F000
F000
F000
F000
F000
F000
F000
F000
F000
F000
F000
F000
F000
F000
F000
F000
F000
F000
F000
F000
F000
F000
F000
F000
F000
F000
F000
F000
F000
F000
F000
F800
7C00
7E00
3F00
1FE0
0FFC
03FC
00FC
003C
ENDCHAR
STARTCHAR 0029
ENCODING 41
SWIDTH 230 0
DWIDTH 26 0
BBX 14 97 6 -12
BITMAP
F000
FC00
FF00
FFC0
1FE0
03F0
01F8
00FC
003C
003C
003C
003C
003C
003C
003C
003C
003C
003C
003C
003C
003C
003C
003C
003C
003C
003C
003C
003C
003C
003C
003C
003C
003C
003C
003C
003C
003C
003C
003C
003C
003C
003C
003C
003C
003C
003C
003C
003C
003C
003C
003C
003C
003C
003C
003C
003C
003C
003C
003C
003C
003C
003C
003C
003C
003C
003C
003C
003C
003C
003C
003C
003C
003C
003C
003C
003C
003C
003C
003C
003C
003C
003C
003C
003C
003C
003C
003C
003C
003C
00FC
01F8
03F0
1FE0
FFC0
FF00
FC00
F000
ENDCHAR
STARTCHAR 002A
ENCODING 42
SWIDTH 327 0
DWIDTH 37 0
BBX 25 27 6 46
BITMAP
001E0000
001E0000
001E0000
001E0000
001E0000
301E0300
781E0F80
FE1E1F80
7F9E7F80
3FDFFE00
0FFFF800
03FFF000
00FFC000
00FF8000
03FFE000
07FFF800
1FFFFE00
7F9EFF00
FF1E3F80
7C1E0F80
701E0300
001E0100
001E0000
001E0000
001E0000
001E0000
001E0000
ENDCHAR
STARTCHAR 002B
ENCODING 43
SWIDTH 415 0
DWIDTH 47 0
BBX 34 35 6 15
BITMAP
0001E00000
0001E00000
0001E00000
0001E00000
0001E00000
0001E00000
0001E00000
0001E00000
0001E00000
0001E00000
0001E00000
0001E00000
0001E00000
0001E00000
0001E00000
FFFFFFFFC0
FFFFFFFFC0
FFFFFFFFC0
FFFFFFFFC0
0001E00000
0001E00000
0001E00000
0001E00000
0001E00000
0001E00000
0001E00000
0001E00000
0001E00000
0001E00000
0001E00000
0001E00000
0001E00000
0001E00000
0001E00000
0001E00000
ENDCHAR
STARTCHAR 002C
ENCODING 44
SWIDTH 176 0
DWIDTH 20 0
BBX 8 16 6 -7
BITMAP
0F
1F
1E
1E
1E
3E
3C
3C
3C
7C
78
78
78
78
F0
F0
ENDCHAR
STARTCHAR 002D
ENCODING 45
SWIDTH 415 0
DWIDTH 47 0
BBX 35 4 6 31
BITMAP
FFFFFFFFE0
FFFFFFFFE0
FFFFFFFFE0
FFFFFFFFE0
ENDCHAR
STARTCHAR 002E
ENCODING 46
SWIDTH 141 0
DWIDTH 16 0
BBX 4 8 6 0
BITMAP
F0
F0
F0
F0
F0
F0
F0
F0
ENDCHAR
STARTCHAR 002F
ENCODING 47
SWIDTH 345 0
DWIDTH 39 0
BBX 27 73 6 1
BITMAP
000001E0
000001E0
000003C0
000003C0
000003C0
00000780
00000780
00000780
00000F80
00000F00
00000F00
00001F00
00001E00
00001E00
00003E00
00003C00
00003C00
00007C00
00007800
00007800
00007800
0000F000
0000F000
0000F000
0001E000
0001E000
0001E000
0003E000
0003C000
0003C000
0007C000
00078000
00078000
000F8000
000F0000
000F0000
001F0000
001E0000
001E0000
003E0000
003C0000
003C0000
003C0000
00780000
00780000
00780000
00F00000
00F00000
00F00000
01F00000
01E00000
01E00000
03E00000
03C00000
03C00000
07C00000
07800000
07800000
0F800000
0F000000
0F000000
0F000000
1E000000
1E000000
1E000000
3C000000
3C000000
3C000000
7C000000
78000000
78000000
F8000000
F0000000
ENDCHAR
STARTCHAR 0030
ENCODING 48
SWIDTH 345 0
DWIDTH 39 0
BBX 27 73 6 0
BITMAP
003F8000
01FFF000
03FFFC00
0FFFFE00
1FE07F00
3F001F80
7E000FC0
FC0003E0
F80001E0
F00001E0
F00001E0
F00001E0
F00001E0
F00001E0
F00001E0
F00001E0
F00001E0
F00001E0
F00001E0
F00001E0
F00001E0
F00001E0
F00001E0
F00001E0
F00001E0
F00001E0
F00001E0
F00001E0
F00001E0
F00001E0
F00001E0
F00F01E0
F00F01E0
F00F01E0
F00F01E0
F00F01E0
F00F01E0
F00F01E0
F00F01E0
F00001E0
F00001E0
F00001E0
F00001E0
F00001E0
F00001E0
F00001E0
F00001E0
F00001E0
F00001E0
F00001E0
F00001E0
F00001E0
F00001E0
F00001E0
F00001E0
F00001E0
F00001E0
F00001E0
F00001E0
F00001E0
F00001E0
F00001E0
F00001E0
F00001E0
F80001E0
FC0003E0
7E000FC0
3F001F80
1FE07F00
0FFFFE00
03FFFC00
01FFF000
003F8000
ENDCHAR
STARTCHAR 0031
ENCODING 49
SWIDTH 345 0
DWIDTH 39 0
BBX 27 73 6 0
BITMAP
000F0000
000F0000
000F0000
000F0000
000F0000
000F0000
000F0000
000F0000
000F0000
000F0000
000F0000
000F0000
000F0000
000F0000
000F0000
000F0000
000F0000
000F0000
000F0000
000F0000
000F0000
000F0000
000F0000
000F0000
000F0000
000F0000
000F0000
000F0000
000F0000
000F0000
000F0000
000F0000
000F0000
000F0000
000F0000
000F0000
000F0000
000F0000
000F0000
000F0000
000F0000
000F0000
000F0000
000F0000
000F0000
000F0000
000F0000
000F0000
000F0000
000F0000
000F0000
000F0000
000F0000
000F0000
000F0000
000F0000
000F0000
000F0000
000F0000
000F0000
000F0000
000F0000
000F0000
000F0000
380F0180
FC0F03E0
7E0F07C0
3F0F0F80
1FCF3F00
0FFFFE00
03FFFC00
01FFF000
003F8000
ENDCHAR
STARTCHAR 0032
ENCODING 50
SWIDTH 345 0
DWIDTH 39 0
BBX 27 73 6 0
BITMAP
003F8000
01FFF000
03FFFC00
0FFFFE00
1FE07F00
3F001F80
7E000FC0
F80003E0
F00001E0
F00001E0
F00001E0
F00001E0
000001E0
000001E0
000001E0
000001E0
000001E0
000001E0
000001E0
000001E0
000001E0
000001E0
000001E0
000001E0
000001E0
000001E0
000001E0
000003C0
00000FC0
00001F80
00007F00
003FFE00
01FFF800
07FFF000
0FFF8000
1FE00000
3F000000
7E000000
FC000000
F0000000
F0000000
F0000000
F0000000
F0000000
F0000000
F0000000
F0000000
F0000000
F0000000
F0000000
F0000000
F0000000
F0000000
F0000000
F0000000
F0000000
F0000000
F0000000
F0000000
F0000000
F0000000
F0000000
F0000000
F0000000
F8000180
FC0003E0
7E0007C0
3F001F80
1FC07F00
0FFFFE00
03FFFC00
01FFF000
003F8000
ENDCHAR
STARTCHAR 0033
ENCODING 51
SWIDTH 345 0
DWIDTH 39 0
BBX 27 73 6 0
BITMAP
003F8000
01FFF000
03FFFC00
0FFFFE00
1FE07F00
3F001F80
7E000FC0
F80003E0
F00001E0
F00001E0
F00001E0
F00001E0
000001E0
000001E0
000001E0
000001E0
000001E0
000001E0
000001E0
000001E0
000001E0
000001E0
000001E0
000001E0
000001E0
000001E0
000001E0
000003C0
00000F80
00001F00
0000FE00
0007FC00
0007F000
0007FC00
0007FE00
0000FF00
00001F80
00000FC0
000003E0
000001E0
000001E0
000001E0
000001E0
000001E0
000001E0
000001E0
000001E0
000001E0
000001E0
000001E0
000001E0
000001E0
000001E0
000001E0
000001E0
000001E0
000001E0
000001E0
000001E0
000001E0
F00001E0
F00001E0
F00001E0
F00001E0
F80001E0
FC0003E0
7E000FC0
3F001F80
1FC07F00
0FFFFE00
03FFFC00
01FFF000
003F8000
ENDCHAR
STARTCHAR 0034
ENCODING 52
SWIDTH 345 0
DWIDTH 39 0
BBX 27 73 6 0
BITMAP
000F0000
001E0000
001E0000
001E0000
003E0000
003C0000
003C0000
003C0000
007C0000
00780000
00780000
00780000
00F00000
00F00000
00F00000
01F00000
01E00000
01E00000
01E00000
03E1E000
03C1E000
03C1E000
03C1E000
0781E000
0781E000
0781E000
0F81E000
0F01E000
0F01E000
0F01E000
1E01E000
1E01E000
1E01E000
3E01E000
3C01E000
3C01E000
3C01E000
7C01E000
7801E000
7801E000
7801E000
F001E000
F001E000
F001E000
F001E000
F001E000
F001E000
F001E000
F001E000
F801E3E0
7801E7C0
7E01EFC0
3F01FF00
1FC1FE00
0FFFFC00
03FFF000
01FFE000
003FE000
0001E000
0001E000
0001E000
0001E000
0001E000
0001E000
0001E000
0001E000
0001E000
0001E000
0001E000
0001E000
0001E000
0001E000
0001E000
ENDCHAR
STARTCHAR 0035
ENCODING 53
SWIDTH 345 0
DWIDTH 39 0
BBX 27 73 6 0
BITMAP
003F8000
01FFF000
03FFFC00
0FFFFE00
1FE07F00
3F001F80
7E0007C0
FC0003E0
F8000100
F0000000
F0000000
F0000000
F0000000
F0000000
F0000000
F0000000
F0000000
F0000000
F0000000
F0000000
F0000000
F0000000
F0000000
F0000000
F0000000
F0000000
F0000000
F0000000
F0000000
F0000000
F0000000
F03F8000
F1FFF000
F7FFFC00
FFFFFE00
FFC07F00
FF001F80
FC000FC0
F80003E0
000001E0
000001E0
000001E0
000001E0
000001E0
000001E0
000001E0
000001E0
000001E0
000001E0
000001E0
000001E0
000001E0
000001E0
000001E0
000001E0
000001E0
000001E0
000001E0
000001E0
000001E0
F00001E0
F00001E0
F00001E0
F00001E0
F80001E0
FC0003E0
7E000FC0
3F001F80
1FC07F00
0FFFFE00
03FFFC00
01FFF000
003F8000
ENDCHAR
STARTCHAR 0036
ENCODING 54
SWIDTH 345 0
DWIDTH 39 0
BBX 27 73 6 0
BITMAP
003C0000
01FC0000
03FC0000
0FFC0000
1FE00000
3F000000
7E000000
FC000000
F8000000
F0000000
F0000000
F0000000
F0000000
F0000000
F0000000
F0000000
F0000000
F0000000
F0000000
F0000000
F0000000
F0000000
F0000000
F0000000
F0000000
F0000000
F0000000
F0000000
F0000000
F0000000
F0000000
F03F8000
F0FFF000
F3FFFC00
F7FBFE00
FF803F00
FE000F80
FC0007C0
F80003E0
F00001E0
F00001E0
F00001E0
F00001E0
F00001E0
F00001E0
F00001E0
F00001E0
F00001E0
F00001E0
F00001E0
F00001E0
F00001E0
F00001E0
F00001E0
F00001E0
F00001E0
F00001E0
F00001E0
F00001E0
F00001E0
F00001E0
F00001E0
F00001E0
F00001E0
F80001E0
FC0003E0
7E000FC0
3F001F80
1FE07F00
0FFFFE00
03FFFC00
01FFF000
003F8000
ENDCHAR
STARTCHAR 0037
ENCODING 55
SWIDTH 345 0
DWIDTH 39 0
BBX 27 73 6 0
BITMAP
003F8000
01FFF000
03FFFC00
0FFFFE00
1FC07F00
3F001F80
7C0007C0
F80003E0
000001E0
000001E0
000001E0
000001E0
000001E0
000001E0
000001E0
000001E0
000001E0
000001E0
000003C0
000003C0
000003C0
000003C0
000003C0
00000780
00000780
00000780
00000780
00000780
00000F00
00000F00
00000F00
00000F00
00000F00
00001E00
00001E00
00001E00
00001E00
00001E00
00003C00
00003C00
00003C00
00003C00
00003C00
00007800
00007800
00007800
00007800
00007800
0000F000
0000F000
0000F000
0000F000
0000F000
0001E000
0001E000
0001E000
0001E000
0001E000
0003C000
0003C000
0003C000
0003C000
0003C000
00078000
00078000
00078000
00078000
00078000
000F0000
000F0000
000F0000
000F0000
000F0000
ENDCHAR
STARTCHAR 0038
ENCODING 56
SWIDTH 345 0
DWIDTH 39 0
BBX 27 73 6 0
BITMAP
003F8000
01FFF000
03FFFC00
0FFFFE00
1FE07F00
3F001F80
7E000FC0
FC0003E0
F80001E0
F00001E0
F00001E0
F00001E0
F00001E0
F00001E0
F00001E0
F00001E0
F00001E0
F00001E0
F00001E0
F00001E0
F00001E0
F00001E0
F00001E0
F00001E0
F00001E0
F00001E0
F80001E0
7C0003C0
3E000FC0
1F001F80
0FE07F00
07FFFE00
01FFF800
07FFFE00
0FFFFF00
1FE07F80
3F001FC0
7E000FC0
FC0003E0
F00001E0
F00001E0
F00001E0
F00001E0
F00001E0
F00001E0
F00001E0
F00001E0
F00001E0
F00001E0
F00001E0
F00001E0
F00001E0
F00001E0
F00001E0
F00001E0
F00001E0
F00001E0
F00001E0
F00001E0
F00001E0
F00001E0
F00001E0
F00001E0
F00001E0
F80001E0
FC0003E0
7E000FC0
3F001F80
1FC07F00
0FFFFE00
03FFFC00
01FFF000
003F8000
ENDCHAR
STARTCHAR 0039
ENCODING 57
SWIDTH 345 0
DWIDTH 39 0
BBX 27 73 6 0
BITMAP
003F8000
01FFF000
03FFFC00
0FFFFE00
1FE07F00
3F001F80
7E000FC0
FC0003E0
F80001E0
F00001E0
F00001E0
F00001E0
F00001E0
F00001E0
F00001E0
F00001E0
F00001E0
F00001E0
F00001E0
F00001E0
F00001E0
F00001E0
F00001E0
F00001E0
F00001E0
F00001E0
F00001E0
F00001E0
F00001E0
F00001E0
F00001E0
F00001E0
F00001E0
F00001E0
F80003E0
7C0007E0
3F001FE0
1FC03FE0
0FFFFFE0
07FFF9E0
01FFE1E0
003F81E0
000001E0
000001E0
000001E0
000001E0
000001E0
000001E0
000001E0
000001E0
000001E0
000001E0
000001E0
000001E0
000001E0
000001E0
000001E0
000001E0
000001E0
000001E0
000001E0
000001E0
000001E0
000001E0
000001E0
000003E0
00000FC0
00001F80
00007F00
0003FE00
0003FC00
0003F000
00038000
ENDCHAR
STARTCHAR 003A
ENCODING 58
SWIDTH 141 0
DWIDTH 16 0
BBX 4 39 6 0
BITMAP
F0
F0
F0
F0
F0
F0
F0
F0
00
00
00
00
00
00
00
00
00
00
00
00
00
00
00
00
00
00
00
00
00
00
00
F0
F0
F0
F0
F0
F0
F0
F0
ENDCHAR
STARTCHAR 003B
ENCODING 59
SWIDTH 176 0
DWIDTH 20 0
BBX 8 47 6 -8
BITMAP
0F
0F
0F
0F
0F
0F
0F
0F
00
00
00
00
00
00
00
00
00
00
00
00
00
00
00
00
00
00
00
00
00
00
00
0F
0F
1F
1E
1E
1E
3E
3C
3C
3C
7C
78
78
78
F8
F0
ENDCHAR
STARTCHAR 003C
ENCODING 60
SWIDTH 415 0
DWIDTH 47 0
BBX 35 27 6 19
BITMAP
0000000020
00000003E0
0000001FE0
000000FFE0
000007FFC0
00003FFE00
0001FFF000
000FFF8000
007FFC0000
07FFE00000
3FFE000000
FFF0000000
FF80000000
FF00000000
FFE0000000
7FFC000000
0FFF800000
01FFF00000
003FFC0000
0007FF8000
0000FFF000
00001FFE00
000003FFC0
0000007FE0
0000000FE0
00000001E0
0000000060
ENDCHAR
STARTCHAR 003D
ENCODING 61
SWIDTH 415 0
DWIDTH 47 0
BBX 35 19 6 23
BITMAP
FFFFFFFFE0
FFFFFFFFE0
FFFFFFFFE0
FFFFFFFFE0
0000000000
0000000000
0000000000
0000000000
0000000000
0000000000
0000000000
0000000000
0000000000
0000000000
0000000000
FFFFFFFFE0
FFFFFFFFE0
FFFFFFFFE0
FFFFFFFFE0
ENDCHAR
STARTCHAR 003E
ENCODING 62
SWIDTH 415 0
DWIDTH 47 0
BBX 35 27 6 19
BITMAP
C000000000
F800000000
FF00000000
FFE0000000
7FFC000000
0FFF800000
01FFF00000
003FFF0000
0003FFE000
00007FFC00
00000FFF80
000001FFE0
0000003FE0
0000001FE0
000000FFE0
000007FFC0
00001FFE00
0000FFF000
0007FF8000
003FFC0000
01FFE00000
0FFF000000
7FFC000000
FFE0000000
FF00000000
F800000000
C000000000
ENDCHAR
STARTCHAR 003F
ENCODING 63
SWIDTH 345 0
DWIDTH 39 0
BBX 27 73 6 0
BITMAP
003F8000
01FFF000
03FFFC00
0FFFFE00
1FC07F00
3F001F80
7C000FC0
F80007E0
000001E0
000001E0
000001E0
000001E0
000001E0
000001E0
000001E0
000001E0
000001E0
000001E0
000001E0
000001E0
000001E0
000001E0
000001E0
000001E0
000001E0
000001E0
000001E0
000007C0
00000F80
00001F80
0000FE00
000FFC00
000FF000
000FC000
000F0000
000F0000
000F0000
000F0000
000F0000
000F0000
000F0000
000F0000
000F0000
000F0000
000F0000
000F0000
000F0000
000F0000
000F0000
000F0000
000F0000
000F0000
000F0000
000F0000
00000000
00000000
00000000
00000000
00000000
00000000
00000000
00000000
00000000
00000000
00000000
000F0000
000F0000
000F0000
000F0000
000F0000
000F0000
000F0000
000F0000
ENDCHAR
STARTCHAR 0040
ENCODING 64
SWIDTH 477 0
DWIDTH 54 0
BBX 42 63 6 4
BITMAP
003FFF800000
01FFFFF00000
03FFFFF80000
0FFFFFFE0000
1FE000FF0000
3F00001F8000
7E00000FC000
FC000007E000
F8000003E000
F0000001E000
F0000001E000
F0000001E000
F0000001E000
F0000001E000
F0000001E000
F0000001E000
F0000001E000
F0003F81E000
F001FFE1E000
F007FFF9E000
F00FFFFDE000
F01FC07FE000
F03F001FE000
F07C0007E000
F0F80003E000
F0F00001E000
F0F00001E000
F0F00001E000
F0F00001E000
F0F00001E000
F0F00001E000
F0F00001E000
F0F00001E000
F0F00001E000
F0F00001E000
F0F00001E000
F0F00001E000
F0F00001E000
F0F00001E000
F0F80003E000
F0FC0007E3C0
F07E000FE3C0
F03F801FE3C0
F01FE0FFE3C0
F00FFFFFE3C0
F003FFF9E3C0
F001FFE1E3C0
F0003F81E3C0
F000000003C0
F000000003C0
F000000003C0
F000000003C0
F000000003C0
F000000003C0
F800000003C0
FC00000007C0
7E0000001F80
3F0000003F00
1FC00000FE00
0FFFFFFFFC00
07FFFFFFF800
01FFFFFFE000
003FFFFF0000
ENDCHAR
STARTCHAR 0041
ENCODING 65
SWIDTH 345 0
DWIDTH 39 0
BBX 27 73 6 0
BITMAP
003F8000
01FFF000
07FFFC00
0FFFFE00
1FE07F00
3F001F80
7E000FC0
FC0003E0
F80001E0
F00001E0
F00001E0
F00001E0
F00001E0
F00001E0
F00001E0
F00001E0
F00001E0
F00001E0
F00001E0
F00001E0
F00001E0
F00001E0
F00001E0
F00001E0
F00001E0
F00001E0
F00001E0
F00001E0
F00001E0
F00001E0
F00001E0
FFFFFFE0
FFFFFFE0
FFFFFFE0
FFFFFFE0
F00001E0
F00001E0
F00001E0
F00001E0
F00001E0
F00001E0
F00001E0
F00001E0
F00001E0
F00001E0
F00001E0
F00001E0
F00001E0
F00001E0
F00001E0
F00001E0
F00001E0
F00001E0
F00001E0
F00001E0
F00001E0
F00001E0
F00001E0
F00001E0
F00001E0
F00001E0
F00001E0
F00001E0
F00001E0
F00001E0
F00001E0
F00001E0
F00001E0
F00001E0
F00001E0
F00001E0
F00001E0
F00001E0
ENDCHAR
STARTCHAR 0042
ENCODING 66
SWIDTH 345 0
DWIDTH 39 0
BBX 27 73 6 0
BITMAP
FFFF8000
FFFFF000
FFFFFC00
FFFFFE00
F0007F00
F0001F80
F0000FC0
F00003E0
F00001E0
F00001E0
F00001E0
F00001E0
F00001E0
F00001E0
F00001E0
F00001E0
F00001E0
F00001E0
F00001E0
F00001E0
F00001E0
F00001E0
F00001E0
F00001E0
F00001E0
F00001E0
F00001E0
F00003C0
F0000F80
F0001F00
F0007E00
FFFFFC00
FFFFF000
FFFFFC00
FFFFFE00
F0007F00
F0001F80
F0000FC0
F00003E0
F00001E0
F00001E0
F00001E0
F00001E0
F00001E0
F00001E0
F00001E0
F00001E0
F00001E0
F00001E0
F00001E0
F00001E0
F00001E0
F00001E0
F00001E0
F00001E0
F00001E0
F00001E0
F00001E0
F00001E0
F00001E0
F00001E0
F00001E0
F00001E0
F00001E0
F00001E0
F00003E0
F0000FC0
F0001F80
F0007F00
FFFFFE00
FFFFFC00
FFFFF000
FFFF8000
ENDCHAR
STARTCHAR 0043
ENCODING 67
SWIDTH 345 0
DWIDTH 39 0
BBX 27 73 6 0
BITMAP
003F8000
01FFF000
07FFFC00
0FFFFE00
1FE07F00
3F001F80
7E0007C0
FC0003E0
F8000100
F0000000
F0000000
F0000000
F0000000
F0000000
F0000000
F0000000
F0000000
F0000000
F0000000
F0000000
F0000000
F0000000
F0000000
F0000000
F0000000
F0000000
F0000000
F0000000
F0000000
F0000000
F0000000
F0000000
F0000000
F0000000
F0000000
F0000000
F0000000
F0000000
F0000000
F0000000
F0000000
F0000000
F0000000
F0000000
F0000000
F0000000
F0000000
F0000000
F0000000
F0000000
F0000000
F0000000
F0000000
F0000000
F0000000
F0000000
F0000000
F0000000
F0000000
F0000000
F0000000
F0000000
F0000000
F0000000
F8000180
FC0003E0
7E0007C0
3F001F80
1FE07F00
0FFFFE00
03FFF800
01FFF000
003F8000
ENDCHAR
STARTCHAR 0044
ENCODING 68
SWIDTH 345 0
DWIDTH 39 0
BBX 27 73 6 0
BITMAP
FFFF8000
FFFFF000
FFFFFC00
FFFFFE00
F0007F00
F0001F80
F0000FC0
F00003E0
F00001E0
F00001E0
F00001E0
F00001E0
F00001E0
F00001E0
F00001E0
F00001E0
F00001E0
F00001E0
F00001E0
F00001E0
F00001E0
F00001E0
F00001E0
F00001E0
F00001E0
F00001E0
F00001E0
F00001E0
F00001E0
F00001E0
F00001E0
F00001E0
F00001E0
F00001E0
F00001E0
F00001E0
F00001E0
F00001E0
F00001E0
F00001E0
F00001E0
F00001E0
F00001E0
F00001E0
F00001E0
F00001E0
F00001E0
F00001E0
F00001E0
F00001E0
F00001E0
F00001E0
F00001E0
F00001E0
F00001E0
F00001E0
F00001E0
F00001E0
F00001E0
F00001E0
F00001E0
F00001E0
F00001E0
F00001E0
F00001E0
F00003E0
F0000FC0
F0001F80
F0007F00
FFFFFE00
FFFFFC00
FFFFF000
FFFF8000
ENDCHAR
STARTCHAR 0045
ENCODING 69
SWIDTH 336 0
DWIDTH 38 0
BBX 27 73 6 0
BITMAP
003F8000
01FFF000
07FFFC00
0FFFFE00
1FE07F00
3F001F80
7E0007C0
FC0003E0
F8000000
F0000000
F0000000
F0000000
F0000000
F0000000
F0000000
F0000000
F0000000
F0000000
F0000000
F0000000
F0000000
F0000000
F0000000
F0000000
F0000000
F0000000
F0000000
F0000000
F0000000
F0000000
F0000000
FFFFE000
FFFFE000
FFFFE000
FFFFE000
F0000000
F0000000
F0000000
F0000000
F0000000
F0000000
F0000000
F0000000
F0000000
F0000000
F0000000
F0000000
F0000000
F0000000
F0000000
F0000000
F0000000
F0000000
F0000000
F0000000
F0000000
F0000000
F0000000
F0000000
F0000000
F0000000
F0000000
F0000000
F0000000
F8000180
FC0003E0
7E0007C0
3F001F80
1FE07F00
0FFFFE00
03FFF800
01FFF000
003F8000
ENDCHAR
STARTCHAR 0046
ENCODING 70
SWIDTH 309 0
DWIDTH 35 0
BBX 27 73 6 0
BITMAP
003F8000
01FFF000
07FFFC00
0FFFFE00
1FE07F00
3F001F80
7E0007C0
FC0003E0
F8000000
F0000000
F0000000
F0000000
F0000000
F0000000
F0000000
F0000000
F0000000
F0000000
F0000000
F0000000
F0000000
F0000000
F0000000
F0000000
F0000000
F0000000
F0000000
F0000000
F0000000
F0000000
F0000000
FFFFE000
FFFFE000
FFFFE000
FFFFE000
F0000000
F0000000
F0000000
F0000000
F0000000
F0000000
F0000000
F0000000
F0000000
F0000000
F0000000
F0000000
F0000000
F0000000
F0000000
F0000000
F0000000
F0000000
F0000000
F0000000
F0000000
F0000000
F0000000
F0000000
F0000000
F0000000
F0000000
F0000000
F0000000
F0000000
F0000000
F0000000
F0000000
F0000000
F0000000
F0000000
F0000000
F0000000
ENDCHAR
STARTCHAR 0047
ENCODING 71
SWIDTH 345 0
DWIDTH 39 0
BBX 27 73 6 0
BITMAP
003F8000
01FFF000
07FFFC00
0FFFFE00
1FE07F00
3F001F80
7E0007C0
FC0003E0
F8000000
F0000000
F0000000
F0000000
F0000000
F0000000
F0000000
F0000000
F0000000
F0000000
F0000000
F0000000
F0000000
F0000000
F0000000
F0000000
F0000000
F0000000
F0000000
F0000000
F0000000
F0000000
F0000000
F00FFFE0
F00FFFE0
F00FFFE0
F00FFFE0
F00001E0
F00001E0
F00001E0
F00001E0
F00001E0
F00001E0
F00001E0
F00001E0
F00001E0
F00001E0
F00001E0
F00001E0
F00001E0
F00001E0
F00001E0
F00001E0
F00001E0
F00001E0
F00001E0
F00001E0
F00001E0
F00001E0
F00001E0
F00001E0
F00001E0
F00001E0
F00001E0
F00001E0
F00001E0
F80001E0
FC0003E0
7E000FC0
3F001F80
1FE07F00
0FFFFE00
03FFFC00
01FFF000
003F8000
ENDCHAR
STARTCHAR 0048
ENCODING 72
SWIDTH 345 0
DWIDTH 39 0
BBX 27 73 6 0
BITMAP
F00001E0
F00001E0
F00001E0
F00001E0
F00001E0
F00001E0
F00001E0
F00001E0
F00001E0
F00001E0
F00001E0
F00001E0
F00001E0
F00001E0
F00001E0
F00001E0
F00001E0
F00001E0
F00001E0
F00001E0
F00001E0
F00001E0
F00001E0
F00001E0
F00001E0
F00001E0
F00001E0
F00001E0
F00001E0
F00001E0
F00001E0
FFFFFFE0
FFFFFFE0
FFFFFFE0
FFFFFFE0
F00001E0
F00001E0
F00001E0
F00001E0
F00001E0
F00001E0
F00001E0
F00001E0
F00001E0
F00001E0
F00001E0
F00001E0
F00001E0
F00001E0
F00001E0
F00001E0
F00001E0
F00001E0
F00001E0
F00001E0
F00001E0
F00001E0
F00001E0
F00001E0
F00001E0
F00001E0
F00001E0
F00001E0
F00001E0
F00001E0
F00001E0
F00001E0
F00001E0
F00001E0
F00001E0
F00001E0
F00001E0
F00001E0
ENDCHAR
STARTCHAR 0049
ENCODING 73
SWIDTH 141 0
DWIDTH 16 0
BBX 4 73 6 0
BITMAP
F0
F0
F0
F0
F0
F0
F0
F0
F0
F0
F0
F0
F0
F0
F0
F0
F0
F0
F0
F0
F0
F0
F0
F0
F0
F0
F0
F0
F0
F0
F0
F0
F0
F0
F0
F0
F0
F0
F0
F0
F0
F0
F0
F0
F0
F0
F0
F0
F0
F0
F0
F0
F0
F0
F0
F0
F0
F0
F0
F0
F0
F0
F0
F0
F0
F0
F0
F0
F0
F0
F0
F0
F0
ENDCHAR
STARTCHAR 004A
ENCODING 74
SWIDTH 345 0
DWIDTH 39 0
BBX 26 73 7 0
BITMAP
000003C0
000003C0
000003C0
000003C0
000003C0
000003C0
000003C0
000003C0
000003C0
000003C0
000003C0
000003C0
000003C0
000003C0
000003C0
000003C0
000003C0
000003C0
000003C0
000003C0
000003C0
000003C0
000003C0
000003C0
000003C0
000003C0
000003C0
000003C0
000003C0
000003C0
000003C0
000003C0
000003C0
000003C0
000003C0
000003C0
000003C0
000003C0
000003C0
000003C0
000003C0
000003C0
000003C0
000003C0
000003C0
000003C0
000003C0
000003C0
000003C0
000003C0
000003C0
000003C0
000003C0
000003C0
000003C0
000003C0
000003C0
000003C0
000003C0
000003C0
000003C0
000003C0
000003C0
000003C0
700003C0
F00007C0
FC001F80
7E003F00
3F80FE00
1FFFFC00
07FFF800
01FFE000
007F0000
ENDCHAR
STARTCHAR 004B
ENCODING 75
SWIDTH 345 0
DWIDTH 39 0
BBX 27 73 6 0
BITMAP
F00001E0
F00001E0
F00001E0
F00001E0
F00001E0
F00001E0
F00001E0
F00001E0
F00001E0
F00001E0
F00001E0
F00001E0
F00001E0
F00001E0
F00001E0
F00001E0
F00001E0
F00001E0
F00001E0
F00001E0
F00001E0
F00001E0
F00001E0
F00001E0
F00001E0
F00001E0
F00003E0
F00007C0
F0001F80
F0007F00
F003FE00
F03FFC00
F1FFF000
F7FFFC00
FFF9FE00
FF803F00
FE000F80
FC0007C0
F80003E0
F00001E0
F00001E0
F00001E0
F00001E0
F00001E0
F00001E0
F00001E0
F00001E0
F00001E0
F00001E0
F00001E0
F00001E0
F00001E0
F00001E0
F00001E0
F00001E0
F00001E0
F00001E0
F00001E0
F00001E0
F00001E0
F00001E0
F00001E0
F00001E0
F00001E0
F00001E0
F00001E0
F00001E0
F00001E0
F00001E0
F00001E0
F00001E0
F00001E0
F00001E0
ENDCHAR
STARTCHAR 004C
ENCODING 76
SWIDTH 345 0
DWIDTH 39 0
BBX 27 73 6 0
BITMAP
F0000000
F0000000
F0000000
F0000000
F0000000
F0000000
F0000000
F0000000
F0000000
F0000000
F0000000
F0000000
F0000000
F0000000
F0000000
F0000000
F0000000
F0000000
F0000000
F0000000
F0000000
F0000000
F0000000
F0000000
F0000000
F0000000
F0000000
F0000000
F0000000
F0000000
F0000000
F0000000
F0000000
F0000000
F0000000
F0000000
F0000000
F0000000
F0000000
F0000000
F0000000
F0000000
F0000000
F0000000
F0000000
F0000000
F0000000
F0000000
F0000000
F0000000
F0000000
F0000000
F0000000
F0000000
F0000000
F0000000
F0000000
F0000000
F0000000
F0000000
F0000000
F0000000
F0000000
F0000000
F8000000
FC000000
7E000000
3F000000
1FE00000
0FFFFFE0
03FFFFE0
01FFFFE0
003FFFE0
ENDCHAR
STARTCHAR 004D
ENCODING 77
SWIDTH 548 0
DWIDTH 62 0
BBX 50 73 6 0
BITMAP
003F80007F0000
01FFF003FFE000
07FFFC07FFF800
0FFFFE1FFFFC00
1FE07F3FC0FE00
3F001FFE003F00
7E000FFC001F80
FC0003F80007C0
F80001F00003C0
F00001E00003C0
F00001E00003C0
F00001E00003C0
F00001E00003C0
F00001E00003C0
F00001E00003C0
F00001E00003C0
F00001E00003C0
F00001E00003C0
F00001E00003C0
F00001E00003C0
F00001E00003C0
F00001E00003C0
F00001E00003C0
F00001E00003C0
F00001E00003C0
F00001E00003C0
F00001E00003C0
F00001E00003C0
F00001E00003C0
F00001E00003C0
F00001E00003C0
F00001E00003C0
F00001E00003C0
F00001E00003C0
F00001E00003C0
F00001E00003C0
F00001E00003C0
F00001E00003C0
F00001E00003C0
F00001E00003C0
F00001E00003C0
F00001E00003C0
F00001E00003C0
F00001E00003C0
F00001E00003C0
F00001E00003C0
F00001E00003C0
F00001E00003C0
F00001E00003C0
F00001E00003C0
F00001E00003C0
F00001E00003C0
F00001E00003C0
F00001E00003C0
F00001E00003C0
F00001E00003C0
F00001E00003C0
F00001E00003C0
F00001E00003C0
F00001E00003C0
F00001E00003C0
F00001E00003C0
F00001E00003C0
F00001E00003C0
F00001E00003C0
F00001E00003C0
F00001E00003C0
F00001E00003C0
F00001E00003C0
F00001E00003C0
F00001E00003C0
F00001E00003C0
F00001E00003C0
ENDCHAR
STARTCHAR 004E
ENCODING 78
SWIDTH 345 0
DWIDTH 39 0
BBX 27 73 6 0
BITMAP
003F8000
01FFF000
07FFFC00
0FFFFE00
1FE07F00
3F001F80
7E000FC0
FC0003E0
F80001E0
F00001E0
F00001E0
F00001E0
F00001E0
F00001E0
F00001E0
F00001E0
F00001E0
F00001E0
F00001E0
F00001E0
F00001E0
F00001E0
F00001E0
F00001E0
F00001E0
F00001E0
F00001E0
F00001E0
F00001E0
F00001E0
F00001E0
F00001E0
F00001E0
F00001E0
F00001E0
F00001E0
F00001E0
F00001E0
F00001E0
F00001E0
F00001E0
F00001E0
F00001E0
F00001E0
F00001E0
F00001E0
F00001E0
F00001E0
F00001E0
F00001E0
F00001E0
F00001E0
F00001E0
F00001E0
F00001E0
F00001E0
F00001E0
F00001E0
F00001E0
F00001E0
F00001E0
F00001E0
F00001E0
F00001E0
F00001E0
F00001E0
F00001E0
F00001E0
F00001E0
F00001E0
F00001E0
F00001E0
F00001E0
ENDCHAR
STARTCHAR 004F
ENCODING 79
SWIDTH 345 0
DWIDTH 39 0
BBX 27 73 6 0
BITMAP
003F8000
01FFF000
07FFFC00
0FFFFE00
1FE07F00
3F001F80
7E000FC0
FC0003E0
F80001E0
F00001E0
F00001E0
F00001E0
F00001E0
F00001E0
F00001E0
F00001E0
F00001E0
F00001E0
F00001E0
F00001E0
F00001E0
F00001E0
F00001E0
F00001E0
F00001E0
F00001E0
F00001E0
F00001E0
F00001E0
F00001E0
F00001E0
F00001E0
F00001E0
F00001E0
F00001E0
F00001E0
F00001E0
F00001E0
F00001E0
F00001E0
F00001E0
F00001E0
F00001E0
F00001E0
F00001E0
F00001E0
F00001E0
F00001E0
F00001E0
F00001E0
F00001E0
F00001E0
F00001E0
F00001E0
F00001E0
F00001E0
F00001E0
F00001E0
F00001E0
F00001E0
F00001E0
F00001E0
F00001E0
F00001E0
F80001E0
FC0003E0
7E000FC0
3F001F80
1FE07F00
0FFFFE00
03FFFC00
01FFF000
003F8000
ENDCHAR
STARTCHAR 0050
ENCODING 80
SWIDTH 345 0
DWIDTH 39 0
BBX 27 73 6 0
BITMAP
FFFF8000
FFFFF000
FFFFFC00
FFFFFE00
F0007F00
F0001F80
F0000FC0
F00003E0
F00001E0
F00001E0
F00001E0
F00001E0
F00001E0
F00001E0
F00001E0
F00001E0
F00001E0
F00001E0
F00001E0
F00001E0
F00001E0
F00001E0
F00001E0
F00001E0
F00001E0
F00001E0
F00001E0
F00003C0
F0000FC0
F0001F80
F0007F00
FFFFFE00
FFFFF800
FFFFF000
FFFFC000
F0000000
F0000000
F0000000
F0000000
F0000000
F0000000
F0000000
F0000000
F0000000
F0000000
F0000000
F0000000
F0000000
F0000000
F0000000
F0000000
F0000000
F0000000
F0000000
F0000000
F0000000
F0000000
F0000000
F0000000
F0000000
F0000000
F0000000
F0000000
F0000000
F0000000
F0000000
F0000000
F0000000
F0000000
F0000000
F0000000
F0000000
F0000000
ENDCHAR
STARTCHAR 0051
ENCODING 81
SWIDTH 345 0
DWIDTH 39 0
BBX 38 80 6 -7
BITMAP
003F800000
01FFF00000
03FFFC0000
0FFFFE0000
1FE07F0000
3F001F8000
7E000FC000
FC0003E000
F80001E000
F00001E000
F00001E000
F00001E000
F00001E000
F00001E000
F00001E000
F00001E000
F00001E000
F00001E000
F00001E000
F00001E000
F00001E000
F00001E000
F00001E000
F00001E000
F00001E000
F00001E000
F00001E000
F00001E000
F00001E000
F00001E000
F00001E000
F00001E000
F00001E000
F00001E000
F00001E000
F00001E000
F00001E000
F00001E000
F00001E000
F00001E000
F00001E000
F00001E000
F00001E000
F00001E000
F00001E000
F00001E000
F00001E000
F00001E000
F00001E000
F00001E000
F00001E000
F00001E000
F00001E000
F00001E000
F00001E000
F00001E000
F00001E000
F00001E000
F00001E000
F00001E000
F00001E000
F00001E000
F00001E000
F00001E000
F80001E000
7C0003E000
7E000FC000
3F001F8000
1FC07F0000
07FFFE0000
0FFFF80000
1FFFF00000
3FFFFC0000
3E00FE0000
7C003F0000
F8001FE020
70000FFFF0
300007FFFC
000001FFF8
0000003FC0
ENDCHAR
STARTCHAR 0052
ENCODING 82
SWIDTH 345 0
DWIDTH 39 0
BBX 27 73 6 0
BITMAP
FFFF8000
FFFFF000
FFFFFC00
FFFFFE00
F0007F00
F0001F80
F0000FC0
F00003E0
F00001E0
F00001E0
F00001E0
F00001E0
F00001E0
F00001E0
F00001E0
F00001E0
F00001E0
F00001E0
F00001E0
F00001E0
F00001E0
F00001E0
F00001E0
F00001E0
F00001E0
F00001E0
F00001E0
F00003C0
F0000F80
F0001F00
F0007E00
FFFFFC00
FFFFF000
FFFFFC00
FFFFFE00
F0007F00
F0001F80
F0000FC0
F00003E0
F00001E0
F00001E0
F00001E0
F00001E0
F00001E0
F00001E0
F00001E0
F00001E0
F00001E0
F00001E0
F00001E0
F00001E0
F00001E0
F00001E0
F00001E0
F00001E0
F00001E0
F00001E0
F00001E0
F00001E0
F00001E0
F00001E0
F00001E0
F00001E0
F00001E0
F00001E0
F00001E0
F00001E0
F00001E0
F00001E0
F00001E0
F00001E0
F00001E0
F00001E0
ENDCHAR
STARTCHAR 0053
ENCODING 83
SWIDTH 345 0
DWIDTH 39 0
BBX 27 73 6 0
BITMAP
003F8000
01FFF000
07FFFC00
0FFFFE00
1FE07F00
3F001F80
7E0007C0
FC0003E0
F8000100
F0000000
F0000000
F0000000
F0000000
F0000000
F0000000
F0000000
F0000000
F0000000
F0000000
F0000000
F0000000
F0000000
F0000000
F0000000
F0000000
F0000000
F8000000
7C000000
3E000000
3F000000
1FE00000
07FF8000
03FFF000
00FFFC00
003FFE00
00007F00
00001F80
00000FC0
000003E0
000001E0
000001E0
000001E0
000001E0
000001E0
000001E0
000001E0
000001E0
000001E0
000001E0
000001E0
000001E0
000001E0
000001E0
000001E0
000001E0
000001E0
000001E0
000001E0
000001E0
000001E0
000001E0
000001E0
000001E0
000001E0
380001E0
F80003E0
7E000FC0
3F001F80
1FC07F00
0FFFFE00
03FFFC00
01FFF000
003F8000
ENDCHAR
STARTCHAR 0054
ENCODING 84
SWIDTH 345 0
DWIDTH 39 0
BBX 27 73 6 0
BITMAP
003F8000
01FFF000
03FFFC00
0FFFFE00
1FCF3F00
3F0F0F80
7C0F07C0
F80F03E0
000F0100
000F0000
000F0000
000F0000
000F0000
000F0000
000F0000
000F0000
000F0000
000F0000
000F0000
000F0000
000F0000
000F0000
000F0000
000F0000
000F0000
000F0000
000F0000
000F0000
000F0000
000F0000
000F0000
000F0000
000F0000
000F0000
000F0000
000F0000
000F0000
000F0000
000F0000
000F0000
000F0000
000F0000
000F0000
000F0000
000F0000
000F0000
000F0000
000F0000
000F0000
000F0000
000F0000
000F0000
000F0000
000F0000
000F0000
000F0000
000F0000
000F0000
000F0000
000F0000
000F0000
000F0000
000F0000
000F0000
000F0000
000F0000
000F0000
000F0000
000F0000
000F0000
000F0000
000F0000
000F0000
ENDCHAR
STARTCHAR 0055
ENCODING 85
SWIDTH 345 0
DWIDTH 39 0
BBX 27 73 6 0
BITMAP
F00001E0
F00001E0
F00001E0
F00001E0
F00001E0
F00001E0
F00001E0
F00001E0
F00001E0
F00001E0
F00001E0
F00001E0
F00001E0
F00001E0
F00001E0
F00001E0
F00001E0
F00001E0
F00001E0
F00001E0
F00001E0
F00001E0
F00001E0
F00001E0
F00001E0
F00001E0
F00001E0
F00001E0
F00001E0
F00001E0
F00001E0
F00001E0
F00001E0
F00001E0
F00001E0
F00001E0
F00001E0
F00001E0
F00001E0
F00001E0
F00001E0
F00001E0
F00001E0
F00001E0
F00001E0
F00001E0
F00001E0
F00001E0
F00001E0
F00001E0
F00001E0
F00001E0
F00001E0
F00001E0
F00001E0
F00001E0
F00001E0
F00001E0
F00001E0
F00001E0
F00001E0
F00001E0
F00001E0
F00001E0
F80001E0
FC0003E0
7E000FC0
3F001F80
1FE07F00
0FFFFE00
03FFFC00
01FFF000
003F8000
ENDCHAR
STARTCHAR 0056
ENCODING 86
SWIDTH 345 0
DWIDTH 39 0
BBX 27 73 6 1
BITMAP
F00001E0
F00001E0
780001E0
780001E0
780003E0
780003C0
780003C0
780003C0
7C0003C0
3C0003C0
3C0007C0
3C000780
3C000780
3C000780
3C000780
1E000780
1E000780
1E000F00
1E000F00
1E000F00
1E000F00
0F000F00
0F000F00
0F001E00
0F001E00
0F001E00
0F001E00
0F801E00
07801E00
07803E00
07803C00
07803C00
07803C00
07803C00
03C03C00
03C07C00
03C07800
03C07800
03C07800
03C07800
01E07800
01E07800
01E0F000
01E0F000
01E0F000
01E0F000
00F0F000
00F0F000
00F1F000
00F1E000
00F1E000
00F1E000
00F9E000
0079E000
007BE000
007BC000
007BC000
007BC000
007BC000
003FC000
003FC000
003F8000
003F8000
003F8000
003F8000
001F8000
001F8000
001F0000
001F0000
001F0000
001F0000
001F0000
000F0000
ENDCHAR
STARTCHAR 0057
ENCODING 87
SWIDTH 548 0
DWIDTH 62 0
BBX 50 73 6 0
BITMAP
F00001E00003C0
F00001E00003C0
F00001E00003C0
F00001E00003C0
F00001E00003C0
F00001E00003C0
F00001E00003C0
F00001E00003C0
F00001E00003C0
F00001E00003C0
F00001E00003C0
F00001E00003C0
F00001E00003C0
F00001E00003C0
F00001E00003C0
F00001E00003C0
F00001E00003C0
F00001E00003C0
F00001E00003C0
F00001E00003C0
F00001E00003C0
F00001E00003C0
F00001E00003C0
F00001E00003C0
F00001E00003C0
F00001E00003C0
F00001E00003C0
F00001E00003C0
F00001E00003C0
F00001E00003C0
F00001E00003C0
F00001E00003C0
F00001E00003C0
F00001E00003C0
F00001E00003C0
F00001E00003C0
F00001E00003C0
F00001E00003C0
F00001E00003C0
F00001E00003C0
F00001E00003C0
F00001E00003C0
F00001E00003C0
F00001E00003C0
F00001E00003C0
F00001E00003C0
F00001E00003C0
F00001E00003C0
F00001E00003C0
F00001E00003C0
F00001E00003C0
F00001E00003C0
F00001E00003C0
F00001E00003C0
F00001E00003C0
F00001E00003C0
F00001E00003C0
F00001E00003C0
F00001E00003C0
F00001E00003C0
F00001E00003C0
F00001E00003C0
F00001E00003C0
F00001E00003C0
F80001F00003C0
FC0003F80007C0
7E000FFC001F80
3F001FFE003F00
1FE07F3FC0FE00
0FFFFE1FFFFC00
03FFF807FFF800
01FFF001FFE000
003F80007F0000
ENDCHAR
STARTCHAR 0058
ENCODING 88
SWIDTH 345 0
DWIDTH 39 0
BBX 27 73 6 1
BITMAP
F00001E0
780001E0
780003C0
780003C0
3C0003C0
3C000780
3C000780
3E000780
1E000F80
1E000F00
1F000F00
0F001F00
0F001E00
0F801E00
07803E00
07803C00
07C03C00
03C07C00
03C07800
03C07800
01E0F800
01E0F000
01E0F000
00F0F000
00F1E000
00F1E000
0079E000
007BE000
007BC000
007FC000
003FC000
003F8000
003F8000
001F8000
001F0000
001F0000
001F0000
001F0000
001F0000
003F8000
003F8000
003F8000
003FC000
007BC000
007BC000
0079E000
00F9E000
00F1E000
00F0F000
01F0F000
01E0F000
01E0F800
03E07800
03C07800
03C07C00
07C03C00
07803C00
07803E00
0F801E00
0F001E00
0F001E00
0F000F00
1E000F00
1E000F00
1E000780
3C000780
3C000780
3C0003C0
7C0003C0
780003C0
780003E0
F80001E0
F00001E0
ENDCHAR
STARTCHAR 0059
ENCODING 89
SWIDTH 345 0
DWIDTH 39 0
BBX 27 73 6 0
BITMAP
F00001E0
F00001E0
F00001E0
F00001E0
F00001E0
F00001E0
F00001E0
F00001E0
F00001E0
F00001E0
F00001E0
F00001E0
F00001E0
F00001E0
F00001E0
F00001E0
F00001E0
F00001E0
F00001E0
F00001E0
F00001E0
F00001E0
F00001E0
F00001E0
F00001E0
F00001E0
F80003E0
7C0007C0
3E000FC0
1F803F80
0FFBFF00
07FFFC00
01FFF800
007FE000
000F0000
000F0000
000F0000
000F0000
000F0000
000F0000
000F0000
000F0000
000F0000
000F0000
000F0000
000F0000
000F0000
000F0000
000F0000
000F0000
000F0000
000F0000
000F0000
000F0000
000F0000
000F0000
000F0000
000F0000
000F0000
000F0000
000F0000
000F0000
000F0000
000F0000
000F0000
000F0000
000F0000
000F0000
000F0000
000F0000
000F0000
000F0000
000F0000
ENDCHAR
STARTCHAR 005A
ENCODING 90
SWIDTH 345 0
DWIDTH 39 0
BBX 27 73 6 0
BITMAP
003F8000
01FFF000
03FFFC00
0FFFFE00
1FC07F00
3F001F80
7C0007C0
F80003E0
000001E0
000003C0
000003C0
000007C0
00000780
00000780
00000F00
00000F00
00001F00
00001E00
00001E00
00003C00
00003C00
00007C00
00007800
00007800
0000F000
0000F000
0001F000
0001E000
0001E000
0003E000
0003C000
0007C000
00078000
00078000
000F8000
000F0000
001F0000
001E0000
001E0000
003E0000
003C0000
007C0000
00780000
00780000
00F80000
00F00000
01F00000
01E00000
01E00000
03E00000
03C00000
07C00000
07800000
07800000
0F800000
0F000000
1F000000
1E000000
1E000000
3E000000
3C000000
7C000000
78000000
78000000
F8000180
780003E0
3E0007C0
1F001F80
0FC07F00
07FFFE00
03FFFC00
00FFF000
001F8000
ENDCHAR
STARTCHAR 005B
ENCODING 91
SWIDTH 212 0
DWIDTH 24 0
BBX 12 97 6 -12
BITMAP
FFF0
FFF0
FFF0
FFF0
F000
F000
F000
F000
F000
F000
F000
F000
F000
F000
F000
F000
F000
F000
F000
F000
F000
F000
F000
F000
F000
F000
F000
F000
F000
F000
F000
F000
F000
F000
F000
F000
F000
F000
F000
F000
F000
F000
F000
F000
F000
F000
F000
F000
F000
F000
F000
F000
F000
F000
F000
F000
F000
F000
F000
F000
F000
F000
F000
F000
F000
F000
F000
F000
F000
F000
F000
F000
F000
F000
F000
F000
F000
F000
F000
F000
F000
F000
F000
F000
F000
F000
F000
F000
F000
F000
F000
F000
F000
FFF0
FFF0
FFF0
FFF0
ENDCHAR
STARTCHAR 005C
ENCODING 92
SWIDTH 345 0
DWIDTH 39 0
BBX 27 73 6 1
BITMAP
F0000000
78000000
78000000
78000000
3C000000
3C000000
3C000000
3E000000
1E000000
1E000000
1F000000
0F000000
0F000000
0F800000
07800000
07800000
07C00000
03C00000
03C00000
03C00000
01E00000
01E00000
01E00000
00F00000
00F00000
00F00000
00780000
00780000
00780000
007C0000
003C0000
003C0000
003E0000
001E0000
001E0000
001F0000
000F0000
000F0000
000F8000
00078000
00078000
00078000
0003C000
0003C000
0003C000
0001E000
0001E000
0001E000
0001F000
0000F000
0000F000
0000F800
00007800
00007800
00007C00
00003C00
00003C00
00003E00
00001E00
00001E00
00001E00
00000F00
00000F00
00000F00
00000780
00000780
00000780
000003C0
000003C0
000003C0
000003E0
000001E0
000001E0
ENDCHAR
STARTCHAR 005D
ENCODING 93
SWIDTH 212 0
DWIDTH 24 0
BBX 12 97 6 -12
BITMAP
FFF0
FFF0
FFF0
FFF0
00F0
00F0
00F0
00F0
00F0
00F0
00F0
00F0
00F0
00F0
00F0
00F0
00F0
00F0
00F0
00F0
00F0
00F0
00F0
00F0
00F0
00F0
00F0
00F0
00F0
00F0
00F0
00F0
00F0
00F0
00F0
00F0
00F0
00F0
00F0
00F0
00F0
00F0
00F0
00F0
00F0
00F0
00F0
00F0
00F0
00F0
00F0
00F0
00F0
00F0
00F0
00F0
00F0
00F0
00F0
00F0
00F0
00F0
00F0
00F0
00F0
00F0
00F0
00F0
00F0
00F0
00F0
00F0
00F0
00F0
00F0
00F0
00F0
00F0
00F0
00F0
00F0
00F0
00F0
00F0
00F0
00F0
00F0
00F0
00F0
00F0
00F0
00F0
00F0
FFF0
FFF0
FFF0
FFF0
ENDCHAR
STARTCHAR 005E
ENCODING 94
SWIDTH 274 0
DWIDTH 31 0
BBX 19 15 6 57
BITMAP
00F000
01F000
01F800
03FC00
03FC00
07FE00
079E00
0F9F00
1F0F00
1F0F80
3E0780
3C07C0
7C03C0
7803E0
F801E0
ENDCHAR
STARTCHAR 005F
ENCODING 95
SWIDTH 477 0
DWIDTH 54 0
BBX 42 4 6 -22
BITMAP
FFFFFFFFFFC0
FFFFFFFFFFC0
FFFFFFFFFFC0
FFFFFFFFFFC0
ENDCHAR
STARTCHAR 0060
ENCODING 96
SWIDTH 238 0
DWIDTH 27 0
BBX 14 15 6 57
BITMAP
F000
F800
7C00
3E00
3E00
1F00
0F80
0F80
07C0
03E0
01E0
01F0
00F8
007C
007C
ENDCHAR
STARTCHAR 0061
ENCODING 97
SWIDTH 345 0
DWIDTH 39 0
BBX 27 50 6 0
BITMAP
003F8000
01FFF000
03FFFC00
0FFFFE00
1FC07F00
3F001F80
7E000FC0
F80003E0
100001E0
000001E0
000001E0
000001E0
000001E0
000001E0
000001E0
000001E0
000001E0
000001E0
000001E0
003F81E0
01FFE1E0
03FFF9E0
0FFFFDE0
1FE07FE0
3F001FE0
7E000FE0
FC0003E0
F80001E0
F00001E0
F00001E0
F00001E0
F00001E0
F00001E0
F00001E0
F00001E0
F00001E0
F00001E0
F00001E0
F00001E0
F00001E0
F00001E0
F00001E0
F80003E0
7E0007E0
3F001FE0
1FC07FE0
0FFFFFE0
03FFF9E0
01FFE1E0
003F81E0
ENDCHAR
STARTCHAR 0062
ENCODING 98
SWIDTH 345 0
DWIDTH 39 0
BBX 27 73 6 0
BITMAP
F0000000
F0000000
F0000000
F0000000
F0000000
F0000000
F0000000
F0000000
F0000000
F0000000
F0000000
F0000000
F0000000
F0000000
F0000000
F0000000
F0000000
F0000000
F0000000
F0000000
F0000000
F0000000
F0000000
F03F8000
F0FFF000
F3FFFC00
F7FFFE00
FFC03F00
FF001F80
FC0007C0
F80003E0
F00001E0
F00001E0
F00001E0
F00001E0
F00001E0
F00001E0
F00001E0
F00001E0
F00001E0
F00001E0
F00001E0
F00001E0
F00001E0
F00001E0
F00001E0
F00001E0
F00001E0
F00001E0
F00001E0
F00001E0
F00001E0
F00001E0
F00001E0
F00001E0
F00001E0
F00001E0
F00001E0
F00001E0
F00001E0
F00001E0
F00001E0
F00001E0
F00001E0
F00001E0
F80003E0
FE0007C0
FF001F80
FFC07F00
F7FFFE00
F3FFFC00
F0FFF000
F03F8000
ENDCHAR
STARTCHAR 0063
ENCODING 99
SWIDTH 345 0
DWIDTH 39 0
BBX 27 50 6 0
BITMAP
003F8000
01FFF000
03FFFC00
0FFFFE00
1FE07F00
3F001F80
7E0007C0
FC0003E0
F8000100
F0000000
F0000000
F0000000
F0000000
F0000000
F0000000
F0000000
F0000000
F0000000
F0000000
F0000000
F0000000
F0000000
F0000000
F0000000
F0000000
F0000000
F0000000
F0000000
F0000000
F0000000
F0000000
F0000000
F0000000
F0000000
F0000000
F0000000
F0000000
F0000000
F0000000
F0000000
F0000000
F8000180
FC0003E0
7E0007C0
3F001F80
1FE07F00
0FFFFE00
03FFFC00
01FFF000
003F8000
ENDCHAR
STARTCHAR 0064
ENCODING 100
SWIDTH 345 0
DWIDTH 39 0
BBX 27 73 6 0
BITMAP
000001E0
000001E0
000001E0
000001E0
000001E0
000001E0
000001E0
000001E0
000001E0
000001E0
000001E0
000001E0
000001E0
000001E0
000001E0
000001E0
000001E0
000001E0
000001E0
000001E0
000001E0
000001E0
000001E0
003F81E0
01FFE1E0
07FFF9E0
0FFFFDE0
1FC03FE0
3F001FE0
7C0007E0
F80003E0
F00001E0
F00001E0
F00001E0
F00001E0
F00001E0
F00001E0
F00001E0
F00001E0
F00001E0
F00001E0
F00001E0
F00001E0
F00001E0
F00001E0
F00001E0
F00001E0
F00001E0
F00001E0
F00001E0
F00001E0
F00001E0
F00001E0
F00001E0
F00001E0
F00001E0
F00001E0
F00001E0
F00001E0
F00001E0
F00001E0
F00001E0
F00001E0
F00001E0
F80001E0
FC0003E0
7E000FE0
3F001FE0
1FC07FE0
0FFFFFE0
03FFF9E0
01FFE1E0
003F81E0
ENDCHAR
STARTCHAR 0065
ENCODING 101
SWIDTH 345 0
DWIDTH 39 0
BBX 27 50 6 0
BITMAP
003F8000
01FFF000
03FFFC00
0FFFFE00
1FE07F00
3F001F80
7E000FC0
FC0003E0
F80001E0
F00001E0
F00001E0
F00001E0
F00001E0
F00001E0
F00001E0
F00001E0
F00001E0
F00001E0
F00001E0
F00001E0
F00001E0
F00001E0
F80003E0
FC0007E0
FE000FC0
FF801F80
FFE0FF00
F7FFFE00
F3FFF800
F0FFF000
F03F8000
F0000000
F0000000
F0000000
F0000000
F0000000
F0000000
F0000000
F0000000
F0000000
F0000000
F8000180
FC0003E0
7E0007C0
3F001F80
1FC07F00
0FFFFE00
03FFFC00
01FFF000
003F8000
ENDCHAR
STARTCHAR 0066
ENCODING 102
SWIDTH 265 0
DWIDTH 30 0
BBX 27 73 6 0
BITMAP
003F8000
01FFF000
03FFFC00
0FFFFE00
1FE07F00
3F001F80
7E0007C0
FC0003E0
F8000100
F0000000
F0000000
F0000000
F0000000
F0000000
F0000000
F0000000
F0000000
F0000000
F0000000
F0000000
F0000000
F0000000
F0000000
FFFFE000
FFFFE000
FFFFE000
FFFFE000
F0000000
F0000000
F0000000
F0000000
F0000000
F0000000
F0000000
F0000000
F0000000
F0000000
F0000000
F0000000
F0000000
F0000000
F0000000
F0000000
F0000000
F0000000
F0000000
F0000000
F0000000
F0000000
F0000000
F0000000
F0000000
F0000000
F0000000
F0000000
F0000000
F0000000
F0000000
F0000000
F0000000
F0000000
F0000000
F0000000
F0000000
F0000000
F0000000
F0000000
F0000000
F0000000
F0000000
F0000000
F0000000
F0000000
ENDCHAR
STARTCHAR 0067
ENCODING 103
SWIDTH 345 0
DWIDTH 39 0
BBX 27 73 6 -23
BITMAP
003F81E0
01FFE1E0
07FFF9E0
0FFFFDE0
1FC03FE0
3F001FE0
7C0007E0
F80003E0
F00001E0
F00001E0
F00001E0
F00001E0
F00001E0
F00001E0
F00001E0
F00001E0
F00001E0
F00001E0
F00001E0
F00001E0
F00001E0
F00001E0
F00001E0
F00001E0
F00001E0
F00001E0
F00001E0
F00001E0
F00001E0
F00001E0
F00001E0
F00001E0
F00001E0
F00001E0
F00001E0
F00001E0
F00001E0
F00001E0
F00001E0
F00001E0
F00001E0
F00001E0
F80003E0
7E0007E0
3F001FE0
1FC07FE0
0FFFFFE0
03FFF9E0
01FFE1E0
003F81E0
000001E0
000001E0
000001E0
000001E0
000001E0
000001E0
000001E0
000001E0
000001E0
000001E0
000001E0
000001E0
000001E0
000001E0
000001E0
000003E0
00000FC0
00001F80
00007F00
0003FE00
0003FC00
0003F000
00038000
ENDCHAR
STARTCHAR 0068
ENCODING 104
SWIDTH 345 0
DWIDTH 39 0
BBX 27 73 6 0
BITMAP
F0000000
F0000000
F0000000
F0000000
F0000000
F0000000
F0000000
F0000000
F0000000
F0000000
F0000000
F0000000
F0000000
F0000000
F0000000
F0000000
F0000000
F0000000
F0000000
F0000000
F0000000
F0000000
F0000000
F03F8000
F0FFF000
F3FFFC00
FFFFFE00
FFE07F00
FF001F80
FE000FC0
FC0003E0
F80001E0
F00001E0
F00001E0
F00001E0
F00001E0
F00001E0
F00001E0
F00001E0
F00001E0
F00001E0
F00001E0
F00001E0
F00001E0
F00001E0
F00001E0
F00001E0
F00001E0
F00001E0
F00001E0
F00001E0
F00001E0
F00001E0
F00001E0
F00001E0
F00001E0
F00001E0
F00001E0
F00001E0
F00001E0
F00001E0
F00001E0
F00001E0
F00001E0
F00001E0
F00001E0
F00001E0
F00001E0
F00001E0
F00001E0
F00001E0
F00001E0
F00001E0
ENDCHAR
STARTCHAR 0069
ENCODING 105
SWIDTH 141 0
DWIDTH 16 0
BBX 4 66 6 0
BITMAP
F0
F0
F0
F0
F0
F0
F0
F0
00
00
00
00
00
00
00
00
F0
F0
F0
F0
F0
F0
F0
F0
F0
F0
F0
F0
F0
F0
F0
F0
F0
F0
F0
F0
F0
F0
F0
F0
F0
F0
F0
F0
F0
F0
F0
F0
F0
F0
F0
F0
F0
F0
F0
F0
F0
F0
F0
F0
F0
F0
F0
F0
F0
F0
ENDCHAR
STARTCHAR 006A
ENCODING 106
SWIDTH 150 0
DWIDTH 17 0
BBX 14 89 -3 -23
BITMAP
003C
003C
003C
003C
003C
003C
003C
003C
0000
0000
0000
0000
0000
0000
0000
0000
003C
003C
003C
003C
003C
003C
003C
003C
003C
003C
003C
003C
003C
003C
003C
003C
003C
003C
003C
003C
003C
003C
003C
003C
003C
003C
003C
003C
003C
003C
003C
003C
003C
003C
003C
003C
003C
003C
003C
003C
003C
003C
003C
003C
003C
003C
003C
003C
003C
003C
003C
003C
003C
003C
003C
003C
003C
003C
003C
003C
003C
003C
003C
003C
007C
00FC
01F8
03F0
1FE0
FFC0
FF00
FE00
F000
ENDCHAR
STARTCHAR 006B
ENCODING 107
SWIDTH 345 0
DWIDTH 39 0
BBX 27 73 6 0
BITMAP
F0000000
F0000000
F0000000
F0000000
F0000000
F0000000
F0000000
F0000000
F0000000
F0000000
F0000000
F0000000
F0000000
F0000000
F0000000
F0000000
F0000000
F0000000
F0000000
F0000000
F0000000
F0000000
F0000000
F00001E0
F00001E0
F00001E0
F00001E0
F00001E0
F00001E0
F00001E0
F00001E0
F00001E0
F00001E0
F00001E0
F00003E0
F0000FC0
F0001F80
F0007F00
F03FFE00
F0FFF800
F3FFF800
F7FFFC00
FFE07F00
FF001F80
FE000FC0
FC0003E0
F80001E0
F00001E0
F00001E0
F00001E0
F00001E0
F00001E0
F00001E0
F00001E0
F00001E0
F00001E0
F00001E0
F00001E0
F00001E0
F00001E0
F00001E0
F00001E0
F00001E0
F00001E0
F00001E0
F00001E0
F00001E0
F00001E0
F00001E0
F00001E0
F00001E0
F00001E0
F00001E0
ENDCHAR
STARTCHAR 006C
ENCODING 108
SWIDTH 141 0
DWIDTH 16 0
BBX 4 73 6 0
BITMAP
F0
F0
F0
F0
F0
F0
F0
F0
F0
F0
F0
F0
F0
F0
F0
F0
F0
F0
F0
F0
F0
F0
F0
F0
F0
F0
F0
F0
F0
F0
F0
F0
F0
F0
F0
F0
F0
F0
F0
F0
F0
F0
F0
F0
F0
F0
F0
F0
F0
F0
F0
F0
F0
F0
F0
F0
F0
F0
F0
F0
F0
F0
F0
F0
F0
F0
F0
F0
F0
F0
F0
F0
F0
ENDCHAR
STARTCHAR 006D
ENCODING 109
SWIDTH 548 0
DWIDTH 62 0
BBX 50 50 6 0
BITMAP
F03F80007F0000
F1FFF001FFE000
F3FFFC07FFF800
FFFFFE1FFFFC00
FFE07F3FC0FE00
FF001FFE003F00
FE000FFC001F80
FC0003F80007C0
F80001F00003C0
F00001E00003C0
F00001E00003C0
F00001E00003C0
F00001E00003C0
F00001E00003C0
F00001E00003C0
F00001E00003C0
F00001E00003C0
F00001E00003C0
F00001E00003C0
F00001E00003C0
F00001E00003C0
F00001E00003C0
F00001E00003C0
F00001E00003C0
F00001E00003C0
F00001E00003C0
F00001E00003C0
F00001E00003C0
F00001E00003C0
F00001E00003C0
F00001E00003C0
F00001E00003C0
F00001E00003C0
F00001E00003C0
F00001E00003C0
F00001E00003C0
F00001E00003C0
F00001E00003C0
F00001E00003C0
F00001E00003C0
F00001E00003C0
F00001E00003C0
F00001E00003C0
F00001E00003C0
F00001E00003C0
F00001E00003C0
F00001E00003C0
F00001E00003C0
F00001E00003C0
F00001E00003C0
ENDCHAR
STARTCHAR 006E
ENCODING 110
SWIDTH 345 0
DWIDTH 39 0
BBX 27 50 6 0
BITMAP
F03F8000
F0FFF000
F3FFFC00
FFFFFE00
FFE07F00
FF001F80
FE000FC0
FC0003E0
F80001E0
F00001E0
F00001E0
F00001E0
F00001E0
F00001E0
F00001E0
F00001E0
F00001E0
F00001E0
F00001E0
F00001E0
F00001E0
F00001E0
F00001E0
F00001E0
F00001E0
F00001E0
F00001E0
F00001E0
F00001E0
F00001E0
F00001E0
F00001E0
F00001E0
F00001E0
F00001E0
F00001E0
F00001E0
F00001E0
F00001E0
F00001E0
F00001E0
F00001E0
F00001E0
F00001E0
F00001E0
F00001E0
F00001E0
F00001E0
F00001E0
F00001E0
ENDCHAR
STARTCHAR 006F
ENCODING 111
SWIDTH 345 0
DWIDTH 39 0
BBX 27 50 6 0
BITMAP
003F8000
01FFF000
03FFFC00
0FFFFE00
1FE07F00
3F001F80
7E000FC0
FC0003E0
F80001E0
F00001E0
F00001E0
F00001E0
F00001E0
F00001E0
F00001E0
F00001E0
F00001E0
F00001E0
F00001E0
F00001E0
F00001E0
F00001E0
F00001E0
F00001E0
F00001E0
F00001E0
F00001E0
F00001E0
F00001E0
F00001E0
F00001E0
F00001E0
F00001E0
F00001E0
F00001E0
F00001E0
F00001E0
F00001E0
F00001E0
F00001E0
F00001E0
F80001E0
FC0003E0
7E000FC0
3F001F80
1FE07F00
0FFFFE00
03FFFC00
01FFF000
003F8000
ENDCHAR
STARTCHAR 0070
ENCODING 112
SWIDTH 345 0
DWIDTH 39 0
BBX 27 73 6 -23
BITMAP
F03F8000
F0FFF000
F3FFFC00
F7FFFE00
FFC03F00
FF001F80
FC0007C0
F80003E0
F00001E0
F00001E0
F00001E0
F00001E0
F00001E0
F00001E0
F00001E0
F00001E0
F00001E0
F00001E0
F00001E0
F00001E0
F00001E0
F00001E0
F00001E0
F00001E0
F00001E0
F00001E0
F00001E0
F00001E0
F00001E0
F00001E0
F00001E0
F00001E0
F00001E0
F00001E0
F00001E0
F00001E0
F00001E0
F00001E0
F00001E0
F00001E0
F00001E0
F00001E0
F80003E0
FE0007C0
FF001F80
FFC07F00
F7FFFE00
F3FFFC00
F0FFF000
F03F8000
F0000000
F0000000
F0000000
F0000000
F0000000
F0000000
F0000000
F0000000
F0000000
F0000000
F0000000
F0000000
F0000000
F0000000
F0000000
F0000000
F0000000
F0000000
F0000000
F0000000
F0000000
F0000000
F0000000
ENDCHAR
STARTCHAR 0071
ENCODING 113
SWIDTH 345 0
DWIDTH 39 0
BBX 27 73 6 -23
BITMAP
003F81E0
01FFE1E0
07FFF9E0
0FFFFDE0
1FC03FE0
3F001FE0
7C0007E0
F80003E0
F00001E0
F00001E0
F00001E0
F00001E0
F00001E0
F00001E0
F00001E0
F00001E0
F00001E0
F00001E0
F00001E0
F00001E0
F00001E0
F00001E0
F00001E0
F00001E0
F00001E0
F00001E0
F00001E0
F00001E0
F00001E0
F00001E0
F00001E0
F00001E0
F00001E0
F00001E0
F00001E0
F00001E0
F00001E0
F00001E0
F00001E0
F00001E0
F00001E0
F00001E0
F80003E0
7E0007E0
3F001FE0
1FC07FE0
0FFFFFE0
03FFF9E0
01FFE1E0
003F81E0
000001E0
000001E0
000001E0
000001E0
000001E0
000001E0
000001E0
000001E0
000001E0
000001E0
000001E0
000001E0
000001E0
000001E0
000001E0
000001E0
000001E0
000001E0
000001E0
000001E0
000001E0
000001E0
000001E0
ENDCHAR
STARTCHAR 0072
ENCODING 114
SWIDTH 309 0
DWIDTH 35 0
BBX 27 50 6 0
BITMAP
F03F8000
F1FFF000
F3FFFC00
FFFFFE00
FFE07F00
FF001F80
FE0007C0
FC0003E0
F8000100
F0000000
F0000000
F0000000
F0000000
F0000000
F0000000
F0000000
F0000000
F0000000
F0000000
F0000000
F0000000
F0000000
F0000000
F0000000
F0000000
F0000000
F0000000
F0000000
F0000000
F0000000
F0000000
F0000000
F0000000
F0000000
F0000000
F0000000
F0000000
F0000000
F0000000
F0000000
F0000000
F0000000
F0000000
F0000000
F0000000
F0000000
F0000000
F0000000
F0000000
F0000000
ENDCHAR
STARTCHAR 0073
ENCODING 115
SWIDTH 345 0
DWIDTH 39 0
BBX 27 50 6 0
BITMAP
003F8000
01FFF000
03FFFC00
0FFFFE00
1FE07F00
3F001F80
7E0007C0
FC0003E0
F8000100
F0000000
F0000000
F0000000
F0000000
F0000000
F0000000
F0000000
F0000000
F0000000
F0000000
F8000000
7E000000
3F000000
1FC00000
0FFF8000
03FFF000
01FFFC00
003FFE00
00007F00
00001F80
00000FC0
000003E0
000001E0
000001E0
000001E0
000001E0
000001E0
000001E0
000001E0
000001E0
000001E0
000001E0
300001E0
F80003E0
7E000FC0
3F001F80
1FC07F00
0FFFFE00
03FFFC00
01FFF000
003F8000
ENDCHAR
STARTCHAR 0074
ENCODING 116
SWIDTH 256 0
DWIDTH 29 0
BBX 19 66 6 0
BITMAP
F00000
F00000
F00000
F00000
F00000
F00000
F00000
F00000
F00000
F00000
F00000
F00000
F00000
F00000
F00000
F00000
F00000
FFFFE0
FFFFE0
FFFFE0
FFFFE0
F00000
F00000
F00000
F00000
F00000
F00000
F00000
F00000
F00000
F00000
F00000
F00000
F00000
F00000
F00000
F00000
F00000
F00000
F00000
F00000
F00000
F00000
F00000
F00000
F00000
F00000
F00000
F00000
F00000
F00000
F00000
F00000
F00000
F00000
F00000
F00000
F80000
FC0000
7E0000
3F0000
1FE000
0FFC00
03FC00
01FC00
003C00
ENDCHAR
STARTCHAR 0075
ENCODING 117
SWIDTH 345 0
DWIDTH 39 0
BBX 27 50 6 0
BITMAP
F00001E0
F00001E0
F00001E0
F00001E0
F00001E0
F00001E0
F00001E0
F00001E0
F00001E0
F00001E0
F00001E0
F00001E0
F00001E0
F00001E0
F00001E0
F00001E0
F00001E0
F00001E0
F00001E0
F00001E0
F00001E0
F00001E0
F00001E0
F00001E0
F00001E0
F00001E0
F00001E0
F00001E0
F00001E0
F00001E0
F00001E0
F00001E0
F00001E0
F00001E0
F00001E0
F00001E0
F00001E0
F00001E0
F00001E0
F00001E0
F00001E0
F00001E0
F80003E0
7E0007E0
3F001FE0
1FC07FE0
0FFFFFE0
03FFF9E0
01FFE1E0
003F81E0
ENDCHAR
STARTCHAR 0076
ENCODING 118
SWIDTH 309 0
DWIDTH 35 0
BBX 27 50 4 1
BITMAP
F00001E0
F00003E0
F80003C0
780003C0
780003C0
780003C0
78000780
3C000780
3C000780
3C000780
3C000F80
1E000F00
1E000F00
1E000F00
1E001F00
1F001E00
0F001E00
0F001E00
0F001E00
0F003C00
07803C00
07803C00
07803C00
07807C00
03C07800
03C07800
03C07800
03C0F800
03E0F000
01E0F000
01E0F000
01E1F000
01F1E000
00F1E000
00F1E000
00F1E000
00F3C000
007BC000
007BC000
007BC000
007FC000
003F8000
003F8000
003F8000
003F8000
003F0000
001F0000
001F0000
001F0000
001E0000
ENDCHAR
STARTCHAR 0077
ENCODING 119
SWIDTH 522 0
DWIDTH 59 0
BBX 50 50 4 0
BITMAP
F00001E00003C0
F00001E00003C0
F00001E00003C0
F00001E00003C0
F00001E00003C0
F00001E00003C0
F00001E00003C0
F00001E00003C0
F00001E00003C0
F00001E00003C0
F00001E00003C0
F00001E00003C0
F00001E00003C0
F00001E00003C0
F00001E00003C0
F00001E00003C0
F00001E00003C0
F00001E00003C0
F00001E00003C0
F00001E00003C0
F00001E00003C0
F00001E00003C0
F00001E00003C0
F00001E00003C0
F00001E00003C0
F00001E00003C0
F00001E00003C0
F00001E00003C0
F00001E00003C0
F00001E00003C0
F00001E00003C0
F00001E00003C0
F00001E00003C0
F00001E00003C0
F00001E00003C0
F00001E00003C0
F00001E00003C0
F00001E00003C0
F00001E00003C0
F00001E00003C0
F00001E00003C0
F00003E00007C0
F80007F0000FC0
7C000FF8001F80
3F001F7E003F00
1FC0FE3F81FE00
0FFFFC1FFFFC00
07FFF807FFF000
01FFE003FFC000
003F80007F0000
ENDCHAR
STARTCHAR 0078
ENCODING 120
SWIDTH 327 0
DWIDTH 37 0
BBX 27 50 5 1
BITMAP
F80003E0
780003C0
7C0003C0
3C0007C0
3C000780
1E000F80
1E000F00
1F001F00
0F001E00
0F803E00
07803C00
07C07C00
03C07800
03E0F800
01E0F000
01F1F000
00F1F000
00F9E000
007BE000
007BC000
003FC000
003F8000
003F8000
001F0000
001F0000
001F0000
003F8000
003F8000
007FC000
007BC000
007BE000
00F9E000
00F1E000
01F0F000
01E0F000
03E0F800
03C07800
07C07C00
07803C00
0F803E00
0F001E00
1F001F00
1E000F00
1E000F80
3E000780
3C000780
7C0003C0
780003C0
F80003E0
F00001E0
ENDCHAR
STARTCHAR 0079
ENCODING 121
SWIDTH 345 0
DWIDTH 39 0
BBX 27 73 6 -23
BITMAP
F00001E0
F00001E0
F00001E0
F00001E0
F00001E0
F00001E0
F00001E0
F00001E0
F00001E0
F00001E0
F00001E0
F00001E0
F00001E0
F00001E0
F00001E0
F00001E0
F00001E0
F00001E0
F00001E0
F00001E0
F00001E0
F00001E0
F00001E0
F00001E0
F00001E0
F00001E0
F00001E0
F00001E0
F00001E0
F00001E0
F00001E0
F00001E0
F00001E0
F00001E0
F00001E0
F00001E0
F00001E0
F00001E0
F00001E0
F00001E0
F00001E0
F00001E0
F80003E0
7E0007E0
3F001FE0
1FC07FE0
0FFFFFE0
03FFF9E0
01FFE1E0
003F81E0
000001E0
000001E0
000001E0
000001E0
000001E0
000001E0
000001E0
000001E0
000001E0
000001E0
000001E0
000001E0
000001E0
000001E0
000001E0
000003E0
00000FC0
00001F80
00007F00
0003FE00
0003FC00
0003F000
00038000
ENDCHAR
STARTCHAR 007A
ENCODING 122
SWIDTH 345 0
DWIDTH 39 0
BBX 27 50 6 0
BITMAP
003F8000
01FFF000
03FFFC00
0FFFFE00
1FC07F00
3F001F80
7E0007C0
F80003E0
100003E0
000007C0
00000780
00000F80
00001F00
00001F00
00003E00
00007C00
00007C00
0000F800
0001F000
0001F000
0003E000
0007C000
0007C000
000F8000
000F0000
001F0000
003E0000
003C0000
007C0000
00F80000
00F00000
01F00000
03E00000
03E00000
07C00000
0F800000
0F800000
1F000000
3E000000
3E000000
7C000000
F8000180
780003E0
3E0007C0
1F001F80
0FE07F00
07FFFE00
03FFFC00
00FFF000
001F8000
ENDCHAR
STARTCHAR 007B
ENCODING 123
SWIDTH 309 0
DWIDTH 35 0
BBX 23 97 6 -12
BITMAP
00000E
00007E
0000FE
0003FE
0007F0
000FC0
001F80
003F00
003E00
003C00
003C00
003C00
003C00
003C00
003C00
003C00
003C00
003C00
003C00
003C00
003C00
003C00
003C00
003C00
003C00
003C00
003C00
003C00
003C00
003C00
003C00
003C00
003C00
003C00
003C00
003C00
003C00
003C00
003C00
003C00
003C00
003C00
007C00
01F800
03F000
1FE000
FFC000
FF8000
FE0000
FF8000
1FC000
03E000
01F000
00F800
007C00
003C00
003C00
003C00
003C00
003C00
003C00
003C00
003C00
003C00
003C00
003C00
003C00
003C00
003C00
003C00
003C00
003C00
003C00
003C00
003C00
003C00
003C00
003C00
003C00
003C00
003C00
003C00
003C00
003C00
003C00
003C00
003C00
003C00
003E00
001F00
001F80
000FC0
0007F0
0003FE
0000FE
00007E
00000E
ENDCHAR
STARTCHAR 007C
ENCODING 124
SWIDTH 141 0
DWIDTH 16 0
BBX 4 96 6 -11
BITMAP
F0
F0
F0
F0
F0
F0
F0
F0
F0
F0
F0
F0
F0
F0
F0
F0
F0
F0
F0
F0
F0
F0
F0
F0
F0
F0
F0
F0
F0
F0
F0
F0
F0
F0
F0
F0
F0
F0
F0
F0
F0
F0
F0
F0
F0
F0
F0
F0
F0
F0
F0
F0
F0
F0
F0
F0
F0
F0
F0
F0
F0
F0
F0
F0
F0
F0
F0
F0
F0
F0
F0
F0
F0
F0
F0
F0
F0
F0
F0
F0
F0
F0
F0
F0
F0
F0
F0
F0
F0
F0
F0
F0
F0
F0
F0
F0
ENDCHAR
STARTCHAR 007D
ENCODING 125
SWIDTH 309 0
DWIDTH 35 0
BBX 23 97 6 -12
BITMAP
F00000
FC0000
FF0000
FFC000
1FE000
03F000
01F800
00FC00
003C00
003C00
003C00
003C00
003C00
003C00
003C00
003C00
003C00
003C00
003C00
003C00
003C00
003C00
003C00
003C00
003C00
003C00
003C00
003C00
003C00
003C00
003C00
003C00
003C00
003C00
003C00
003C00
003C00
003C00
003C00
003C00
003C00
003E00
003E00
001F80
000FC0
0007F0
0003FE
0001FE
0000FE
0001FE
0007F0
000FC0
001F80
001F00
003E00
003C00
003C00
003C00
003C00
003C00
003C00
003C00
003C00
003C00
003C00
003C00
003C00
003C00
003C00
003C00
003C00
003C00
003C00
003C00
003C00
003C00
003C00
003C00
003C00
003C00
003C00
003C00
003C00
003C00
003C00
003C00
003C00
003C00
003C00
00F800
01F800
03F000
1FE000
FFC000
FF0000
FC0000
F00000
ENDCHAR
STARTCHAR 007E
ENCODING 126
SWIDTH 469 0
DWIDTH 53 0
BBX 41 11 6 32
BITMAP
00FE00000000
07FFC0000000
0FFFF0000200
1FFFF8000700
3F01FC000F80
3E007F001F00
7C003FC03F00
F8000FFFFE00
300007FFFC00
100001FFF800
0000003FF000
ENDCHAR
STARTCHAR 00A0
ENCODING 160
SWIDTH 1026 0
DWIDTH 116 0
BBX 104 91 6 0
BITMAP
00080000000000000000000000
001600000000E0000000000000
00300000000310000000000000
00300000000310000000000000
00300000800310000200000000
00201000700310000200000000
0020687880031211E1E3C00000
003C8444800392121204600000
00208444800292121208200000
00208444800292121208200000
00208444800292121208200000
00208444800252121204400000
00208444800252121207800000
00208444800252121204000000
00204C44800332123206600000
002038440001E1F1E003800000
00000004000020000000000000
00000000000030000000000000
00000000000160000000000000
00000000000080000000000000
00000000000000000000000000
00000000000000000000000000
00000000000000000000000000
00000000000000000000000000
00000000000000000000000000
00000000000000000000000000
80000000000000000000000000
80008200000000000000000000
80008200000000000000000000
80000200000000000000000000
8C180E180001C0000039003C00
A26512260226289F0045112200
A241122202242890008510A200
2241122202242890008510A200
2231113402242890008510A200
220C915802242890008510A200
2204914002242890008510A200
2204914002242890008510A200
02189F3C01E3C7900078FF2200
00000000002000000000000000
00000000002000000000000000
00000000002000000000000000
00000000004000000000000000
00000000000000000000000000
00000000000000000000000000
00000000000000000000000000
00000000000000000000000000
00000000000000000000000000
00000000000000000000000000
00000000000000000000000000
00000080000000000000000000
00100080000000000000000000
00000080000000000000000000
00000080000000000000000000
F72187800FC7000E383800C386
192258800839803224C4032451
11245080083180222484020051
1124508008319FA22484020051
1122508008318022244C0207D1
112250800831802224B0020451
11225080083180222480020451
112251900831802224800224D1
10220FA0002F001C247801C3C0
00000020000000000000000000
00000000000000000000000000
00000000000000000000000000
00000000000000000000000000
00000000000000000000000000
00000000000000000000000000
00000000000000000000000000
00000000000000000000000000
00000000000000000000000000
00000000000000000000000000
00000000000000000000000000
80000000000000008000000000
80000000000000008000000000
80000000000000008000000000
80000000000000008000000000
F0E3C780407210079E3C71EC00
8910300049BA100D91C4091200
8A103000491A10089084091200
8A11B000491A10089084291200
89267000491A10089044D91200
0AC43000491A10089078891200
0A043000491A10089040891200
0A04300049BA100D9064891200
09E3D0003871F0069038791200
00000000080000000000000000
00000000080000000000000000
00000000080000000000000000
00000000180000000000000000
ENDCHAR
STARTCHAR 00A1
ENCODING 161
SWIDTH 141 0
DWIDTH 16 0
BBX 4 73 6 -11
BITMAP
F0
F0
F0
F0
F0
F0
F0
F0
00
00
00
00
00
00
00
00
00
00
00
F0
F0
F0
F0
F0
F0
F0
F0
F0
F0
F0
F0
F0
F0
F0
F0
F0
F0
F0
F0
F0
F0
F0
F0
F0
F0
F0
F0
F0
F0
F0
F0
F0
F0
F0
F0
F0
F0
F0
F0
F0
F0
F0
F0
F0
F0
F0
F0
F0
F0
F0
F0
F0
F0
ENDCHAR
STARTCHAR 00A2
ENCODING 162
SWIDTH 345 0
DWIDTH 39 0
BBX 27 50 6 0
BITMAP
000F0000
000F0000
000F0000
000F0000
003FC000
01FFF000
03FFFC00
0FFFFE00
1FCF3F00
3F0F0F80
7C0F07C0
F80F03E0
F00F0100
F00F0000
F00F0000
F00F0000
F00F0000
F00F0000
F00F0000
F00F0000
F00F0000
F00F0000
F00F0000
F00F0000
F00F0000
F00F0000
F00F0000
F00F0000
F00F0000
F00F0000
F00F0000
F00F0000
F00F0000
F00F0000
F00F0000
F00F0000
F00F0000
F00F0100
F80F03E0
7E0F07C0
3F0F0F80
1FCF3F00
0FFFFE00
03FFFC00
01FFF000
003FC000
000F0000
000F0000
000F0000
000F0000
ENDCHAR
STARTCHAR 00A3
ENCODING 163
SWIDTH 345 0
DWIDTH 39 0
BBX 27 73 6 0
BITMAP
003F8000
01FFF000
03FFFC00
0FFFFE00
1FE07F00
3F001F80
7E0007C0
FC0003E0
F8000100
F0000000
F0000000
F0000000
F0000000
F0000000
F0000000
F0000000
F0000000
F0000000
F0000000
F0000000
F0000000
F0000000
F0000000
F0000000
F0000000
F0000000
F0000000
FFFFE000
FFFFE000
FFFFE000
FFFFE000
F0000000
F0000000
F0000000
F0000000
F0000000
F0000000
F0000000
FFFFE000
FFFFE000
FFFFE000
FFFFE000
F0000000
F0000000
F0000000
F0000000
F0000000
F0000000
F0000000
F0000000
F0000000
F0000000
F0000000
F0000000
F0000000
F0000000
F0000000
F0000000
F0000000
F0000000
F0000000
F0000000
F0000000
F0000000
F8000000
FC000000
7E000000
3F000000
1FE00000
0FFFFFE0
1FFFFFE0
3FFFFFE0
7FFFFFE0
ENDCHAR
STARTCHAR 00A4
ENCODING 164
SWIDTH 442 0
DWIDTH 50 0
BBX 38 38 6 19
BITMAP
2000000010
7000000038
F800FE007C
7C03FFC0FC
3E0FFFE1F8
1F1FFFFBF0
0FBFE7FFE0
07FE00FFC0
03F8003F80
01F0001F00
03E0000F80
03C0000780
03C0000780
03C0000780
03C0000780
03C0000780
03C0000780
03C0000780
03C0000780
03C0000780
03C0000780
03C0000780
03C0000780
03C0000780
03C0000780
03C0000780
03C0000780
03E0000780
03F0000F80
03F8003F00
07FC007F80
0FFF01FFC0
1FBFFFFBE0
3F1FFFF1F0
7E07FFC0F8
FC00FE007C
7800000038
3000000010
ENDCHAR
STARTCHAR 00A5
ENCODING 165
SWIDTH 345 0
DWIDTH 39 0
BBX 27 73 6 0
BITMAP
F00001E0
F00001E0
F00001E0
F00001E0
F00001E0
F00001E0
F00001E0
F00001E0
F00001E0
F00001E0
F00001E0
F00001E0
F00001E0
F00001E0
F00001E0
F00001E0
F00001E0
F00001E0
F00001E0
F00001E0
F00001E0
F00001E0
F00001E0
F00001E0
F00001E0
F00001E0
F80001E0
7C0003C0
3E000FC0
1F001F80
0FC07F00
07FFFC00
01FFF800
007FE000
000F0000
000F0000
000F0000
000F0000
000F0000
000F0000
000F0000
000F0000
000F0000
000F0000
000F0000
000F0000
FFFFFFE0
FFFFFFE0
FFFFFFE0
FFFFFFE0
000F0000
000F0000
000F0000
000F0000
000F0000
000F0000
000F0000
FFFFFFE0
FFFFFFE0
FFFFFFE0
FFFFFFE0
000F0000
000F0000
000F0000
000F0000
000F0000
000F0000
000F0000
000F0000
000F0000
000F0000
000F0000
000F0000
ENDCHAR
STARTCHAR 00A6
ENCODING 166
SWIDTH 141 0
DWIDTH 16 0
BBX 4 81 6 -1
BITMAP
F0
F0
F0
F0
F0
F0
F0
F0
F0
F0
F0
F0
F0
F0
F0
F0
F0
F0
F0
F0
F0
F0
F0
F0
F0
F0
F0
F0
F0
F0
F0
F0
F0
F0
F0
F0
F0
00
00
00
00
00
00
00
F0
F0
F0
F0
F0
F0
F0
F0
F0
F0
F0
F0
F0
F0
F0
F0
F0
F0
F0
F0
F0
F0
F0
F0
F0
F0
F0
F0
F0
F0
F0
F0
F0
F0
F0
F0
F0
ENDCHAR
STARTCHAR 00A7
ENCODING 167
SWIDTH 345 0
DWIDTH 39 0
BBX 27 73 6 -10
BITMAP
003F8000
01FFF000
07FFFC00
0FFFFE00
1FE07F00
3F001F80
7E0007C0
FC0003E0
F8000000
F0000000
F0000000
F0000000
F0000000
F0000000
F0000000
F0000000
F0000000
F0000000
F8000000
7C000000
3E000000
1F000000
0FE00000
07FF8000
03FFF000
07FFFC00
0FFFFE00
1FE07F00
3F001F80
7E000FC0
FC0003E0
F80001E0
F00001E0
F00001E0
F00001E0
F00001E0
F00001E0
F00001E0
F00001E0
F00001E0
F00001E0
F00001E0
F80003E0
7E0007C0
3F001F80
1FC07F00
0FFFFE00
03FFF800
01FFFC00
003FFE00
00007F00
00001F80
00000FC0
000003E0
000001E0
000001E0
000001E0
000001E0
000001E0
000001E0
000001E0
000001E0
000001E0
000001E0
300001E0
F80003E0
7E000FC0
3F001F80
1FC07F00
0FFFFE00
03FFFC00
01FFF000
003F8000
ENDCHAR
STARTCHAR 00A8
ENCODING 168
SWIDTH 238 0
DWIDTH 27 0
BBX 15 8 6 62
BITMAP
F01E
F01E
F01E
F01E
F01E
F01E
F01E
F01E
ENDCHAR
STARTCHAR 00A9
ENCODING 169
SWIDTH 353 0
DWIDTH 40 0
BBX 28 48 6 24
BITMAP
07000700
1F0007C0
3F0007E0
7F0007F0
F80001F0
F00000F0
E01F80F0
E07FE0F0
E0FFF0F0
E1F0F8F0
E1E038F0
E1C000F0
E1C000F0
E1C000F0
E1C000F0
E1C000F0
E1C000F0
E1C000F0
E1C000F0
E1C000F0
E1C000F0
E1C000F0
E1C000F0
E1C000F0
E1C000F0
E1C000F0
E1C000F0
E1C000F0
E1C000F0
E1C000F0
E1C000F0
E1C000F0
E1C000F0
E1C000F0
E1C000F0
E1C000F0
E1E000F0
E1F078F0
E1FFF8F0
E0FFF0F0
E07FE0F0
E01F80F0
E00000F0
F00000F0
F80001F0
7F0007E0
1F0007C0
07000700
ENDCHAR
STARTCHAR 00AA
ENCODING 170
SWIDTH 345 0
DWIDTH 39 0
BBX 27 39 6 35
BITMAP
003F8000
01FFF000
03FFF800
0FFFFE00
1FE07F00
3F001F80
7E000FC0
FC0007E0
380003E0
000001E0
000001E0
000001E0
000001E0
000001E0
003F81E0
01FFE1E0
07FFF9E0
0FFFFDE0
1FC03FE0
3F001FE0
7C0007E0
F80003E0
F00001E0
F00001E0
F00001E0
F00001E0
F00001E0
F00001E0
F00001E0
F00001E0
F00001E0
F80003E0
7E0007E0
3F001FE0
1FC07FE0
0FFFFFE0
03FFF9E0
01FFE1E0
003F81E0
ENDCHAR
STARTCHAR 00AB
ENCODING 171
SWIDTH 353 0
DWIDTH 40 0
BBX 28 26 6 19
BITMAP
00040000
000C0010
001C0070
003C00F0
00F801F0
01F003E0
03F007C0
07E00F80
0FC03F80
1F807F00
7F00FE00
FF01FC00
FE01FC00
FC01F800
FE01F800
FE01FC00
7F00FE00
3F807F00
0FC03F80
07E01F80
03E007C0
01F003E0
00F801F0
007800F0
00180070
00080030
ENDCHAR
STARTCHAR 00AC
ENCODING 172
SWIDTH 433 0
DWIDTH 49 0
BBX 37 14 6 21
BITMAP
FFFFFFFC00
FFFFFFFE00
FFFFFFFF00
FFFFFFFF80
00000007C0
00000007C0
00000003E0
00000001F0
00000000F0
00000000F0
00000000F8
0000000078
0000000078
0000000078
ENDCHAR
STARTCHAR 00AD
ENCODING 173
SWIDTH 415 0
DWIDTH 47 0
BBX 35 4 6 31
BITMAP
FFFFFFFFE0
FFFFFFFFE0
FFFFFFFFE0
FFFFFFFFE0
ENDCHAR
STARTCHAR 00AE
ENCODING 174
SWIDTH 353 0
DWIDTH 40 0
BBX 28 48 6 24
BITMAP
07000700
1F000780
3F0007E0
7F0007F0
F80001F0
F00000F0
E1FF80F0
E1FFE0F0
E1FFF0F0
E1C0F8F0
E1C078F0
E1C038F0
E1C038F0
E1C038F0
E1C038F0
E1C038F0
E1C038F0
E1C038F0
E1C038F0
E1C078F0
E1C0F0F0
E1FFE0F0
E1FFE0F0
E1FFF0F0
E1FFF8F0
E1C0F8F0
E1C038F0
E1C038F0
E1C038F0
E1C038F0
E1C038F0
E1C038F0
E1C038F0
E1C038F0
E1C038F0
E1C038F0
E1C038F0
E1C038F0
E1C038F0
E1C038F0
E1C038F0
E1C038F0
E1C038F0
F00000F0
F80001F0
7F0007E0
1F0007C0
07000700
ENDCHAR
STARTCHAR 00B0
ENCODING 176
SWIDTH 274 0
DWIDTH 31 0
BBX 19 28 6 49
BITMAP
01F800
07FC00
0FFE00
0FFF00
1E0F00
1E0780
3C0780
3C0780
7803C0
7803C0
F801E0
F001E0
F001E0
F001E0
F001E0
F001E0
F001E0
F803E0
7803C0
7803C0
3C0780
3C0780
1E0780
1F0F00
1FFE00
0FFE00
07FC00
01F800
ENDCHAR
STARTCHAR 00B1
ENCODING 177
SWIDTH 415 0
DWIDTH 47 0
BBX 34 43 6 7
BITMAP
0001E00000
0001E00000
0001E00000
0001E00000
0001E00000
0001E00000
0001E00000
0001E00000
0001E00000
0001E00000
0001E00000
0001E00000
0001E00000
0001E00000
0001E00000
FFFFFFFFC0
FFFFFFFFC0
FFFFFFFFC0
FFFFFFFFC0
0001E00000
0001E00000
0001E00000
0001E00000
0001E00000
0001E00000
0001E00000
0001E00000
0001E00000
0001E00000
0001E00000
0001E00000
0001E00000
0001E00000
0001E00000
0000000000
0000000000
0000000000
0000000000
0000000000
FFFFFFFFC0
FFFFFFFFC0
FFFFFFFFC0
FFFFFFFFC0
ENDCHAR
STARTCHAR 00B2
ENCODING 178
SWIDTH 274 0
DWIDTH 31 0
BBX 19 52 6 22
BITMAP
01F000
07FE00
1FFF00
3E0F80
7803C0
F001E0
E000E0
E000E0
E000E0
0000E0
0000E0
0000E0
0000E0
0000E0
0000E0
0000E0
0000E0
0000E0
0000E0
0001E0
0003C0
000F80
01FF00
0FFE00
1FF800
3E0000
780000
F00000
E00000
E00000
E00000
E00000
E00000
E00000
E00000
E00000
E00000
E00000
E00000
E00000
E00000
E00000
E00000
E00000
E00000
E00080
F001E0
7803C0
3E0F80
1FFF00
07FE00
01F800
ENDCHAR
STARTCHAR 00B3
ENCODING 179
SWIDTH 274 0
DWIDTH 31 0
BBX 19 52 6 22
BITMAP
01F000
07FE00
1FFF00
3E0F80
7803C0
F001E0
E000E0
E000E0
E000E0
0000E0
0000E0
0000E0
0000E0
0000E0
0000E0
0000E0
0000E0
0000E0
0000E0
0001E0
0003C0
000F80
003E00
003C00
003F00
000F80
0003C0
0001E0
0000E0
0000E0
0000E0
0000E0
0000E0
0000E0
0000E0
0000E0
0000E0
0000E0
0000E0
0000E0
0000E0
0000E0
0000E0
E000E0
E000E0
E000E0
F001E0
7803C0
3E0F80
1FFF00
07FE00
01F800
ENDCHAR
STARTCHAR 00B4
ENCODING 180
SWIDTH 238 0
DWIDTH 27 0
BBX 15 15 5 59
BITMAP
003E
003E
007C
00F8
00F8
01F0
03E0
07C0
07C0
0F80
1F00
1F00
3E00
7C00
F800
ENDCHAR
STARTCHAR 00B5
ENCODING 181
SWIDTH 345 0
DWIDTH 39 0
BBX 27 65 6 -15
BITMAP
F00001E0
F00001E0
F00001E0
F00001E0
F00001E0
F00001E0
F00001E0
F00001E0
F00001E0
F00001E0
F00001E0
F00001E0
F00001E0
F00001E0
F00001E0
F00001E0
F00001E0
F00001E0
F00001E0
F00001E0
F00001E0
F00001E0
F00001E0
F00001E0
F00001E0
F00001E0
F00001E0
F00001E0
F00001E0
F00001E0
F00001E0
F00001E0
F00001E0
F00001E0
F00001E0
F00001E0
F00001E0
F00001E0
F00001E0
F00001E0
F00001E0
F00001E0
F80003E0
FE0007C0
FF001F80
FFC07F00
F7FFFE00
F3FFF800
F0FFF000
F03F8000
F007C000
F003E000
F003F000
F001FC00
F000FF00
F0003FE0
F0001FE0
F00007E0
F00001E0
F0000000
F0000000
F0000000
F0000000
F0000000
F0000000
ENDCHAR
STARTCHAR 00B6
ENCODING 182
SWIDTH 362 0
DWIDTH 41 0
BBX 29 79 6 -7
BITMAP
003FFFF8
01FFFFF8
07FFFFF8
0FFFFFF8
1FFFF878
3FFFF878
7FFFF878
FFFFF878
FFFFF878
FFFFF878
FFFFF878
FFFFF878
FFFFF878
FFFFF878
FFFFF878
FFFFF878
FFFFF878
FFFFF878
FFFFF878
FFFFF878
FFFFF878
FFFFF878
FFFFF878
FFFFF878
FFFFF878
FFFFF878
FFFFF878
7FFFF878
7FFFF878
3FFFF878
1FFFF878
0FFFF878
03FFF878
01FFF878
003FF878
00007878
00007878
00007878
00007878
00007878
00007878
00007878
00007878
00007878
00007878
00007878
00007878
00007878
00007878
00007878
00007878
00007878
00007878
00007878
00007878
00007878
00007878
00007878
00007878
00007878
00007878
00007878
00007878
00007878
00007878
00007878
00007878
00007878
00007878
00007878
00007878
00007878
00007878
00007878
00007878
00007878
00007878
00007878
00007878
ENDCHAR
STARTCHAR 00B7
ENCODING 183
SWIDTH 141 0
DWIDTH 16 0
BBX 4 8 6 31
BITMAP
F0
F0
F0
F0
F0
F0
F0
F0
ENDCHAR
STARTCHAR 00B8
ENCODING 184
SWIDTH 230 0
DWIDTH 26 0
BBX 14 24 6 -20
BITMAP
F000
F000
F000
F000
F000
FE00
FF00
FFC0
1FE0
03F0
01F8
007C
003C
003C
003C
003C
007C
01F8
03F0
1FE0
FFC0
FF80
FE00
F000
ENDCHAR
STARTCHAR 00B9
ENCODING 185
SWIDTH 274 0
DWIDTH 31 0
BBX 19 52 6 22
BITMAP
00E000
00E000
00E000
00E000
00E000
00E000
00E000
00E000
00E000
00E000
00E000
00E000
00E000
00E000
00E000
00E000
00E000
00E000
00E000
00E000
00E000
00E000
00E000
00E000
00E000
00E000
00E000
00E000
00E000
00E000
00E000
00E000
00E000
00E000
00E000
00E000
00E000
00E000
00E000
00E000
00E000
00E000
00E000
00E000
00E000
00E080
F0E1E0
78E3C0
3EEF80
1FFF00
07FE00
01F000
ENDCHAR
STARTCHAR 00BA
ENCODING 186
SWIDTH 274 0
DWIDTH 31 0
BBX 19 21 6 56
BITMAP
03F800
0FFE00
0FFE00
1FFF00
3F0F80
3E07C0
7C07C0
F803E0
F001E0
F001E0
F001E0
F001E0
F001E0
F803E0
7C07C0
7E07C0
3F0F80
1FFF00
0FFF00
0FFC00
03F000
ENDCHAR
STARTCHAR 00BB
ENCODING 187
SWIDTH 353 0
DWIDTH 40 0
BBX 28 27 6 19
BITMAP
80000000
C0018000
E001C000
F001E000
7801F000
7E00F800
3F007C00
1F803F00
0FC01F80
07E01FC0
07F00FE0
03F807F0
01FC03F0
00FC01F0
01FC03F0
03FC07F0
03F00FE0
07E01FC0
0FC01F80
1F803F00
3F007E00
3E00F800
7C00F000
F001E000
E001C000
C0018000
80010000
ENDCHAR
STARTCHAR 00BC
ENCODING 188
SWIDTH 654 0
DWIDTH 74 0
BBX 62 74 6 -1
BITMAP
00E0000000000000
00E0000000F80000
00E0000000F00000
00E0000000F00000
00E0000000F00000
00E0000001E00000
00E0000001E00000
00E0000001E00000
00E0000003E00000
00E0000003C00000
00E0000003C00000
00E0000007C00000
00E0000007800000
00E0000007800000
00E000000F800000
00E000000F000000
00E000000F000000
00E000001F000000
00E000001E000000
00E000001E000000
00E000003E000000
00E000003C000000
00E000003C000000
00E000003C001C00
00E0000078001C00
00E0000078003800
00E0000078003800
00E00000F0003800
00E00000F0007800
00E00000F0007000
00E00001F0007000
00E00001E0007000
00E00001E000E000
00E00003E000E000
00E00003C000E000
00E00003C000E000
00E00007C001C380
00E000078001C380
00E000078001C380
00E0000F8003C380
00E0000F00038380
00E0000F00038380
00E0001F00038380
00E0001E00078380
00E0001E00070380
00E0801E00070380
F0E1E03C00070380
78E3C03C000E0380
3EEF803C000E0380
1FFF0078000E0380
07FC0078000E0380
00E00078001C0380
000000F8001C0380
000000F0001C0380
000000F0001C0380
000001F0001C0380
000001E0001C0380
000001E0001E039C
000003E0000F03BC
000003C00007C3F8
000003C00003FFF0
000007C00001FFC0
0000078000003F80
0000078000000380
00000F8000000380
00000F0000000380
00000F0000000380
00000F0000000380
00001E0000000380
00001E0000000380
00001E0000000380
00003E0000000380
00003C0000000380
00003C0000000380
ENDCHAR
STARTCHAR 00BD
ENCODING 189
SWIDTH 672 0
DWIDTH 76 0
BBX 64 74 6 -1
BITMAP
00E0000000000000
00E0000000F80000
00E0000000F00000
00E0000000F00000
00E0000000F00000
00E0000001E00000
00E0000001E00000
00E0000001E00000
00E0000003E00000
00E0000003C00000
00E0000003C00000
00E0000007C00000
00E0000007800000
00E0000007800000
00E000000F800000
00E000000F000000
00E000000F000000
00E000001F000000
00E000001E000000
00E000001E000000
00E000003E000000
00E000003C000000
00E000003C000000
00E000003C000FC0
00E0000078007FF0
00E000007800FFF8
00E000007801F07E
00E00000F003C01F
00E00000F007800F
00E00000F0070007
00E00001F0070007
00E00001E0000007
00E00001E0000007
00E00003E0000007
00E00003C0000007
00E00003C0000007
00E00007C0000007
00E0000780000007
00E0000780000007
00E0000F80000007
00E0000F00000007
00E0000F0000000F
00E0001F0000001E
00E0001E0000007C
00E0001E00001FF8
00E0801E00007FF0
F0E1E03C0000FF80
78E3C03C0001F000
3EEF803C0003C000
1FFF007800078000
07FC007800070000
00E0007800070000
000000F800070000
000000F000070000
000000F000070000
000001F000070000
000001E000070000
000001E000070000
000003E000070000
000003C000070000
000003C000070000
000007C000070000
0000078000070000
0000078000070000
00000F8000070000
00000F0000070000
00000F0000070000
00000F0000070000
00001E0000078007
00001E000003C01E
00001E000001F07C
00003E000000FFF8
00003C0000007FF0
00003C0000000FC0
ENDCHAR
STARTCHAR 00BE
ENCODING 190
SWIDTH 663 0
DWIDTH 75 0
BBX 63 74 6 0
BITMAP
01F0000000000000
07FE0000007C0000
1FFF000000780000
3E0F800000780000
7803C00000F80000
F001E00000F00000
E000E00000F00000
E000E00001F00000
E000E00001E00000
0000E00001E00000
0000E00001E00000
0000E00003C00000
0000E00003C00000
0000E00003C00000
0000E00007800000
0000E00007800000
0000E00007800000
0000E0000F800000
0000E0000F000000
0001E0000F000000
0003C0001F000000
000F00001E000000
007E00001E000000
007C00003E000E00
007E00003C001E00
000F80003C001C00
0003C0007C001C00
0001E00078001C00
0000E00078003C00
0000E00078003800
0000E000F0003800
0000E000F0003800
0000E000F0007000
0000E001E0007000
0000E001E0007000
0000E001E0007000
0000E003E000E1C0
0000E003C000E1C0
0000E003C000E1C0
0000E007C001E1C0
0000E0078001C1C0
0000E0078001C1C0
0000E00F8001C1C0
E000E00F0003C1C0
E000E00F000381C0
E000E01F000381C0
F001E01E000381C0
7803C01E000701C0
3E0F803E000701C0
1FFF003C000701C0
07FE003C000F01C0
01F8003C000E01C0
00000078000E01C0
00000078000E01C0
00000078000E01C0
000000F0000E01C0
000000F0000E01C0
000000F0000F01CE
000001F0000781DE
000001E00003E1FC
000001E00001FFF8
000003E00000FFE0
000003C000001FC0
000003C0000001C0
000007C0000001C0
00000780000001C0
00000780000001C0
00000F80000001C0
00000F00000001C0
00000F00000001C0
00001F00000001C0
00001E00000001C0
00001E00000001C0
00001E00000001C0
ENDCHAR
STARTCHAR 00BF
ENCODING 191
SWIDTH 345 0
DWIDTH 39 0
BBX 27 73 6 -11
BITMAP
001E0000
001E0000
001E0000
001E0000
001E0000
001E0000
001E0000
001E0000
00000000
00000000
00000000
00000000
00000000
00000000
00000000
00000000
00000000
00000000
00000000
001E0000
001E0000
001E0000
001E0000
001E0000
001E0000
001E0000
001E0000
001E0000
001E0000
001E0000
001E0000
001E0000
001E0000
001E0000
001E0000
001E0000
001E0000
001E0000
001E0000
007E0000
01FE0000
07FE0000
0FE00000
1F800000
3E000000
7C000000
F8000000
F0000000
F0000000
F0000000
F0000000
F0000000
F0000000
F0000000
F0000000
F0000000
F0000000
F0000000
F0000000
F0000000
F0000000
F0000000
F0000000
F0000000
F8000100
FC0003E0
7E0007C0
3F001F80
1FE07F00
0FFFFE00
07FFFC00
01FFF000
003F8000
ENDCHAR
STARTCHAR 00C0
ENCODING 192
SWIDTH 345 0
DWIDTH 39 0
BBX 27 90 6 0
BITMAP
01E00000
00F00000
00F80000
00780000
003C0000
001E0000
000F0000
00078000
0003C000
0001E000
0000F000
00007800
00000000
00000000
00000000
00000000
00000000
003F8000
01FFF000
07FFFC00
0FFFFE00
1FE07F00
3F001F80
7E0007C0
F80003E0
F00001E0
F00001E0
F00001E0
F00001E0
F00001E0
F00001E0
F00001E0
F00001E0
F00001E0
F00001E0
F00001E0
F00001E0
F00001E0
F00001E0
F00001E0
F00001E0
F00001E0
F00001E0
F00001E0
F00001E0
F00001E0
F00001E0
FFFFFFE0
FFFFFFE0
FFFFFFE0
FFFFFFE0
F00001E0
F00001E0
F00001E0
F00001E0
F00001E0
F00001E0
F00001E0
F00001E0
F00001E0
F00001E0
F00001E0
F00001E0
F00001E0
F00001E0
F00001E0
F00001E0
F00001E0
F00001E0
F00001E0
F00001E0
F00001E0
F00001E0
F00001E0
F00001E0
F00001E0
F00001E0
F00001E0
F00001E0
F00001E0
F00001E0
F00001E0
F00001E0
F00001E0
F00001E0
F00001E0
F00001E0
F00001E0
F00001E0
F00001E0
ENDCHAR
STARTCHAR 00C1
ENCODING 193
SWIDTH 345 0
DWIDTH 39 0
BBX 27 90 6 0
BITMAP
00007800
0000F000
0001E000
0003C000
00078000
000F0000
001E0000
003C0000
00780000
00F00000
01F00000
01E00000
00000000
00000000
00000000
00000000
00000000
003F8000
01FFF000
07FFFC00
0FFFFE00
1FE07F00
3F001F80
7E0007C0
F80003E0
F00001E0
F00001E0
F00001E0
F00001E0
F00001E0
F00001E0
F00001E0
F00001E0
F00001E0
F00001E0
F00001E0
F00001E0
F00001E0
F00001E0
F00001E0
F00001E0
F00001E0
F00001E0
F00001E0
F00001E0
F00001E0
F00001E0
FFFFFFE0
FFFFFFE0
FFFFFFE0
FFFFFFE0
F00001E0
F00001E0
F00001E0
F00001E0
F00001E0
F00001E0
F00001E0
F00001E0
F00001E0
F00001E0
F00001E0
F00001E0
F00001E0
F00001E0
F00001E0
F00001E0
F00001E0
F00001E0
F00001E0
F00001E0
F00001E0
F00001E0
F00001E0
F00001E0
F00001E0
F00001E0
F00001E0
F00001E0
F00001E0
F00001E0
F00001E0
F00001E0
F00001E0
F00001E0
F00001E0
F00001E0
F00001E0
F00001E0
F00001E0
ENDCHAR
STARTCHAR 00C2
ENCODING 194
SWIDTH 345 0
DWIDTH 39 0
BBX 27 90 6 0
BITMAP
001F0000
001F0000
003F8000
007FC000
007BC000
00F1E000
01F0F000
01E0F000
03C07800
03803C00
07803C00
0F001E00
00000000
00000000
00000000
00000000
00000000
003F8000
01FFF000
07FFFC00
0FFFFE00
1FE07F00
3F001F80
7E0007C0
F80003E0
F00001E0
F00001E0
F00001E0
F00001E0
F00001E0
F00001E0
F00001E0
F00001E0
F00001E0
F00001E0
F00001E0
F00001E0
F00001E0
F00001E0
F00001E0
F00001E0
F00001E0
F00001E0
F00001E0
F00001E0
F00001E0
F00001E0
FFFFFFE0
FFFFFFE0
FFFFFFE0
FFFFFFE0
F00001E0
F00001E0
F00001E0
F00001E0
F00001E0
F00001E0
F00001E0
F00001E0
F00001E0
F00001E0
F00001E0
F00001E0
F00001E0
F00001E0
F00001E0
F00001E0
F00001E0
F00001E0
F00001E0
F00001E0
F00001E0
F00001E0
F00001E0
F00001E0
F00001E0
F00001E0
F00001E0
F00001E0
F00001E0
F00001E0
F00001E0
F00001E0
F00001E0
F00001E0
F00001E0
F00001E0
F00001E0
F00001E0
F00001E0
ENDCHAR
STARTCHAR 00C3
ENCODING 195
SWIDTH 345 0
DWIDTH 39 0
BBX 27 86 6 0
BITMAP
03F00100
0FFF0F80
3FFFFFE0
7FFFFF80
1E07FE00
0001F800
00000000
00000000
00000000
00000000
00000000
00000000
00000000
003F8000
01FFF000
07FFFC00
0FFFFE00
1FE07F00
3F001F80
7E0007C0
F80003E0
F00001E0
F00001E0
F00001E0
F00001E0
F00001E0
F00001E0
F00001E0
F00001E0
F00001E0
F00001E0
F00001E0
F00001E0
F00001E0
F00001E0
F00001E0
F00001E0
F00001E0
F00001E0
F00001E0
F00001E0
F00001E0
F00001E0
FFFFFFE0
FFFFFFE0
FFFFFFE0
FFFFFFE0
F00001E0
F00001E0
F00001E0
F00001E0
F00001E0
F00001E0
F00001E0
F00001E0
F00001E0
F00001E0
F00001E0
F00001E0
F00001E0
F00001E0
F00001E0
F00001E0
F00001E0
F00001E0
F00001E0
F00001E0
F00001E0
F00001E0
F00001E0
F00001E0
F00001E0
F00001E0
F00001E0
F00001E0
F00001E0
F00001E0
F00001E0
F00001E0
F00001E0
F00001E0
F00001E0
F00001E0
F00001E0
F00001E0
F00001E0
ENDCHAR
STARTCHAR 00C4
ENCODING 196
SWIDTH 345 0
DWIDTH 39 0
BBX 27 87 6 0
BITMAP
03C07800
03C07800
03C07800
03C07800
03C07800
03C07800
03C07800
03C07800
00000000
00000000
00000000
00000000
00000000
00000000
003F8000
01FFF000
07FFFC00
0FFFFE00
1FE07F00
3F001F80
7E0007C0
F80003E0
F00001E0
F00001E0
F00001E0
F00001E0
F00001E0
F00001E0
F00001E0
F00001E0
F00001E0
F00001E0
F00001E0
F00001E0
F00001E0
F00001E0
F00001E0
F00001E0
F00001E0
F00001E0
F00001E0
F00001E0
F00001E0
F00001E0
FFFFFFE0
FFFFFFE0
FFFFFFE0
FFFFFFE0
F00001E0
F00001E0
F00001E0
F00001E0
F00001E0
F00001E0
F00001E0
F00001E0
F00001E0
F00001E0
F00001E0
F00001E0
F00001E0
F00001E0
F00001E0
F00001E0
F00001E0
F00001E0
F00001E0
F00001E0
F00001E0
F00001E0
F00001E0
F00001E0
F00001E0
F00001E0
F00001E0
F00001E0
F00001E0
F00001E0
F00001E0
F00001E0
F00001E0
F00001E0
F00001E0
F00001E0
F00001E0
F00001E0
F00001E0
ENDCHAR
STARTCHAR 00C5
ENCODING 197
SWIDTH 345 0
DWIDTH 39 0
BBX 27 90 6 0
BITMAP
001F0000
007F8000
00FFC000
01FFE000
01F1F000
03C0F800
07C07C00
0F803E00
0F003E00
0F001E00
0F001E00
0F001E00
0F001E00
0F803E00
0F807E00
07C07C00
03E1F800
03FFF800
01FFF000
07FFFC00
0FFFFE00
1FE07F00
3F001F80
7E0007C0
F80003E0
F00001E0
F00001E0
F00001E0
F00001E0
F00001E0
F00001E0
F00001E0
F00001E0
F00001E0
F00001E0
F00001E0
F00001E0
F00001E0
F00001E0
F00001E0
F00001E0
F00001E0
F00001E0
F00001E0
F00001E0
F00001E0
F00001E0
FFFFFFE0
FFFFFFE0
FFFFFFE0
FFFFFFE0
F00001E0
F00001E0
F00001E0
F00001E0
F00001E0
F00001E0
F00001E0
F00001E0
F00001E0
F00001E0
F00001E0
F00001E0
F00001E0
F00001E0
F00001E0
F00001E0
F00001E0
F00001E0
F00001E0
F00001E0
F00001E0
F00001E0
F00001E0
F00001E0
F00001E0
F00001E0
F00001E0
F00001E0
F00001E0
F00001E0
F00001E0
F00001E0
F00001E0
F00001E0
F00001E0
F00001E0
F00001E0
F00001E0
F00001E0
ENDCHAR
STARTCHAR 00C6
ENCODING 198
SWIDTH 548 0
DWIDTH 62 0
BBX 50 73 6 0
BITMAP
003F80007F0000
01FFE001FFE000
07FFF807FFF800
0FFFFC0FFFFC00
1FE07F1FC0FE00
3F001FBE003F00
7E000FFC000F80
FC0003F80007C0
F80001F0000200
F00001E0000000
F00001E0000000
F00001E0000000
F00001E0000000
F00001E0000000
F00001E0000000
F00001E0000000
F00001E0000000
F00001E0000000
F00001E0000000
F00001E0000000
F00001E0000000
F00001E0000000
F00001E0000000
F00001E0000000
F00001E0000000
F00001E0000000
F00001E0000000
F00001E0000000
F00001E0000000
F00001E0000000
F00001E0000000
FFFFFFFFFFE000
FFFFFFFFFFE000
FFFFFFFFFFE000
FFFFFFFFFFE000
F00001E0000000
F00001E0000000
F00001E0000000
F00001E0000000
F00001E0000000
F00001E0000000
F00001E0000000
F00001E0000000
F00001E0000000
F00001E0000000
F00001E0000000
F00001E0000000
F00001E0000000
F00001E0000000
F00001E0000000
F00001E0000000
F00001E0000000
F00001E0000000
F00001E0000000
F00001E0000000
F00001E0000000
F00001E0000000
F00001E0000000
F00001E0000000
F00001E0000000
F00001E0000000
F00001E0000000
F00001E0000000
F00001E0000000
F00001E0000300
F00001F00007C0
F00000FC000F80
F000007E003F00
F000003FC0FE00
F000001FFFFC00
F0000007FFF800
F0000003FFE000
F00000007F0000
ENDCHAR
STARTCHAR 00C7
ENCODING 199
SWIDTH 345 0
DWIDTH 39 0
BBX 27 93 6 -20
BITMAP
003F8000
01FFF000
03FFFC00
0FFFFE00
1FE07F00
3F001F80
7E0007C0
FC0003E0
F8000100
F0000000
F0000000
F0000000
F0000000
F0000000
F0000000
F0000000
F0000000
F0000000
F0000000
F0000000
F0000000
F0000000
F0000000
F0000000
F0000000
F0000000
F0000000
F0000000
F0000000
F0000000
F0000000
F0000000
F0000000
F0000000
F0000000
F0000000
F0000000
F0000000
F0000000
F0000000
F0000000
F0000000
F0000000
F0000000
F0000000
F0000000
F0000000
F0000000
F0000000
F0000000
F0000000
F0000000
F0000000
F0000000
F0000000
F0000000
F0000000
F0000000
F0000000
F0000000
F0000000
F0000000
F0000000
F0000000
F8000180
FC0003E0
7E0007C0
3F001F80
1FE07F00
0FFFFE00
03FFFC00
01FFF000
003F8000
003C0000
003F0000
003FC000
003FE000
0007F000
0001F800
00007C00
00003E00
00001E00
00001E00
00001E00
00001E00
00003E00
00007C00
0001FC00
0007F000
003FE000
003FC000
003F0000
003C0000
ENDCHAR
STARTCHAR 00C8
ENCODING 200
SWIDTH 345 0
DWIDTH 39 0
BBX 27 90 6 0
BITMAP
01E00000
00F00000
00F80000
00780000
003C0000
001E0000
000F0000
00078000
0003C000
0001E000
0000F000
00007800
00000000
00000000
00000000
00000000
00000000
003F8000
01FFF000
07FFFC00
0FFFFE00
1FE07F00
3F001F80
7E0007C0
F80003E0
F0000000
F0000000
F0000000
F0000000
F0000000
F0000000
F0000000
F0000000
F0000000
F0000000
F0000000
F0000000
F0000000
F0000000
F0000000
F0000000
F0000000
F0000000
F0000000
F0000000
F0000000
F0000000
FFFFE000
FFFFE000
FFFFE000
FFFFE000
F0000000
F0000000
F0000000
F0000000
F0000000
F0000000
F0000000
F0000000
F0000000
F0000000
F0000000
F0000000
F0000000
F0000000
F0000000
F0000000
F0000000
F0000000
F0000000
F0000000
F0000000
F0000000
F0000000
F0000000
F0000000
F0000000
F0000000
F0000000
F0000000
F0000000
F8000180
FC0003E0
7E0007C0
3F001F80
1FE07F00
0FFFFE00
03FFF800
01FFF000
003F8000
ENDCHAR
STARTCHAR 00C9
ENCODING 201
SWIDTH 345 0
DWIDTH 39 0
BBX 27 90 6 0
BITMAP
00007800
0000F000
0001E000
0003C000
00078000
000F0000
001E0000
003C0000
00780000
00F00000
01F00000
01E00000
00000000
00000000
00000000
00000000
00000000
003F8000
01FFF000
07FFFC00
0FFFFE00
1FE07F00
3F001F80
7E0007C0
F80003E0
F0000000
F0000000
F0000000
F0000000
F0000000
F0000000
F0000000
F0000000
F0000000
F0000000
F0000000
F0000000
F0000000
F0000000
F0000000
F0000000
F0000000
F0000000
F0000000
F0000000
F0000000
F0000000
FFFFE000
FFFFE000
FFFFE000
FFFFE000
F0000000
F0000000
F0000000
F0000000
F0000000
F0000000
F0000000
F0000000
F0000000
F0000000
F0000000
F0000000
F0000000
F0000000
F0000000
F0000000
F0000000
F0000000
F0000000
F0000000
F0000000
F0000000
F0000000
F0000000
F0000000
F0000000
F0000000
F0000000
F0000000
F0000000
F8000180
FC0003E0
7E0007C0
3F001F80
1FE07F00
0FFFFE00
03FFF800
01FFF000
003F8000
ENDCHAR
STARTCHAR 00CA
ENCODING 202
SWIDTH 345 0
DWIDTH 39 0
BBX 27 90 6 0
BITMAP
001F0000
001F8000
003F8000
007FC000
007BC000
00F1E000
01E1F000
01E0F000
03C07800
03807C00
07803C00
0F001E00
00000000
00000000
00000000
00000000
00000000
003F8000
01FFF000
07FFFC00
0FFFFE00
1FE07F00
3F001F80
7E0007C0
F80003E0
F0000000
F0000000
F0000000
F0000000
F0000000
F0000000
F0000000
F0000000
F0000000
F0000000
F0000000
F0000000
F0000000
F0000000
F0000000
F0000000
F0000000
F0000000
F0000000
F0000000
F0000000
F0000000
FFFFE000
FFFFE000
FFFFE000
FFFFE000
F0000000
F0000000
F0000000
F0000000
F0000000
F0000000
F0000000
F0000000
F0000000
F0000000
F0000000
F0000000
F0000000
F0000000
F0000000
F0000000
F0000000
F0000000
F0000000
F0000000
F0000000
F0000000
F0000000
F0000000
F0000000
F0000000
F0000000
F0000000
F0000000
F0000000
F8000180
FC0003E0
7E0007C0
3F001F80
1FE07F00
0FFFFE00
03FFF800
01FFF000
003F8000
ENDCHAR
STARTCHAR 00CB
ENCODING 203
SWIDTH 345 0
DWIDTH 39 0
BBX 27 87 6 0
BITMAP
03C07800
03C07800
03C07800
03C07800
03C07800
03C07800
03C07800
03C07800
00000000
00000000
00000000
00000000
00000000
00000000
003F8000
01FFF000
07FFFC00
0FFFFE00
1FE07F00
3F001F80
7E0007C0
F80003E0
F0000000
F0000000
F0000000
F0000000
F0000000
F0000000
F0000000
F0000000
F0000000
F0000000
F0000000
F0000000
F0000000
F0000000
F0000000
F0000000
F0000000
F0000000
F0000000
F0000000
F0000000
F0000000
FFFFE000
FFFFE000
FFFFE000
FFFFE000
F0000000
F0000000
F0000000
F0000000
F0000000
F0000000
F0000000
F0000000
F0000000
F0000000
F0000000
F0000000
F0000000
F0000000
F0000000
F0000000
F0000000
F0000000
F0000000
F0000000
F0000000
F0000000
F0000000
F0000000
F0000000
F0000000
F0000000
F0000000
F0000000
F0000000
F8000180
FC0003E0
7E0007C0
3F001F80
1FE07F00
0FFFFE00
03FFF800
01FFF000
003F8000
ENDCHAR
STARTCHAR 00CC
ENCODING 204
SWIDTH 238 0
DWIDTH 27 0
BBX 15 90 6 0
BITMAP
7800
F800
7C00
3E00
1F00
0F80
07C0
07E0
03F0
01F8
00FC
007E
0000
0000
0000
0000
0000
0780
0780
0780
0780
0780
0780
0780
0780
0780
0780
0780
0780
0780
0780
0780
0780
0780
0780
0780
0780
0780
0780
0780
0780
0780
0780
0780
0780
0780
0780
0780
0780
0780
0780
0780
0780
0780
0780
0780
0780
0780
0780
0780
0780
0780
0780
0780
0780
0780
0780
0780
0780
0780
0780
0780
0780
0780
0780
0780
0780
0780
0780
0780
0780
0780
0780
0780
0780
0780
0780
0780
0780
0780
ENDCHAR
STARTCHAR 00CD
ENCODING 205
SWIDTH 238 0
DWIDTH 27 0
BBX 14 90 6 0
BITMAP
003C
007C
0078
00F0
01E0
03C0
0780
0F00
1E00
3C00
7800
F000
0000
0000
0000
0000
0000
0780
0780
0780
0780
0780
0780
0780
0780
0780
0780
0780
0780
0780
0780
0780
0780
0780
0780
0780
0780
0780
0780
0780
0780
0780
0780
0780
0780
0780
0780
0780
0780
0780
0780
0780
0780
0780
0780
0780
0780
0780
0780
0780
0780
0780
0780
0780
0780
0780
0780
0780
0780
0780
0780
0780
0780
0780
0780
0780
0780
0780
0780
0780
0780
0780
0780
0780
0780
0780
0780
0780
0780
0780
ENDCHAR
STARTCHAR 00CE
ENCODING 206
SWIDTH 274 0
DWIDTH 31 0
BBX 19 90 6 0
BITMAP
00F000
01F800
03FC00
03FC00
07BE00
0F1E00
0F0F00
1E0F80
3C0780
3C03C0
7801C0
F001E0
000000
000000
000000
000000
000000
00F000
00F000
00F000
00F000
00F000
00F000
00F000
00F000
00F000
00F000
00F000
00F000
00F000
00F000
00F000
00F000
00F000
00F000
00F000
00F000
00F000
00F000
00F000
00F000
00F000
00F000
00F000
00F000
00F000
00F000
00F000
00F000
00F000
00F000
00F000
00F000
00F000
00F000
00F000
00F000
00F000
00F000
00F000
00F000
00F000
00F000
00F000
00F000
00F000
00F000
00F000
00F000
00F000
00F000
00F000
00F000
00F000
00F000
00F000
00F000
00F000
00F000
00F000
00F000
00F000
00F000
00F000
00F000
00F000
00F000
00F000
00F000
00F000
ENDCHAR
STARTCHAR 00CF
ENCODING 207
SWIDTH 238 0
DWIDTH 27 0
BBX 15 87 6 0
BITMAP
F01E
F01E
F01E
F01E
F01E
F01E
F01E
F01E
0000
0000
0000
0000
0000
0000
03C0
03C0
03C0
03C0
03C0
03C0
03C0
03C0
03C0
03C0
03C0
03C0
03C0
03C0
03C0
03C0
03C0
03C0
03C0
03C0
03C0
03C0
03C0
03C0
03C0
03C0
03C0
03C0
03C0
03C0
03C0
03C0
03C0
03C0
03C0
03C0
03C0
03C0
03C0
03C0
03C0
03C0
03C0
03C0
03C0
03C0
03C0
03C0
03C0
03C0
03C0
03C0
03C0
03C0
03C0
03C0
03C0
03C0
03C0
03C0
03C0
03C0
03C0
03C0
03C0
03C0
03C0
03C0
03C0
03C0
03C0
03C0
03C0
ENDCHAR
STARTCHAR 00D0
ENCODING 208
SWIDTH 380 0
DWIDTH 43 0
BBX 31 73 6 0
BITMAP
0FFFF800
0FFFFF00
0FFFFFC0
0FFFFFE0
0F0007F0
0F0001F8
0F0000FC
0F00003E
0F00001E
0F00001E
0F00001E
0F00001E
0F00001E
0F00001E
0F00001E
0F00001E
0F00001E
0F00001E
0F00001E
0F00001E
0F00001E
0F00001E
0F00001E
0F00001E
0F00001E
0F00001E
0F00001E
0F00001E
0F00001E
0F00001E
0F00001E
FFFFE01E
FFFFE01E
FFFFE01E
FFFFE01E
0F00001E
0F00001E
0F00001E
0F00001E
0F00001E
0F00001E
0F00001E
0F00001E
0F00001E
0F00001E
0F00001E
0F00001E
0F00001E
0F00001E
0F00001E
0F00001E
0F00001E
0F00001E
0F00001E
0F00001E
0F00001E
0F00001E
0F00001E
0F00001E
0F00001E
0F00001E
0F00001E
0F00001E
0F00001E
0F00001E
0F00003E
0F0000FC
0F0001F8
0F0007F0
0FFFFFE0
0FFFFFC0
0FFFFF00
0FFFF800
ENDCHAR
STARTCHAR 00D1
ENCODING 209
SWIDTH 345 0
DWIDTH 39 0
BBX 27 86 6 0
BITMAP
03F00100
0FFF0F80
3FFFFFE0
7FFFFF80
1E07FE00
0001F800
00000000
00000000
00000000
00000000
00000000
00000000
00000000
003F8000
01FFF000
07FFFC00
0FFFFE00
1FE07F00
3F001F80
7E000FC0
FC0003E0
F80001E0
F00001E0
F00001E0
F00001E0
F00001E0
F00001E0
F00001E0
F00001E0
F00001E0
F00001E0
F00001E0
F00001E0
F00001E0
F00001E0
F00001E0
F00001E0
F00001E0
F00001E0
F00001E0
F00001E0
F00001E0
F00001E0
F00001E0
F00001E0
F00001E0
F00001E0
F00001E0
F00001E0
F00001E0
F00001E0
F00001E0
F00001E0
F00001E0
F00001E0
F00001E0
F00001E0
F00001E0
F00001E0
F00001E0
F00001E0
F00001E0
F00001E0
F00001E0
F00001E0
F00001E0
F00001E0
F00001E0
F00001E0
F00001E0
F00001E0
F00001E0
F00001E0
F00001E0
F00001E0
F00001E0
F00001E0
F00001E0
F00001E0
F00001E0
F00001E0
F00001E0
F00001E0
F00001E0
F00001E0
F00001E0
ENDCHAR
STARTCHAR 00D2
ENCODING 210
SWIDTH 345 0
DWIDTH 39 0
BBX 27 90 6 0
BITMAP
01E00000
00F00000
00F80000
00780000
003C0000
001E0000
000F0000
00078000
0003C000
0001E000
0000F000
00007800
00000000
00000000
00000000
00000000
00000000
003F8000
01FFF000
07FFFC00
0FFFFE00
1FE07F00
3F001F80
7E000FC0
FC0003E0
F80001E0
F00001E0
F00001E0
F00001E0
F00001E0
F00001E0
F00001E0
F00001E0
F00001E0
F00001E0
F00001E0
F00001E0
F00001E0
F00001E0
F00001E0
F00001E0
F00001E0
F00001E0
F00001E0
F00001E0
F00001E0
F00001E0
F00001E0
F00001E0
F00001E0
F00001E0
F00001E0
F00001E0
F00001E0
F00001E0
F00001E0
F00001E0
F00001E0
F00001E0
F00001E0
F00001E0
F00001E0
F00001E0
F00001E0
F00001E0
F00001E0
F00001E0
F00001E0
F00001E0
F00001E0
F00001E0
F00001E0
F00001E0
F00001E0
F00001E0
F00001E0
F00001E0
F00001E0
F00001E0
F00001E0
F00001E0
F80001E0
FC0003E0
7E000FC0
3F001F80
1FE07F00
0FFFFE00
03FFFC00
01FFF000
003F8000
ENDCHAR
STARTCHAR 00D3
ENCODING 211
SWIDTH 345 0
DWIDTH 39 0
BBX 27 90 6 0
BITMAP
00007800
0000F000
0001E000
0003C000
00078000
000F0000
001E0000
003C0000
00780000
00F00000
01F00000
01E00000
00000000
00000000
00000000
00000000
00000000
003F8000
01FFF000
07FFFC00
0FFFFE00
1FE07F00
3F001F80
7E000FC0
FC0003E0
F80001E0
F00001E0
F00001E0
F00001E0
F00001E0
F00001E0
F00001E0
F00001E0
F00001E0
F00001E0
F00001E0
F00001E0
F00001E0
F00001E0
F00001E0
F00001E0
F00001E0
F00001E0
F00001E0
F00001E0
F00001E0
F00001E0
F00001E0
F00001E0
F00001E0
F00001E0
F00001E0
F00001E0
F00001E0
F00001E0
F00001E0
F00001E0
F00001E0
F00001E0
F00001E0
F00001E0
F00001E0
F00001E0
F00001E0
F00001E0
F00001E0
F00001E0
F00001E0
F00001E0
F00001E0
F00001E0
F00001E0
F00001E0
F00001E0
F00001E0
F00001E0
F00001E0
F00001E0
F00001E0
F00001E0
F00001E0
F80001E0
FC0003E0
7E000FC0
3F001F80
1FE07F00
0FFFFE00
03FFFC00
01FFF000
003F8000
ENDCHAR
STARTCHAR 00D4
ENCODING 212
SWIDTH 345 0
DWIDTH 39 0
BBX 27 90 6 0
BITMAP
001F0000
001F0000
003F8000
007FC000
007BC000
00F1E000
01F0F000
01E0F000
03C07800
03803C00
07803C00
0F001E00
00000000
00000000
00000000
00000000
00000000
003F8000
01FFF000
07FFFC00
0FFFFE00
1FE07F00
3F001F80
7E0007C0
FC0003E0
F80001E0
F00001E0
F00001E0
F00001E0
F00001E0
F00001E0
F00001E0
F00001E0
F00001E0
F00001E0
F00001E0
F00001E0
F00001E0
F00001E0
F00001E0
F00001E0
F00001E0
F00001E0
F00001E0
F00001E0
F00001E0
F00001E0
F00001E0
F00001E0
F00001E0
F00001E0
F00001E0
F00001E0
F00001E0
F00001E0
F00001E0
F00001E0
F00001E0
F00001E0
F00001E0
F00001E0
F00001E0
F00001E0
F00001E0
F00001E0
F00001E0
F00001E0
F00001E0
F00001E0
F00001E0
F00001E0
F00001E0
F00001E0
F00001E0
F00001E0
F00001E0
F00001E0
F00001E0
F00001E0
F00001E0
F00001E0
F80001E0
FC0003E0
7E0007C0
3F001F80
1FE07F00
0FFFFE00
03FFFC00
01FFF000
003F8000
ENDCHAR
STARTCHAR 00D5
ENCODING 213
SWIDTH 345 0
DWIDTH 39 0
BBX 27 86 6 0
BITMAP
03F00100
0FFF0F80
3FFFFFE0
7FFFFF80
1E07FE00
0001F800
00000000
00000000
00000000
00000000
00000000
00000000
00000000
003F8000
01FFF000
07FFFC00
0FFFFE00
1FE07F00
3F001F80
7E000FC0
FC0003E0
F80001E0
F00001E0
F00001E0
F00001E0
F00001E0
F00001E0
F00001E0
F00001E0
F00001E0
F00001E0
F00001E0
F00001E0
F00001E0
F00001E0
F00001E0
F00001E0
F00001E0
F00001E0
F00001E0
F00001E0
F00001E0
F00001E0
F00001E0
F00001E0
F00001E0
F00001E0
F00001E0
F00001E0
F00001E0
F00001E0
F00001E0
F00001E0
F00001E0
F00001E0
F00001E0
F00001E0
F00001E0
F00001E0
F00001E0
F00001E0
F00001E0
F00001E0
F00001E0
F00001E0
F00001E0
F00001E0
F00001E0
F00001E0
F00001E0
F00001E0
F00001E0
F00001E0
F00001E0
F00001E0
F00001E0
F00001E0
F80001E0
FC0003E0
7E000FC0
3F001F80
1FE07F00
0FFFFE00
03FFFC00
01FFF000
003F8000
ENDCHAR
STARTCHAR 00D6
ENCODING 214
SWIDTH 345 0
DWIDTH 39 0
BBX 27 87 6 0
BITMAP
03C07800
03C07800
03C07800
03C07800
03C07800
03C07800
03C07800
03C07800
00000000
00000000
00000000
00000000
00000000
00000000
003F8000
01FFF000
07FFFC00
0FFFFE00
1FE07F00
3F001F80
7E000FC0
FC0003E0
F80001E0
F00001E0
F00001E0
F00001E0
F00001E0
F00001E0
F00001E0
F00001E0
F00001E0
F00001E0
F00001E0
F00001E0
F00001E0
F00001E0
F00001E0
F00001E0
F00001E0
F00001E0
F00001E0
F00001E0
F00001E0
F00001E0
F00001E0
F00001E0
F00001E0
F00001E0
F00001E0
F00001E0
F00001E0
F00001E0
F00001E0
F00001E0
F00001E0
F00001E0
F00001E0
F00001E0
F00001E0
F00001E0
F00001E0
F00001E0
F00001E0
F00001E0
F00001E0
F00001E0
F00001E0
F00001E0
F00001E0
F00001E0
F00001E0
F00001E0
F00001E0
F00001E0
F00001E0
F00001E0
F00001E0
F00001E0
F80001E0
FC0003E0
7E000FC0
3F001F80
1FE07F00
0FFFFE00
03FFFC00
01FFF000
003F8000
ENDCHAR
STARTCHAR 00D7
ENCODING 215
SWIDTH 345 0
DWIDTH 39 0
BBX 27 26 6 20
BITMAP
30000080
780001E0
FC0003E0
FE0007C0
7F000F80
3F801F00
1FC03E00
0FE07C00
07F0F800
01F9F000
00FFE000
007FC000
003F8000
001F8000
003FC000
007FE000
00F9F000
01F0F800
03E07C00
07C03E00
0F000F00
1E000780
3C0003C0
780001E0
700000E0
20000040
ENDCHAR
STARTCHAR 00D8
ENCODING 216
SWIDTH 345 0
DWIDTH 39 0
BBX 27 82 6 -4
BITMAP
000001E0
000003E0
000003E0
000003C0
003F83C0
01FFF7C0
07FFFF80
0FFFFF80
1FC07F80
3F001F80
7E000FC0
FC000FE0
F8001FE0
F0001FE0
F0001FE0
F0001FE0
F0003DE0
F0003DE0
F0003DE0
F0007DE0
F00079E0
F00079E0
F00079E0
F000F1E0
F000F1E0
F000F1E0
F001F1E0
F001E1E0
F001E1E0
F001E1E0
F003E1E0
F003C1E0
F003C1E0
F007C1E0
F00781E0
F00781E0
F00781E0
F00F81E0
F00F01E0
F00F01E0
F00F01E0
F01E01E0
F01E01E0
F01E01E0
F03E01E0
F03C01E0
F03C01E0
F03C01E0
F07801E0
F07801E0
F07801E0
F0F801E0
F0F001E0
F0F001E0
F0F001E0
F1F001E0
F1E001E0
F1E001E0
F1E001E0
F3C001E0
F3C001E0
F3C001E0
F7C001E0
F78001E0
F78001E0
F78001E0
FF0001E0
FF0001E0
FF0001E0
FF0003E0
7E0007C0
3F001F80
1FE07F00
3FFFFE00
3FFFFC00
3CFFF000
7C3F8000
78000000
78000000
78000000
F8000000
F0000000
ENDCHAR
STARTCHAR 00D9
ENCODING 217
SWIDTH 345 0
DWIDTH 39 0
BBX 27 90 6 0
BITMAP
01E00000
00F00000
00F80000
00780000
003C0000
001E0000
000F0000
00078000
0003C000
0001E000
0000F000
00007800
00000000
00000000
00000000
00000000
00000000
F00001E0
F00001E0
F00001E0
F00001E0
F00001E0
F00001E0
F00001E0
F00001E0
F00001E0
F00001E0
F00001E0
F00001E0
F00001E0
F00001E0
F00001E0
F00001E0
F00001E0
F00001E0
F00001E0
F00001E0
F00001E0
F00001E0
F00001E0
F00001E0
F00001E0
F00001E0
F00001E0
F00001E0
F00001E0
F00001E0
F00001E0
F00001E0
F00001E0
F00001E0
F00001E0
F00001E0
F00001E0
F00001E0
F00001E0
F00001E0
F00001E0
F00001E0
F00001E0
F00001E0
F00001E0
F00001E0
F00001E0
F00001E0
F00001E0
F00001E0
F00001E0
F00001E0
F00001E0
F00001E0
F00001E0
F00001E0
F00001E0
F00001E0
F00001E0
F00001E0
F00001E0
F00001E0
F00001E0
F00001E0
F80001E0
FC0003E0
7E000FC0
3F001F80
1FE07F00
0FFFFE00
03FFFC00
01FFF000
003F8000
ENDCHAR
STARTCHAR 00DA
ENCODING 218
SWIDTH 345 0
DWIDTH 39 0
BBX 27 90 6 0
BITMAP
00007800
0000F000
0001E000
0003C000
00078000
000F0000
001E0000
003C0000
00780000
00F00000
01F00000
01E00000
00000000
00000000
00000000
00000000
00000000
F00001E0
F00001E0
F00001E0
F00001E0
F00001E0
F00001E0
F00001E0
F00001E0
F00001E0
F00001E0
F00001E0
F00001E0
F00001E0
F00001E0
F00001E0
F00001E0
F00001E0
F00001E0
F00001E0
F00001E0
F00001E0
F00001E0
F00001E0
F00001E0
F00001E0
F00001E0
F00001E0
F00001E0
F00001E0
F00001E0
F00001E0
F00001E0
F00001E0
F00001E0
F00001E0
F00001E0
F00001E0
F00001E0
F00001E0
F00001E0
F00001E0
F00001E0
F00001E0
F00001E0
F00001E0
F00001E0
F00001E0
F00001E0
F00001E0
F00001E0
F00001E0
F00001E0
F00001E0
F00001E0
F00001E0
F00001E0
F00001E0
F00001E0
F00001E0
F00001E0
F00001E0
F00001E0
F00001E0
F00001E0
F80001E0
FC0003E0
7E000FC0
3F001F80
1FE07F00
0FFFFE00
03FFFC00
01FFF000
003F8000
ENDCHAR
STARTCHAR 00DB
ENCODING 219
SWIDTH 345 0
DWIDTH 39 0
BBX 27 90 6 0
BITMAP
001F0000
001F0000
003F8000
007FC000
007BC000
00F1E000
01F0F000
01E0F000
03C07800
03803C00
07803C00
0F001E00
00000000
00000000
00000000
00000000
00000000
F00001E0
F00001E0
F00001E0
F00001E0
F00001E0
F00001E0
F00001E0
F00001E0
F00001E0
F00001E0
F00001E0
F00001E0
F00001E0
F00001E0
F00001E0
F00001E0
F00001E0
F00001E0
F00001E0
F00001E0
F00001E0
F00001E0
F00001E0
F00001E0
F00001E0
F00001E0
F00001E0
F00001E0
F00001E0
F00001E0
F00001E0
F00001E0
F00001E0
F00001E0
F00001E0
F00001E0
F00001E0
F00001E0
F00001E0
F00001E0
F00001E0
F00001E0
F00001E0
F00001E0
F00001E0
F00001E0
F00001E0
F00001E0
F00001E0
F00001E0
F00001E0
F00001E0
F00001E0
F00001E0
F00001E0
F00001E0
F00001E0
F00001E0
F00001E0
F00001E0
F00001E0
F00001E0
F00001E0
F00001E0
F80001E0
FC0003E0
7E0007C0
3F001F80
1FE07F00
0FFFFE00
03FFFC00
01FFF000
003F8000
ENDCHAR
STARTCHAR 00DC
ENCODING 220
SWIDTH 345 0
DWIDTH 39 0
BBX 27 87 6 0
BITMAP
03C07800
03C07800
03C07800
03C07800
03C07800
03C07800
03C07800
03C07800
00000000
00000000
00000000
00000000
00000000
00000000
F00001E0
F00001E0
F00001E0
F00001E0
F00001E0
F00001E0
F00001E0
F00001E0
F00001E0
F00001E0
F00001E0
F00001E0
F00001E0
F00001E0
F00001E0
F00001E0
F00001E0
F00001E0
F00001E0
F00001E0
F00001E0
F00001E0
F00001E0
F00001E0
F00001E0
F00001E0
F00001E0
F00001E0
F00001E0
F00001E0
F00001E0
F00001E0
F00001E0
F00001E0
F00001E0
F00001E0
F00001E0
F00001E0
F00001E0
F00001E0
F00001E0
F00001E0
F00001E0
F00001E0
F00001E0
F00001E0
F00001E0
F00001E0
F00001E0
F00001E0
F00001E0
F00001E0
F00001E0
F00001E0
F00001E0
F00001E0
F00001E0
F00001E0
F00001E0
F00001E0
F00001E0
F00001E0
F00001E0
F00001E0
F80001E0
FC0003E0
7E000FC0
3F001F80
1FE07F00
0FFFFE00
03FFFC00
01FFF000
003F8000
ENDCHAR
STARTCHAR 00DD
ENCODING 221
SWIDTH 345 0
DWIDTH 39 0
BBX 27 90 6 0
BITMAP
00007800
0000F000
0001E000
0003C000
00078000
000F0000
001E0000
003C0000
00780000
00F00000
01F00000
01E00000
00000000
00000000
00000000
00000000
00000000
F00001E0
F00001E0
F00001E0
F00001E0
F00001E0
F00001E0
F00001E0
F00001E0
F00001E0
F00001E0
F00001E0
F00001E0
F00001E0
F00001E0
F00001E0
F00001E0
F00001E0
F00001E0
F00001E0
F00001E0
F00001E0
F00001E0
F00001E0
F00001E0
F00001E0
F00001E0
F80003E0
7C0007C0
3E000FC0
1F803F80
0FFBFF00
07FFFC00
01FFF800
007FE000
000F0000
000F0000
000F0000
000F0000
000F0000
000F0000
000F0000
000F0000
000F0000
000F0000
000F0000
000F0000
000F0000
000F0000
000F0000
000F0000
000F0000
000F0000
000F0000
000F0000
000F0000
000F0000
000F0000
000F0000
000F0000
000F0000
000F0000
000F0000
000F0000
000F0000
000F0000
000F0000
000F0000
000F0000
000F0000
000F0000
000F0000
000F0000
000F0000
ENDCHAR
STARTCHAR 00DE
ENCODING 222
SWIDTH 345 0
DWIDTH 39 0
BBX 27 73 6 0
BITMAP
F0000000
F0000000
F0000000
F0000000
F0000000
F0000000
F0000000
F0000000
F0000000
F0000000
F0000000
F0000000
F0000000
F0000000
F0000000
F0000000
F0000000
F0000000
FFFF8000
FFFFF000
FFFFFC00
FFFFFE00
F0007F00
F0001F80
F0000FC0
F00003E0
F00001E0
F00001E0
F00001E0
F00001E0
F00001E0
F00001E0
F00001E0
F00001E0
F00001E0
F00001E0
F00001E0
F00001E0
F00001E0
F00001E0
F00001E0
F00001E0
F00001E0
F00001E0
F00001E0
F00001E0
F00001E0
F00001E0
F00003E0
F0000FE0
F0001FC0
F0007F80
FFFFFE00
FFFFFC00
FFFFF000
FFFFC000
F0000000
F0000000
F0000000
F0000000
F0000000
F0000000
F0000000
F0000000
F0000000
F0000000
F0000000
F0000000
F0000000
F0000000
F0000000
F0000000
F0000000
ENDCHAR
STARTCHAR 00DF
ENCODING 223
SWIDTH 371 0
DWIDTH 42 0
BBX 30 82 6 -9
BITMAP
003F8000
01FFF000
03FFFC00
0FFFFE00
1FE07F00
3F001F80
7E000FC0
FC0003E0
F80001E0
F00001E0
F00001E0
F00001E0
F00001E0
F00001E0
F00001E0
F00001E0
F00001E0
F00001E0
F00001E0
F00001E0
F00001E0
F00001E0
F00001E0
F00003E0
F0000FC0
F0001F80
F0007F00
F00FFE00
F01FFC00
F03FF000
F07FC000
F07C0000
F0780000
F0780000
F07C0000
F03FF000
F03FFE00
F01FFF80
F007FFC0
F0000FE0
F00003F0
F00001F8
F00000FC
F000003C
F000003C
F000003C
F000003C
F000003C
F000003C
F000003C
F000003C
F000003C
F000003C
F000003C
F000003C
F000003C
F000003C
F000003C
F000003C
F000003C
F000003C
F000003C
F000003C
F000003C
F000003C
F000003C
F000003C
F000003C
F000003C
F000003C
F000003C
F000003C
F000003C
0000003C
0000007C
000001F8
000003F0
00001FE0
0000FFC0
0000FF00
0000FE00
0000F000
ENDCHAR
STARTCHAR 00E0
ENCODING 224
SWIDTH 345 0
DWIDTH 39 0
BBX 27 68 6 0
BITMAP
01E00000
00F00000
00F00000
00780000
003C0000
001E0000
000F0000
00078000
0003C000
0001C000
0001E000
0000F000
00000000
00000000
00000000
00000000
00000000
00000000
003F8000
01FFF000
03FFFC00
0FFFFE00
1FC07F00
3F001F80
7E000FC0
F80003E0
100001E0
000001E0
000001E0
000001E0
000001E0
000001E0
000001E0
000001E0
000001E0
000001E0
000001E0
003F81E0
01FFE1E0
03FFF9E0
0FFFFDE0
1FE07FE0
3F001FE0
7E000FE0
FC0003E0
F80001E0
F00001E0
F00001E0
F00001E0
F00001E0
F00001E0
F00001E0
F00001E0
F00001E0
F00001E0
F00001E0
F00001E0
F00001E0
F00001E0
F00001E0
F80003E0
7E0007E0
3F001FE0
1FC07FE0
0FFFFFE0
03FFF9E0
01FFE1E0
003F81E0
ENDCHAR
STARTCHAR 00E1
ENCODING 225
SWIDTH 345 0
DWIDTH 39 0
BBX 27 68 6 0
BITMAP
00007800
0000F000
0001E000
0003C000
00078000
000F0000
001E0000
001E0000
003C0000
00780000
00F00000
01E00000
00000000
00000000
00000000
00000000
00000000
00000000
003F8000
01FFF000
03FFFC00
0FFFFE00
1FC07F00
3F001F80
7E000FC0
F80003E0
100001E0
000001E0
000001E0
000001E0
000001E0
000001E0
000001E0
000001E0
000001E0
000001E0
000001E0
003F81E0
01FFE1E0
03FFF9E0
0FFFFDE0
1FE07FE0
3F001FE0
7E000FE0
FC0003E0
F80001E0
F00001E0
F00001E0
F00001E0
F00001E0
F00001E0
F00001E0
F00001E0
F00001E0
F00001E0
F00001E0
F00001E0
F00001E0
F00001E0
F00001E0
F80003E0
7E0007E0
3F001FE0
1FC07FE0
0FFFFFE0
03FFF9E0
01FFE1E0
003F81E0
ENDCHAR
STARTCHAR 00E2
ENCODING 226
SWIDTH 345 0
DWIDTH 39 0
BBX 27 68 6 0
BITMAP
001F0000
001F0000
003F8000
003FC000
007BC000
00F9E000
00F1E000
01E0F000
03E07800
03C07800
07803C00
07001C00
00001E00
00000000
00000000
00000000
00000000
00000000
003F8000
01FFF000
03FFFC00
0FFFFE00
1FC07F00
3F001F80
7E0007C0
F80003E0
100001E0
000001E0
000001E0
000001E0
000001E0
000001E0
000001E0
000001E0
000001E0
000001E0
000001E0
003F81E0
01FFE1E0
03FFF9E0
0FFFFDE0
1FE07FE0
3F001FE0
7E000FE0
FC0003E0
F80001E0
F00001E0
F00001E0
F00001E0
F00001E0
F00001E0
F00001E0
F00001E0
F00001E0
F00001E0
F00001E0
F00001E0
F00001E0
F00001E0
F00001E0
F80003E0
7E0007E0
3F001FE0
1FC07FE0
0FFFFFE0
03FFF9E0
01FFE1E0
003F81E0
ENDCHAR
STARTCHAR 00E3
ENCODING 227
SWIDTH 345 0
DWIDTH 39 0
BBX 27 64 6 0
BITMAP
01F00000
0FFC0380
1FFF8FC0
7FFFFFC0
3E1FFF00
1803FE00
0000F800
00000000
00000000
00000000
00000000
00000000
00000000
00000000
003F8000
01FFF000
03FFFC00
0FFFFE00
1FC07F00
3F001F80
7E000FC0
F80003E0
100001E0
000001E0
000001E0
000001E0
000001E0
000001E0
000001E0
000001E0
000001E0
000001E0
000001E0
003F81E0
01FFE1E0
03FFF9E0
0FFFFDE0
1FE07FE0
3F001FE0
7E000FE0
FC0003E0
F80001E0
F00001E0
F00001E0
F00001E0
F00001E0
F00001E0
F00001E0
F00001E0
F00001E0
F00001E0
F00001E0
F00001E0
F00001E0
F00001E0
F00001E0
F80003E0
7E0007E0
3F001FE0
1FC07FE0
0FFFFFE0
03FFF9E0
01FFE1E0
003F81E0
ENDCHAR
STARTCHAR 00E4
ENCODING 228
SWIDTH 345 0
DWIDTH 39 0
BBX 27 64 6 0
BITMAP
03C07800
03C07800
03C07800
03C07800
03C07800
03C07800
03C07800
03C07800
00000000
00000000
00000000
00000000
00000000
00000000
003F8000
01FFF000
03FFFC00
0FFFFE00
1FC07F00
3F001F80
7E000FC0
F80003E0
100001E0
000001E0
000001E0
000001E0
000001E0
000001E0
000001E0
000001E0
000001E0
000001E0
000001E0
003F81E0
01FFE1E0
03FFF9E0
0FFFFDE0
1FE07FE0
3F001FE0
7E000FE0
FC0003E0
F80001E0
F00001E0
F00001E0
F00001E0
F00001E0
F00001E0
F00001E0
F00001E0
F00001E0
F00001E0
F00001E0
F00001E0
F00001E0
F00001E0
F00001E0
F80003E0
7E0007E0
3F001FE0
1FC07FE0
0FFFFFE0
03FFF9E0
01FFE1E0
003F81E0
ENDCHAR
STARTCHAR 00E5
ENCODING 229
SWIDTH 345 0
DWIDTH 39 0
BBX 27 67 6 0
BITMAP
001F8000
00FFE000
01FFF000
03E0F800
07C07C00
0F803E00
0F001E00
0F001E00
0F001E00
07803E00
03C07800
01F1F000
00FFE000
003F8000
00000000
00000000
00000000
003F8000
01FFF000
03FFFC00
0FFFFE00
1FC07F00
3F001F80
7E000FC0
F80003E0
100001E0
000001E0
000001E0
000001E0
000001E0
000001E0
000001E0
000001E0
000001E0
000001E0
000001E0
003F81E0
01FFE1E0
03FFF9E0
0FFFFDE0
1FE07FE0
3F001FE0
7E000FE0
FC0003E0
F80001E0
F00001E0
F00001E0
F00001E0
F00001E0
F00001E0
F00001E0
F00001E0
F00001E0
F00001E0
F00001E0
F00001E0
F00001E0
F00001E0
F00001E0
F80003E0
7E0007E0
3F001FE0
1FC07FE0
0FFFFFE0
03FFF9E0
01FFE1E0
003F81E0
ENDCHAR
STARTCHAR 00E6
ENCODING 230
SWIDTH 548 0
DWIDTH 62 0
BBX 50 50 6 0
BITMAP
003F80007F0000
01FFF003FFE000
07FFF807FFF800
0FFFFE1FFFFC00
1FC07F3FC0FE00
3F001FFE003F00
7E000FFC001F80
F80003F80007C0
100001F00003C0
000001E00003C0
000001E00003C0
000001E00003C0
000001E00003C0
000001E00003C0
000001E00003C0
000001E00003C0
000001E00003C0
000001E00003C0
000001E00003C0
003F81E00003C0
01FFE1E00003C0
03FFF9E00003C0
0FFFFDF00003C0
1FC07FF80007C0
3F001FFC001F80
7E000FFE003F00
FC0003FFC0FE00
F80001EFFFFC00
F00001E7FFF000
F00001E1FFE000
F00001E07F0000
F00001E0000000
F00001E0000000
F00001E0000000
F00001E0000000
F00001E0000000
F00001E0000000
F00001E0000000
F00001E0000000
F00001E0000000
F00001E0000000
F80001E0000300
FC0003F00007C0
7E000FFC000F80
3F001FFE003F00
1FC07F3FC0FE00
0FFFFE1FFFFC00
03FFF807FFF800
01FFF001FFE000
003F80007F0000
ENDCHAR
STARTCHAR 00E7
ENCODING 231
SWIDTH 345 0
DWIDTH 39 0
BBX 27 70 6 -20
BITMAP
003F8000
01FFF000
03FFFC00
0FFFFE00
1FE07F00
3F001F80
7E0007C0
FC0003E0
F8000100
F0000000
F0000000
F0000000
F0000000
F0000000
F0000000
F0000000
F0000000
F0000000
F0000000
F0000000
F0000000
F0000000
F0000000
F0000000
F0000000
F0000000
F0000000
F0000000
F0000000
F0000000
F0000000
F0000000
F0000000
F0000000
F0000000
F0000000
F0000000
F0000000
F0000000
F0000000
F0000000
F8000180
FC0003E0
7E0007C0
3F001F80
1FE07F00
0FFFFE00
03FFFC00
01FFF000
003F8000
003C0000
003F0000
003FC000
003FE000
0007F000
0001F800
00007C00
00003E00
00001E00
00001E00
00001E00
00001E00
00003E00
00007C00
0001FC00
0007F000
003FE000
003FC000
003F0000
003C0000
ENDCHAR
STARTCHAR 00E8
ENCODING 232
SWIDTH 345 0
DWIDTH 39 0
BBX 27 68 6 0
BITMAP
01E00000
00F00000
00F00000
00780000
003C0000
001E0000
000F0000
00078000
0003C000
0001C000
0001E000
0000F000
00000000
00000000
00000000
00000000
00000000
00000000
003F8000
01FFF000
03FFFC00
0FFFFE00
1FE07F00
3F001F80
7E000FC0
FC0003E0
F80001E0
F00001E0
F00001E0
F00001E0
F00001E0
F00001E0
F00001E0
F00001E0
F00001E0
F00001E0
F00001E0
F00001E0
F00001E0
F00001E0
F80003E0
FC0007E0
FE000FC0
FF801F80
FFE0FF00
F7FFFE00
F3FFF800
F0FFF000
F03F8000
F0000000
F0000000
F0000000
F0000000
F0000000
F0000000
F0000000
F0000000
F0000000
F0000000
F8000180
FC0003E0
7E0007C0
3F001F80
1FC07F00
0FFFFE00
03FFFC00
01FFF000
003F8000
ENDCHAR
STARTCHAR 00E9
ENCODING 233
SWIDTH 345 0
DWIDTH 39 0
BBX 27 68 6 0
BITMAP
00007800
0000F000
0001E000
0003C000
00078000
000F0000
001E0000
001E0000
003C0000
00780000
00F00000
01E00000
00000000
00000000
00000000
00000000
00000000
00000000
003F8000
01FFF000
03FFFC00
0FFFFE00
1FE07F00
3F001F80
7E000FC0
FC0003E0
F80001E0
F00001E0
F00001E0
F00001E0
F00001E0
F00001E0
F00001E0
F00001E0
F00001E0
F00001E0
F00001E0
F00001E0
F00001E0
F00001E0
F80003E0
FC0007E0
FE000FC0
FF801F80
FFE0FF00
F7FFFE00
F3FFF800
F0FFF000
F03F8000
F0000000
F0000000
F0000000
F0000000
F0000000
F0000000
F0000000
F0000000
F0000000
F0000000
F8000180
FC0003E0
7E0007C0
3F001F80
1FC07F00
0FFFFE00
03FFFC00
01FFF000
003F8000
ENDCHAR
STARTCHAR 00EA
ENCODING 234
SWIDTH 345 0
DWIDTH 39 0
BBX 27 68 6 0
BITMAP
001F0000
001F0000
003F8000
003FC000
007BC000
00F9E000
00F1E000
01E0F000
03E07800
03C07800
07803C00
07001C00
00001E00
00000000
00000000
00000000
00000000
00000000
003F8000
01FFF000
03FFFC00
0FFFFE00
1FE07F00
3F001F80
7E0007C0
FC0003E0
F80001E0
F00001E0
F00001E0
F00001E0
F00001E0
F00001E0
F00001E0
F00001E0
F00001E0
F00001E0
F00001E0
F00001E0
F00001E0
F00001E0
F80001E0
FC0003E0
FE000FC0
FF801F80
FFE0FF00
F7FFFE00
F3FFF800
F0FFF000
F03F8000
F0000000
F0000000
F0000000
F0000000
F0000000
F0000000
F0000000
F0000000
F0000000
F0000000
F8000180
FC0003E0
7E0007C0
3F001F80
1FC07F00
0FFFFE00
03FFFC00
01FFF000
003F8000
ENDCHAR
STARTCHAR 00EB
ENCODING 235
SWIDTH 345 0
DWIDTH 39 0
BBX 27 64 6 0
BITMAP
03C07800
03C07800
03C07800
03C07800
03C07800
03C07800
03C07800
03C07800
00000000
00000000
00000000
00000000
00000000
00000000
003F8000
01FFF000
03FFFC00
0FFFFE00
1FE07F00
3F001F80
7E000FC0
FC0003E0
F80001E0
F00001E0
F00001E0
F00001E0
F00001E0
F00001E0
F00001E0
F00001E0
F00001E0
F00001E0
F00001E0
F00001E0
F00001E0
F00001E0
F80003E0
FC0007E0
FE000FC0
FF801F80
FFE0FF00
F7FFFE00
F3FFF800
F0FFF000
F03F8000
F0000000
F0000000
F0000000
F0000000
F0000000
F0000000
F0000000
F0000000
F0000000
F0000000
F8000180
FC0003E0
7E0007C0
3F001F80
1FC07F00
0FFFFE00
03FFFC00
01FFF000
003F8000
ENDCHAR
STARTCHAR 00EC
ENCODING 236
SWIDTH 238 0
DWIDTH 27 0
BBX 14 68 6 0
BITMAP
F800
F800
7C00
3E00
1F00
0F80
0FC0
07E0
03E0
01F0
00F8
007C
0038
0000
0000
0000
0000
0000
0780
0780
0780
0780
0780
0780
0780
0780
0780
0780
0780
0780
0780
0780
0780
0780
0780
0780
0780
0780
0780
0780
0780
0780
0780
0780
0780
0780
0780
0780
0780
0780
0780
0780
0780
0780
0780
0780
0780
0780
0780
0780
0780
0780
0780
0780
0780
0780
0780
0780
ENDCHAR
STARTCHAR 00ED
ENCODING 237
SWIDTH 238 0
DWIDTH 27 0
BBX 13 68 7 0
BITMAP
0078
0078
00F0
01E0
03C0
0780
0F00
1E00
3C00
3C00
7800
F000
0000
0000
0000
0000
0000
0000
0F00
0F00
0F00
0F00
0F00
0F00
0F00
0F00
0F00
0F00
0F00
0F00
0F00
0F00
0F00
0F00
0F00
0F00
0F00
0F00
0F00
0F00
0F00
0F00
0F00
0F00
0F00
0F00
0F00
0F00
0F00
0F00
0F00
0F00
0F00
0F00
0F00
0F00
0F00
0F00
0F00
0F00
0F00
0F00
0F00
0F00
0F00
0F00
0F00
0F00
ENDCHAR
STARTCHAR 00EE
ENCODING 238
SWIDTH 274 0
DWIDTH 31 0
BBX 18 68 7 0
BITMAP
01E000
03F000
07F800
07F800
0F7C00
0F3C00
1E3E00
3C1E00
3C0F00
780F80
F00780
F003C0
0003C0
000000
000000
000000
000000
000000
01E000
01E000
01E000
01E000
01E000
01E000
01E000
01E000
01E000
01E000
01E000
01E000
01E000
01E000
01E000
01E000
01E000
01E000
01E000
01E000
01E000
01E000
01E000
01E000
01E000
01E000
01E000
01E000
01E000
01E000
01E000
01E000
01E000
01E000
01E000
01E000
01E000
01E000
01E000
01E000
01E000
01E000
01E000
01E000
01E000
01E000
01E000
01E000
01E000
01E000
ENDCHAR
STARTCHAR 00EF
ENCODING 239
SWIDTH 238 0
DWIDTH 27 0
BBX 15 64 6 0
BITMAP
F01E
F01E
F01E
F01E
F01E
F01E
F01E
F01E
0000
0000
0000
0000
0000
0000
03C0
03C0
03C0
03C0
03C0
03C0
03C0
03C0
03C0
03C0
03C0
03C0
03C0
03C0
03C0
03C0
03C0
03C0
03C0
03C0
03C0
03C0
03C0
03C0
03C0
03C0
03C0
03C0
03C0
03C0
03C0
03C0
03C0
03C0
03C0
03C0
03C0
03C0
03C0
03C0
03C0
03C0
03C0
03C0
03C0
03C0
03C0
03C0
03C0
03C0
ENDCHAR
STARTCHAR 00F0
ENCODING 240
SWIDTH 380 0
DWIDTH 43 0
BBX 31 73 6 0
BITMAP
00038000
0003F000
0003FC00
0003FE00
00007F02
00001F8E
000007FE
000003FE
000003FE
00000FF8
00003FE0
0000FFE0
0003FFE0
001FF9E0
007FE1E0
00FF81E0
00FC01E0
00F001E0
00C001E0
000001E0
000001E0
000001E0
000001E0
003F81E0
01FFE1E0
07FFF9E0
0FFFFDE0
1FC03FE0
3F001FE0
7C0007E0
F80003E0
F00001E0
F00001E0
F00001E0
F00001E0
F00001E0
F00001E0
F00001E0
F00001E0
F00001E0
F00001E0
F00001E0
F00001E0
F00001E0
F00001E0
F00001E0
F00001E0
F00001E0
F00001E0
F00001E0
F00001E0
F00001E0
F00001E0
F00001E0
F00001E0
F00001E0
F00001E0
F00001E0
F00001E0
F00001E0
F00001E0
F00001E0
F00001E0
F00001E0
F80001E0
FC0003E0
7E000FC0
3F001F80
1FE07F00
0FFFFE00
03FFF800
01FFF000
003F8000
ENDCHAR
STARTCHAR 00F1
ENCODING 241
SWIDTH 345 0
DWIDTH 39 0
BBX 27 64 6 0
BITMAP
01F00000
0FFC0380
1FFF8FC0
7FFFFFC0
3E1FFF00
1803FE00
0000F800
00000000
00000000
00000000
00000000
00000000
00000000
00000000
F03F8000
F0FFF000
F3FFFC00
FFFFFE00
FFE07F00
FF001F80
FE000FC0
FC0003E0
F80001E0
F00001E0
F00001E0
F00001E0
F00001E0
F00001E0
F00001E0
F00001E0
F00001E0
F00001E0
F00001E0
F00001E0
F00001E0
F00001E0
F00001E0
F00001E0
F00001E0
F00001E0
F00001E0
F00001E0
F00001E0
F00001E0
F00001E0
F00001E0
F00001E0
F00001E0
F00001E0
F00001E0
F00001E0
F00001E0
F00001E0
F00001E0
F00001E0
F00001E0
F00001E0
F00001E0
F00001E0
F00001E0
F00001E0
F00001E0
F00001E0
F00001E0
ENDCHAR
STARTCHAR 00F2
ENCODING 242
SWIDTH 345 0
DWIDTH 39 0
BBX 27 68 6 0
BITMAP
01E00000
00F00000
00F00000
00780000
003C0000
001E0000
000F0000
00078000
0003C000
0001C000
0001E000
0000F000
00000000
00000000
00000000
00000000
00000000
00000000
003F8000
01FFF000
03FFFC00
0FFFFE00
1FE07F00
3F001F80
7E000FC0
FC0003E0
F80001E0
F00001E0
F00001E0
F00001E0
F00001E0
F00001E0
F00001E0
F00001E0
F00001E0
F00001E0
F00001E0
F00001E0
F00001E0
F00001E0
F00001E0
F00001E0
F00001E0
F00001E0
F00001E0
F00001E0
F00001E0
F00001E0
F00001E0
F00001E0
F00001E0
F00001E0
F00001E0
F00001E0
F00001E0
F00001E0
F00001E0
F00001E0
F00001E0
F80001E0
FC0003E0
7E000FC0
3F001F80
1FE07F00
0FFFFE00
03FFFC00
01FFF000
003F8000
ENDCHAR
STARTCHAR 00F3
ENCODING 243
SWIDTH 345 0
DWIDTH 39 0
BBX 27 68 6 0
BITMAP
00007800
0000F000
0001E000
0003C000
00078000
000F0000
001E0000
001E0000
003C0000
00780000
00F00000
01E00000
00000000
00000000
00000000
00000000
00000000
00000000
003F8000
01FFF000
03FFFC00
0FFFFE00
1FE07F00
3F001F80
7E000FC0
FC0003E0
F80001E0
F00001E0
F00001E0
F00001E0
F00001E0
F00001E0
F00001E0
F00001E0
F00001E0
F00001E0
F00001E0
F00001E0
F00001E0
F00001E0
F00001E0
F00001E0
F00001E0
F00001E0
F00001E0
F00001E0
F00001E0
F00001E0
F00001E0
F00001E0
F00001E0
F00001E0
F00001E0
F00001E0
F00001E0
F00001E0
F00001E0
F00001E0
F00001E0
F80001E0
FC0003E0
7E000FC0
3F001F80
1FE07F00
0FFFFE00
03FFFC00
01FFF000
003F8000
ENDCHAR
STARTCHAR 00F4
ENCODING 244
SWIDTH 345 0
DWIDTH 39 0
BBX 27 68 6 0
BITMAP
001F0000
001F0000
003F8000
003FC000
007BC000
00F9E000
00F1E000
01E0F000
03E07800
03C07800
07803C00
07001C00
00001E00
00000000
00000000
00000000
00000000
00000000
003F8000
01FFF000
03FFFC00
0FFFFE00
1FE07F00
3F001F80
7E0007C0
FC0003E0
F80001E0
F00001E0
F00001E0
F00001E0
F00001E0
F00001E0
F00001E0
F00001E0
F00001E0
F00001E0
F00001E0
F00001E0
F00001E0
F00001E0
F00001E0
F00001E0
F00001E0
F00001E0
F00001E0
F00001E0
F00001E0
F00001E0
F00001E0
F00001E0
F00001E0
F00001E0
F00001E0
F00001E0
F00001E0
F00001E0
F00001E0
F00001E0
F00001E0
F80001E0
FC0003E0
7E0007C0
3F001F80
1FE07F00
0FFFFE00
03FFFC00
01FFF000
003F8000
ENDCHAR
STARTCHAR 00F5
ENCODING 245
SWIDTH 345 0
DWIDTH 39 0
BBX 27 64 6 0
BITMAP
01F00000
0FFC0380
1FFF8FC0
7FFFFFC0
3E1FFF00
1803FE00
0000F800
00000000
00000000
00000000
00000000
00000000
00000000
00000000
003F8000
01FFF000
03FFFC00
0FFFFE00
1FE07F00
3F001F80
7E000FC0
FC0003E0
F80001E0
F00001E0
F00001E0
F00001E0
F00001E0
F00001E0
F00001E0
F00001E0
F00001E0
F00001E0
F00001E0
F00001E0
F00001E0
F00001E0
F00001E0
F00001E0
F00001E0
F00001E0
F00001E0
F00001E0
F00001E0
F00001E0
F00001E0
F00001E0
F00001E0
F00001E0
F00001E0
F00001E0
F00001E0
F00001E0
F00001E0
F00001E0
F00001E0
F80001E0
FC0003E0
7E000FC0
3F001F80
1FE07F00
0FFFFE00
03FFFC00
01FFF000
003F8000
ENDCHAR
STARTCHAR 00F6
ENCODING 246
SWIDTH 345 0
DWIDTH 39 0
BBX 27 64 6 0
BITMAP
03C07800
03C07800
03C07800
03C07800
03C07800
03C07800
03C07800
03C07800
00000000
00000000
00000000
00000000
00000000
00000000
003F8000
01FFF000
03FFFC00
0FFFFE00
1FE07F00
3F001F80
7E000FC0
FC0003E0
F80001E0
F00001E0
F00001E0
F00001E0
F00001E0
F00001E0
F00001E0
F00001E0
F00001E0
F00001E0
F00001E0
F00001E0
F00001E0
F00001E0
F00001E0
F00001E0
F00001E0
F00001E0
F00001E0
F00001E0
F00001E0
F00001E0
F00001E0
F00001E0
F00001E0
F00001E0
F00001E0
F00001E0
F00001E0
F00001E0
F00001E0
F00001E0
F00001E0
F80001E0
FC0003E0
7E000FC0
3F001F80
1FE07F00
0FFFFE00
03FFFC00
01FFF000
003F8000
ENDCHAR
STARTCHAR 00F7
ENCODING 247
SWIDTH 415 0
DWIDTH 47 0
BBX 34 33 6 16
BITMAP
0001E00000
0001E00000
0001E00000
0001E00000
0001E00000
0001E00000
0001E00000
0001E00000
0000000000
0000000000
0000000000
0000000000
0000000000
0000000000
FFFFFFFFC0
FFFFFFFFC0
FFFFFFFFC0
FFFFFFFFC0
0000000000
0000000000
0000000000
0000000000
0000000000
0000000000
0000000000
0001E00000
0001E00000
0001E00000
0001E00000
0001E00000
0001E00000
0001E00000
0001E00000
ENDCHAR
STARTCHAR 00F8
ENCODING 248
SWIDTH 345 0
DWIDTH 39 0
BBX 27 59 6 -5
BITMAP
00000780
00000F80
00000F00
00000F00
003F8F00
01FFFE00
07FFFE00
0FFFFE00
1FE07F00
3F003F80
7E003FC0
FC007BE0
F80079E0
F00079E0
F000F1E0
F000F1E0
F000F1E0
F001E1E0
F001E1E0
F001E1E0
F003E1E0
F003C1E0
F003C1E0
F007C1E0
F00781E0
F00781E0
F00F81E0
F00F01E0
F00F01E0
F01F01E0
F01E01E0
F01E01E0
F03E01E0
F03C01E0
F03C01E0
F07C01E0
F07801E0
F07801E0
F0F801E0
F0F001E0
F0F001E0
F0F001E0
F1E001E0
F1E001E0
F1E001E0
F3C001E0
FBC003E0
7FC00FC0
3F801F80
1FC07F00
0FFFFE00
0FFFFC00
0FFFF000
0F3F8000
1F000000
1E000000
1E000000
1E000000
3C000000
ENDCHAR
STARTCHAR 00F9
ENCODING 249
SWIDTH 345 0
DWIDTH 39 0
BBX 27 68 6 0
BITMAP
01E00000
00F00000
00F00000
00780000
003C0000
001E0000
000F0000
00078000
0003C000
0001C000
0001E000
0000F000
00000000
00000000
00000000
00000000
00000000
00000000
F00001E0
F00001E0
F00001E0
F00001E0
F00001E0
F00001E0
F00001E0
F00001E0
F00001E0
F00001E0
F00001E0
F00001E0
F00001E0
F00001E0
F00001E0
F00001E0
F00001E0
F00001E0
F00001E0
F00001E0
F00001E0
F00001E0
F00001E0
F00001E0
F00001E0
F00001E0
F00001E0
F00001E0
F00001E0
F00001E0
F00001E0
F00001E0
F00001E0
F00001E0
F00001E0
F00001E0
F00001E0
F00001E0
F00001E0
F00001E0
F00001E0
F00001E0
F80003E0
7E0007E0
3F001FE0
1FC07FE0
0FFFFFE0
03FFF9E0
01FFE1E0
003F81E0
ENDCHAR
STARTCHAR 00FA
ENCODING 250
SWIDTH 345 0
DWIDTH 39 0
BBX 27 68 6 0
BITMAP
00007800
0000F000
0001E000
0003C000
00078000
000F0000
001E0000
001E0000
003C0000
00780000
00F00000
01E00000
00000000
00000000
00000000
00000000
00000000
00000000
F00001E0
F00001E0
F00001E0
F00001E0
F00001E0
F00001E0
F00001E0
F00001E0
F00001E0
F00001E0
F00001E0
F00001E0
F00001E0
F00001E0
F00001E0
F00001E0
F00001E0
F00001E0
F00001E0
F00001E0
F00001E0
F00001E0
F00001E0
F00001E0
F00001E0
F00001E0
F00001E0
F00001E0
F00001E0
F00001E0
F00001E0
F00001E0
F00001E0
F00001E0
F00001E0
F00001E0
F00001E0
F00001E0
F00001E0
F00001E0
F00001E0
F00001E0
F80003E0
7E0007E0
3F001FE0
1FC07FE0
0FFFFFE0
03FFF9E0
01FFE1E0
003F81E0
ENDCHAR
STARTCHAR 00FB
ENCODING 251
SWIDTH 345 0
DWIDTH 39 0
BBX 27 68 6 0
BITMAP
001F0000
001F0000
003F8000
003FC000
007BC000
00F9E000
00F1E000
01E0F000
03E07800
03C07800
07803C00
07001C00
00001E00
00000000
00000000
00000000
00000000
00000000
F00001E0
F00001E0
F00001E0
F00001E0
F00001E0
F00001E0
F00001E0
F00001E0
F00001E0
F00001E0
F00001E0
F00001E0
F00001E0
F00001E0
F00001E0
F00001E0
F00001E0
F00001E0
F00001E0
F00001E0
F00001E0
F00001E0
F00001E0
F00001E0
F00001E0
F00001E0
F00001E0
F00001E0
F00001E0
F00001E0
F00001E0
F00001E0
F00001E0
F00001E0
F00001E0
F00001E0
F00001E0
F00001E0
F00001E0
F00001E0
F00001E0
F00001E0
F80003E0
7E0007E0
3F001FE0
1FC07FE0
0FFFFFE0
03FFF9E0
01FFE1E0
003F81E0
ENDCHAR
STARTCHAR 00FC
ENCODING 252
SWIDTH 345 0
DWIDTH 39 0
BBX 27 64 6 0
BITMAP
03C07800
03C07800
03C07800
03C07800
03C07800
03C07800
03C07800
03C07800
00000000
00000000
00000000
00000000
00000000
00000000
F00001E0
F00001E0
F00001E0
F00001E0
F00001E0
F00001E0
F00001E0
F00001E0
F00001E0
F00001E0
F00001E0
F00001E0
F00001E0
F00001E0
F00001E0
F00001E0
F00001E0
F00001E0
F00001E0
F00001E0
F00001E0
F00001E0
F00001E0
F00001E0
F00001E0
F00001E0
F00001E0
F00001E0
F00001E0
F00001E0
F00001E0
F00001E0
F00001E0
F00001E0
F00001E0
F00001E0
F00001E0
F00001E0
F00001E0
F00001E0
F00001E0
F00001E0
F80003E0
7E0007E0
3F001FE0
1FC07FE0
0FFFFFE0
03FFF9E0
01FFE1E0
003F81E0
ENDCHAR
STARTCHAR 00FD
ENCODING 253
SWIDTH 345 0
DWIDTH 39 0
BBX 27 91 6 -23
BITMAP
00007800
0000F000
0001E000
0003C000
00078000
000F0000
001E0000
001E0000
003C0000
00780000
00F00000
01E00000
00000000
00000000
00000000
00000000
00000000
00000000
F00001E0
F00001E0
F00001E0
F00001E0
F00001E0
F00001E0
F00001E0
F00001E0
F00001E0
F00001E0
F00001E0
F00001E0
F00001E0
F00001E0
F00001E0
F00001E0
F00001E0
F00001E0
F00001E0
F00001E0
F00001E0
F00001E0
F00001E0
F00001E0
F00001E0
F00001E0
F00001E0
F00001E0
F00001E0
F00001E0
F00001E0
F00001E0
F00001E0
F00001E0
F00001E0
F00001E0
F00001E0
F00001E0
F00001E0
F00001E0
F00001E0
F00001E0
F80003E0
7E0007E0
3F001FE0
1FC07FE0
0FFFFFE0
03FFF9E0
01FFE1E0
003F81E0
000001E0
000001E0
000001E0
000001E0
000001E0
000001E0
000001E0
000001E0
000001E0
000001E0
000001E0
000001E0
000001E0
000001E0
000001E0
000003E0
00000FC0
00001F80
00007F00
0003FE00
0003FC00
0003F000
00038000
ENDCHAR
STARTCHAR 00FE
ENCODING 254
SWIDTH 345 0
DWIDTH 39 0
BBX 27 96 6 -23
BITMAP
F0000000
F0000000
F0000000
F0000000
F0000000
F0000000
F0000000
F0000000
F0000000
F0000000
F0000000
F0000000
F0000000
F0000000
F0000000
F0000000
F0000000
F0000000
F0000000
F0000000
F0000000
F0000000
F0000000
F03F8000
F0FFF000
F3FFFC00
F7FFFE00
FFC03F00
FF001F80
FC0007C0
F80003E0
F00001E0
F00001E0
F00001E0
F00001E0
F00001E0
F00001E0
F00001E0
F00001E0
F00001E0
F00001E0
F00001E0
F00001E0
F00001E0
F00001E0
F00001E0
F00001E0
F00001E0
F00001E0
F00001E0
F00001E0
F00001E0
F00001E0
F00001E0
F00001E0
F00001E0
F00001E0
F00001E0
F00001E0
F00001E0
F00001E0
F00001E0
F00001E0
F00001E0
F80001E0
FC0003E0
FE000FC0
FF001F80
FFC07F00
F7FFFE00
F3FFFC00
F0FFF000
F03F8000
F0000000
F0000000
F0000000
F0000000
F0000000
F0000000
F0000000
F0000000
F0000000
F0000000
F0000000
F0000000
F0000000
F0000000
F0000000
F0000000
F0000000
F0000000
F0000000
F0000000
F0000000
F0000000
F0000000
ENDCHAR
STARTCHAR 00FF
ENCODING 255
SWIDTH 345 0
DWIDTH 39 0
BBX 27 87 6 -23
BITMAP
03C07800
03C07800
03C07800
03C07800
03C07800
03C07800
03C07800
03C07800
00000000
00000000
00000000
00000000
00000000
00000000
F00001E0
F00001E0
F00001E0
F00001E0
F00001E0
F00001E0
F00001E0
F00001E0
F00001E0
F00001E0
F00001E0
F00001E0
F00001E0
F00001E0
F00001E0
F00001E0
F00001E0
F00001E0
F00001E0
F00001E0
F00001E0
F00001E0
F00001E0
F00001E0
F00001E0
F00001E0
F00001E0
F00001E0
F00001E0
F00001E0
F00001E0
F00001E0
F00001E0
F00001E0
F00001E0
F00001E0
F00001E0
F00001E0
F00001E0
F00001E0
F00001E0
F00001E0
F80003E0
7E0007E0
3F001FE0
1FC07FE0
0FFFFFE0
03FFF9E0
01FFE1E0
003F81E0
000001E0
000001E0
000001E0
000001E0
000001E0
000001E0
000001E0
000001E0
000001E0
000001E0
000001E0
000001E0
000001E0
000001E0
000001E0
000003E0
00000FC0
00001F80
00007F00
0003FE00
0003FC00
0003F000
00038000
ENDCHAR
STARTCHAR 0101
ENCODING 257
SWIDTH 345 0
DWIDTH 39 0
BBX 0 0 0 0
BITMAP
ENDCHAR
STARTCHAR 0152
ENCODING 338
SWIDTH 548 0
DWIDTH 62 0
BBX 50 73 6 0
BITMAP
003F80007F0000
01FFE001FFE000
07FFF807FFF800
0FFFFC0FFFFC00
1FE07F1FC0FE00
3F001FBE003F00
7E000FFC000F80
FC0003F80007C0
F80001F0000200
F00001E0000000
F00001E0000000
F00001E0000000
F00001E0000000
F00001E0000000
F00001E0000000
F00001E0000000
F00001E0000000
F00001E0000000
F00001E0000000
F00001E0000000
F00001E0000000
F00001E0000000
F00001E0000000
F00001E0000000
F00001E0000000
F00001E0000000
F00001E0000000
F00001E0000000
F00001E0000000
F00001E0000000
F00001E0000000
F00001FFFFC000
F00001FFFFC000
F00001FFFFC000
F00001FFFFC000
F00001E0000000
F00001E0000000
F00001E0000000
F00001E0000000
F00001E0000000
F00001E0000000
F00001E0000000
F00001E0000000
F00001E0000000
F00001E0000000
F00001E0000000
F00001E0000000
F00001E0000000
F00001E0000000
F00001E0000000
F00001E0000000
F00001E0000000
F00001E0000000
F00001E0000000
F00001E0000000
F00001E0000000
F00001E0000000
F00001E0000000
F00001E0000000
F00001E0000000
F00001E0000000
F00001E0000000
F00001E0000000
F00001E0000000
F00001E0000300
F80003F00007C0
7E000FFC000F80
3F001FFE003F00
1FC07FBFC0FE00
0FFFFE1FFFFC00
03FFFC0FFFF800
01FFF003FFE000
003F80007F0000
ENDCHAR
STARTCHAR 0153
ENCODING 339
SWIDTH 548 0
DWIDTH 62 0
BBX 50 50 6 0
BITMAP
003F80007F0000
01FFF001FFE000
07FFF807FFF800
0FFFFE1FFFFC00
1FE07F3FC0FE00
3F001FFE003F00
7E000FFC001F80
FC0003F80007C0
F80001F00003C0
F00001E00003C0
F00001E00003C0
F00001E00003C0
F00001E00003C0
F00001E00003C0
F00001E00003C0
F00001E00003C0
F00001E00003C0
F00001E00003C0
F00001E00003C0
F00001E00003C0
F00001E00003C0
F00001E00003C0
F00001F00007C0
F00001F8000FC0
F00001FC001F80
F00001FF003F00
F00001FFC1FE00
F00001EFFFFC00
F00001E7FFF000
F00001E1FFE000
F00001E07F0000
F00001E0000000
F00001E0000000
F00001E0000000
F00001E0000000
F00001E0000000
F00001E0000000
F00001E0000000
F00001E0000000
F00001E0000000
F00001E0000000
F00001F0000300
F80003F80007C0
7E000FFC000F80
3F001FFE003F00
1FC07F3FC0FE00
0FFFFE1FFFFC00
03FFF807FFF800
01FFF003FFE000
003F80007F0000
ENDCHAR
STARTCHAR 0160
ENCODING 352
SWIDTH 345 0
DWIDTH 39 0
BBX 27 90 6 0
BITMAP
0F001E00
07803C00
03C03C00
03C07800
01E0F000
00F1F000
00F9E000
007BC000
007FC000
003F8000
001F0000
001F0000
00000000
00000000
00000000
00000000
00000000
003F8000
01FFF000
07FFFC00
0FFFFE00
1FE07F00
3F001F80
7E0007C0
FC0003E0
F0000100
F0000000
F0000000
F0000000
F0000000
F0000000
F0000000
F0000000
F0000000
F0000000
F0000000
F0000000
F0000000
F0000000
F0000000
F0000000
F0000000
F0000000
F8000000
7E000000
3F000000
1FC00000
0FFF8000
07FFF000
01FFF800
003FFE00
00007F00
00001F80
00000FC0
000003E0
000001E0
000001E0
000001E0
000001E0
000001E0
000001E0
000001E0
000001E0
000001E0
000001E0
000001E0
000001E0
000001E0
000001E0
000001E0
000001E0
000001E0
000001E0
000001E0
000001E0
000001E0
000001E0
000001E0
000001E0
000001E0
000001E0
380001E0
FC0003E0
7E000FC0
3F001F80
1FE07F00
0FFFFE00
03FFFC00
01FFF000
003F8000
ENDCHAR
STARTCHAR 0161
ENCODING 353
SWIDTH 345 0
DWIDTH 39 0
BBX 27 68 6 0
BITMAP
0F001E00
07803C00
03C03C00
03C07800
01E0F000
01F0F000
00F1E000
007BE000
007BC000
003F8000
003F8000
001F0000
000F0000
00000000
00000000
00000000
00000000
00000000
003F8000
01FFF000
03FFFC00
0FFFFE00
1FE07F00
3F001F80
7E0007C0
FC0003E0
F8000100
F0000000
F0000000
F0000000
F0000000
F0000000
F0000000
F0000000
F0000000
F0000000
F0000000
F8000000
7E000000
3F000000
1FC00000
0FFF8000
03FFF000
01FFFC00
003FFE00
00007F00
00001F80
000007C0
000003E0
000001E0
000001E0
000001E0
000001E0
000001E0
000001E0
000001E0
000001E0
000001E0
000001E0
300001E0
F80003E0
7E0007C0
3F001F80
1FC07F00
0FFFFE00
03FFFC00
01FFF000
003F8000
ENDCHAR
STARTCHAR 0178
ENCODING 376
SWIDTH 345 0
DWIDTH 39 0
BBX 27 87 6 0
BITMAP
03C07800
03C07800
03C07800
03C07800
03C07800
03C07800
03C07800
03C07800
00000000
00000000
00000000
00000000
00000000
00000000
F00001E0
F00001E0
F00001E0
F00001E0
F00001E0
F00001E0
F00001E0
F00001E0
F00001E0
F00001E0
F00001E0
F00001E0
F00001E0
F00001E0
F00001E0
F00001E0
F00001E0
F00001E0
F00001E0
F00001E0
F00001E0
F00001E0
F00001E0
F00001E0
F00001E0
F00001E0
F80003E0
7C0007C0
3E000FC0
1F803F80
0FFBFF00
07FFFC00
01FFF800
007FE000
000F0000
000F0000
000F0000
000F0000
000F0000
000F0000
000F0000
000F0000
000F0000
000F0000
000F0000
000F0000
000F0000
000F0000
000F0000
000F0000
000F0000
000F0000
000F0000
000F0000
000F0000
000F0000
000F0000
000F0000
000F0000
000F0000
000F0000
000F0000
000F0000
000F0000
000F0000
000F0000
000F0000
000F0000
000F0000
000F0000
000F0000
000F0000
000F0000
ENDCHAR
STARTCHAR 0192
ENCODING 402
SWIDTH 442 0
DWIDTH 50 0
BBX 38 88 6 -15
BITMAP
000000001C
00000000FC
00000003FC
0000000FFC
0000001FE0
0000003F00
0000007C00
000000F800
000000F000
000001E000
000001E000
000001E000
000001E000
000001E000
000003E000
000003C000
000003C000
000003C000
000003C000
000003C000
0000078000
0000078000
0000078000
0000078000
0003FFFF80
0003FFFF80
0007FFFF80
0007FFFF80
00000F0000
00000F0000
00000F0000
00000F0000
00001F0000
00001E0000
00001E0000
00001E0000
00001E0000
00001E0000
00003E0000
00003C0000
00003C0000
00003C0000
00003C0000
00003C0000
00007C0000
0000780000
0000780000
0000780000
0000780000
0000780000
0000F80000
0000F00000
0000F00000
0000F00000
0000F00000
0000F00000
0001F00000
0001E00000
0001E00000
0001E00000
0001E00000
0001E00000
0003E00000
0003C00000
0003C00000
0003C00000
0003C00000
0003C00000
0007C00000
0007800000
0007800000
0007800000
0007800000
0007800000
000F800000
000F000000
000F000000
000F000000
000F000000
001F000000
003F000000
007C000000
01F8000000
0FF0000000
7FE0000000
7F80000000
FE00000000
F000000000
ENDCHAR
STARTCHAR 02C6
ENCODING 710
SWIDTH 274 0
DWIDTH 31 0
BBX 19 15 6 57
BITMAP
00F000
01F000
01F800
03FC00
03FC00
07FE00
079E00
0F9F00
1F0F00
1F0F80
3E0780
3C07C0
7C03C0
7803E0
F801E0
ENDCHAR
STARTCHAR 02DC
ENCODING 732
SWIDTH 336 0
DWIDTH 38 0
BBX 25 7 7 64
BITMAP
07C00000
1FF80600
7FFE1F00
FFFFFF80
FC7FFE00
300FF800
0003E000
ENDCHAR
STARTCHAR 03BC
ENCODING 956
SWIDTH 345 0
DWIDTH 39 0
BBX 27 65 6 -15
BITMAP
F00001E0
F00001E0
F00001E0
F00001E0
F00001E0
F00001E0
F00001E0
F00001E0
F00001E0
F00001E0
F00001E0
F00001E0
F00001E0
F00001E0
F00001E0
F00001E0
F00001E0
F00001E0
F00001E0
F00001E0
F00001E0
F00001E0
F00001E0
F00001E0
F00001E0
F00001E0
F00001E0
F00001E0
F00001E0
F00001E0
F00001E0
F00001E0
F00001E0
F00001E0
F00001E0
F00001E0
F00001E0
F00001E0
F00001E0
F00001E0
F00001E0
F00001E0
F80003E0
FE0007C0
FF001F80
FFC07F00
F7FFFE00
F3FFF800
F0FFF000
F03F8000
F007C000
F003E000
F003F000
F001FC00
F000FF00
F0003FE0
F0001FE0
F00007E0
F00001E0
F0000000
F0000000
F0000000
F0000000
F0000000
F0000000
ENDCHAR
STARTCHAR 2010
ENCODING 8208
SWIDTH 415 0
DWIDTH 47 0
BBX 35 4 6 31
BITMAP
FFFFFFFFE0
FFFFFFFFE0
FFFFFFFFE0
FFFFFFFFE0
ENDCHAR
STARTCHAR 2013
ENCODING 8211
SWIDTH 477 0
DWIDTH 54 0
BBX 42 4 6 31
BITMAP
FFFFFFFFFFC0
FFFFFFFFFFC0
FFFFFFFFFFC0
FFFFFFFFFFC0
ENDCHAR
STARTCHAR 2014
ENCODING 8212
SWIDTH 557 0
DWIDTH 63 0
BBX 51 4 6 31
BITMAP
FFFFFFFFFFFFE0
FFFFFFFFFFFFE0
FFFFFFFFFFFFE0
FFFFFFFFFFFFE0
ENDCHAR
STARTCHAR 2018
ENCODING 8216
SWIDTH 176 0
DWIDTH 20 0
BBX 8 15 6 57
BITMAP
F0
F0
78
78
78
78
3C
3C
3C
3C
1E
1E
1E
1F
0F
ENDCHAR
STARTCHAR 2019
ENCODING 8217
SWIDTH 176 0
DWIDTH 20 0
BBX 8 15 6 59
BITMAP
0F
1F
1E
1E
1E
3E
3C
3C
3C
78
78
78
78
F0
F0
ENDCHAR
STARTCHAR 201A
ENCODING 8218
SWIDTH 176 0
DWIDTH 20 0
BBX 8 16 6 -7
BITMAP
0F
1F
1E
1E
1E
3E
3C
3C
3C
7C
78
78
78
78
F0
F0
ENDCHAR
STARTCHAR 201C
ENCODING 8220
SWIDTH 238 0
DWIDTH 27 0
BBX 15 15 6 58
BITMAP
F0F0
78F0
78F0
7878
3878
3C78
3C78
3C3C
1C3C
1E3C
1E3C
1E1E
0F1E
0F1E
0F1E
ENDCHAR
STARTCHAR 201D
ENCODING 8221
SWIDTH 238 0
DWIDTH 27 0
BBX 15 15 6 58
BITMAP
0F1E
0F1E
0F1E
1E1E
1E3C
1E3C
1C3C
3C3C
3C78
3C78
3878
7878
78F0
78F0
F0F0
ENDCHAR
STARTCHAR 201E
ENCODING 8222
SWIDTH 274 0
DWIDTH 31 0
BBX 19 16 6 -8
BITMAP
0F01E0
1F01E0
1F03E0
1E03C0
1E03C0
3E03C0
3E07C0
3C0780
3C0780
7C0780
7C0780
780F00
780F00
F80F00
F80F00
F01F00
ENDCHAR
STARTCHAR 2020
ENCODING 8224
SWIDTH 283 0
DWIDTH 32 0
BBX 20 73 6 -8
BITMAP
00F000
00F000
00F000
00F000
00F000
00F000
00F000
00F000
00F000
00F000
00F000
FFFFF0
FFFFF0
FFFFF0
FFFFF0
00F000
00F000
00F000
00F000
00F000
00F000
00F000
00F000
00F000
00F000
00F000
00F000
00F000
00F000
00F000
00F000
00F000
00F000
00F000
00F000
00F000
00F000
00F000
00F000
00F000
00F000
00F000
00F000
00F000
00F000
00F000
00F000
00F000
00F000
00F000
00F000
00F000
00F000
00F000
00F000
00F000
00F000
00F000
00F000
00F000
00F000
00F000
00F000
00F000
00F000
00F000
00F000
00F000
00F000
00F000
00F000
00F000
00F000
ENDCHAR
STARTCHAR 2021
ENCODING 8225
SWIDTH 283 0
DWIDTH 32 0
BBX 20 73 6 -8
BITMAP
00F000
00F000
00F000
00F000
00F000
00F000
00F000
00F000
00F000
00F000
00F000
FFFFF0
FFFFF0
FFFFF0
FFFFF0
00F000
00F000
00F000
00F000
00F000
00F000
00F000
00F000
00F000
00F000
00F000
00F000
00F000
00F000
00F000
00F000
00F000
00F000
00F000
00F000
00F000
00F000
00F000
00F000
00F000
00F000
00F000
00F000
00F000
00F000
00F000
00F000
00F000
00F000
00F000
00F000
00F000
00F000
00F000
00F000
00F000
00F000
FFFFF0
FFFFF0
FFFFF0
FFFFF0
00F000
00F000
00F000
00F000
00F000
00F000
00F000
00F000
00F000
00F000
00F000
00F000
ENDCHAR
STARTCHAR 2022
ENCODING 8226
SWIDTH 176 0
DWIDTH 20 0
BBX 8 12 6 29
BITMAP
FF
FF
FF
FF
FF
FF
FF
FF
FF
FF
FF
FF
ENDCHAR
STARTCHAR 2026
ENCODING 8230
SWIDTH 442 0
DWIDTH 50 0
BBX 38 8 6 0
BITMAP
F00078003C
F00078003C
F00078003C
F00078003C
F00078003C
F00078003C
F00078003C
F00078003C
ENDCHAR
STARTCHAR 2030
ENCODING 8240
SWIDTH 831 0
DWIDTH 94 0
BBX 82 73 6 -1
BITMAP
01F8000001E00000000000
07FE000001E00000000000
0FFF000003E00000000000
1FFF800003C00000000000
3F0F800003C00000000000
3E07C00007C00000000000
7C03C00007800000000000
F801E00007800000000000
F001E0000F800000000000
F001E0000F000000000000
F001E0000F000000000000
F001E0001F000000000000
F001E0001E000000000000
F001E0001E000000000000
F001E0003E000000000000
F001E0003C000000000000
F001E0003C000000000000
F001E0007C000000000000
F001E00078000000000000
F001E00078000000000000
F001E000F8000000000000
F001E000F0000000000000
F001E000F0000000000000
F001E001F0000000000000
F001E001E0000000000000
F001E001E0000000000000
F001E003E0000000000000
F001E003C0000000000000
F001E003C0000000000000
F001E007C0000000000000
F803E00780000000000000
7C07C00780000000000000
3E07C00F80000000000000
3F0F800F00000000000000
1FFF000F0003E00007E000
0FFE001F000FF8001FF800
07FC001E001FFC003FFC00
01F0001E003FFE003FFE00
0000003E003E3E007C3E00
0000003C007C1F00F81F00
0000003C00F80F81F00F80
0000007C00F007C1E007C0
0000007801E003C3C003C0
0000007801E003C3C003C0
000000F801E003C3C003C0
000000F001E003C3C003C0
000000F001E003C3C003C0
000001F001E003C3C003C0
000001E001E003C3C003C0
000001E001E003C3C003C0
000003E001E003C3C003C0
000003C001E003C3C003C0
000003C001E003C3C003C0
000007C001E003C3C003C0
0000078001E003C3C003C0
0000078001E003C3C003C0
0000078001E003C3C003C0
00000F0001E003C3C003C0
00000F0001E003C3C003C0
00000F0001E003C3C003C0
00001E0001E003C3C003C0
00001E0001E003C3C003C0
00001E0001E003C3C003C0
00003C0001E003C3C003C0
00003C0001E003C3E003C0
00003C0001F007C3E007C0
0000780000F80F81F00F80
00007800007C0F00F81F00
00007800003E3F007C3F00
0000F000003FFE003FFE00
0000F000001FFC003FFC00
0000F000000FF8001FF800
0001F0000003F00007E000
ENDCHAR
STARTCHAR 2039
ENCODING 8249
SWIDTH 230 0
DWIDTH 26 0
BBX 14 26 6 19
BITMAP
0004
000C
001C
003C
00F8
01F0
03F0
07E0
0FC0
1F80
7F00
FF00
FE00
FC00
FE00
FE00
7F00
3F80
0FC0
07E0
03E0
01F0
00F8
0078
0018
0008
ENDCHAR
STARTCHAR 203A
ENCODING 8250
SWIDTH 230 0
DWIDTH 26 0
BBX 14 27 6 19
BITMAP
8000
C000
E000
F000
7800
7E00
3F00
1F80
0FC0
07E0
07F0
03F8
01FC
00FC
01FC
03FC
03F0
07E0
0FC0
1F80
3F00
3E00
7C00
F000
E000
C000
8000
ENDCHAR
STARTCHAR 2122
ENCODING 8482
SWIDTH 628 0
DWIDTH 71 0
BBX 59 21 6 45
BITMAP
01F80001F803F800
0FFF000FFE0FFE00
1FFF801FFFBFFF00
3FFFE03FFFFFFFC0
FEF3F0FE0FFC0FE0
F8F0F0F803F003E0
00F000F001E001E0
00F000F001E001E0
00F000F001E001E0
00F000F001E001E0
00F000F001E001E0
00F000F001E001E0
00F000F001E001E0
00F000F001E001E0
00F000F001E001E0
00F000F001E001E0
00F000F001E001E0
00F000F001E001E0
00F000F001E001E0
00F000F001E001E0
00F000F001E001E0
ENDCHAR
STARTCHAR 2212
ENCODING 8722
SWIDTH 415 0
DWIDTH 47 0
BBX 35 4 6 31
BITMAP
FFFFFFFFE0
FFFFFFFFE0
FFFFFFFFE0
FFFFFFFFE0
ENDCHAR
STARTCHAR 2219
ENCODING 8729
SWIDTH 141 0
DWIDTH 16 0
BBX 4 8 6 31
BITMAP
F0
F0
F0
F0
F0
F0
F0
F0
ENDCHAR
ENDFONT
